Space-Mono-Bold-Italic_QUADRATIC.ufo
<glyph name="exclam" format="1">
  <advance width="612"/>
  <unicode hex="0021"/>
  <outline>
    <contour>
      <point x="454" y="700" type="line"/>
      <point x="350" y="218" type="line"/>
      <point x="218" y="218" type="line"/>
      <point x="322" y="700" type="line"/>
    </contour>
    <contour>
      <point x="356" y="81" type="qcurve"/>
      <point x="356" y="61"/>
      <point x="341" y="26"/>
      <point x="315" y="1"/>
      <point x="280" y="-14"/>
      <point x="261" y="-14" type="qcurve"/>
      <point x="241" y="-14"/>
      <point x="207" y="1"/>
      <point x="181" y="26"/>
      <point x="166" y="61"/>
      <point x="166" y="81" type="qcurve"/>
      <point x="166" y="101"/>
      <point x="181" y="136"/>
      <point x="207" y="161"/>
      <point x="241" y="176"/>
      <point x="261" y="176" type="qcurve"/>
      <point x="280" y="176"/>
      <point x="315" y="161"/>
      <point x="341" y="136"/>
      <point x="356" y="101"/>
    </contour>
  </outline>
</glyph>
<glyph name="numbersign" format="1">
  <advance width="612"/>
  <unicode hex="0023"/>
  <outline>
    <contour>
      <point x="288" y="90" type="line"/>
      <point x="312" y="204" type="line"/>
      <point x="236" y="204" type="line"/>
      <point x="212" y="90" type="line"/>
      <point x="104" y="90" type="line"/>
      <point x="128" y="204" type="line"/>
      <point x="37" y="204" type="line"/>
      <point x="37" y="312" type="line"/>
      <point x="151" y="312" type="line"/>
      <point x="168" y="388" type="line"/>
      <point x="77" y="388" type="line"/>
      <point x="77" y="496" type="line"/>
      <point x="191" y="496" type="line"/>
      <point x="215" y="610" type="line"/>
      <point x="323" y="610" type="line"/>
      <point x="299" y="496" type="line"/>
      <point x="375" y="496" type="line"/>
      <point x="399" y="610" type="line"/>
      <point x="507" y="610" type="line"/>
      <point x="483" y="496" type="line"/>
      <point x="573" y="496" type="line"/>
      <point x="573" y="388" type="line"/>
      <point x="460" y="388" type="line"/>
      <point x="443" y="312" type="line"/>
      <point x="533" y="312" type="line"/>
      <point x="533" y="204" type="line"/>
      <point x="420" y="204" type="line"/>
      <point x="396" y="90" type="line"/>
    </contour>
    <contour>
      <point x="352" y="388" type="line"/>
      <point x="276" y="388" type="line"/>
      <point x="259" y="312" type="line"/>
      <point x="335" y="312" type="line"/>
    </contour>
  </outline>
</glyph>
<glyph name="parenright" format="1">
  <advance width="612"/>
  <unicode hex="0029"/>
  <outline>
    <contour>
      <point x="176" y="730" type="line"/>
      <point x="176" y="856" type="line"/>
      <point x="257" y="856" type="line"/>
      <point x="317" y="856"/>
      <point x="420" y="817"/>
      <point x="497" y="744"/>
      <point x="540" y="636"/>
      <point x="540" y="567" type="qcurve"/>
      <point x="540" y="519"/>
      <point x="528" y="464" type="qcurve"/>
      <point x="473" y="206" type="line"/>
      <point x="452" y="107"/>
      <point x="375" y="-31"/>
      <point x="266" y="-117"/>
      <point x="127" y="-156"/>
      <point x="44" y="-156" type="qcurve"/>
      <point x="0" y="-156" type="line"/>
      <point x="0" y="-30" type="line"/>
      <point x="58" y="-30" type="line"/>
      <point x="180" y="-30"/>
      <point x="320" y="94"/>
      <point x="348" y="228" type="qcurve"/>
      <point x="399" y="472" type="line"/>
      <point x="408" y="515"/>
      <point x="408" y="551" type="qcurve"/>
      <point x="408" y="605"/>
      <point x="373" y="674"/>
      <point x="319" y="714"/>
      <point x="254" y="730"/>
      <point x="224" y="730" type="qcurve"/>
    </contour>
  </outline>
</glyph>
<glyph name="comma" format="1">
  <advance width="612"/>
  <unicode hex="002C"/>
  <outline>
    <contour>
      <point x="174" y="82" type="qcurve"/>
      <point x="174" y="102"/>
      <point x="189" y="137"/>
      <point x="215" y="162"/>
      <point x="249" y="176"/>
      <point x="269" y="176" type="qcurve"/>
      <point x="288" y="176"/>
      <point x="323" y="161"/>
      <point x="349" y="136"/>
      <point x="364" y="101"/>
      <point x="364" y="81" type="qcurve"/>
      <point x="364" y="76"/>
      <point x="363" y="66"/>
      <point x="362" y="61" type="qcurve"/>
      <point x="337" y="-58" type="line"/>
      <point x="329" y="-96"/>
      <point x="273" y="-131"/>
      <point x="232" y="-131" type="qcurve"/>
      <point x="150" y="-131" type="line"/>
      <point x="150" y="-53" type="line"/>
      <point x="226" y="-53" type="line"/>
      <point x="257" y="-53"/>
      <point x="263" y="-25" type="qcurve"/>
      <point x="266" y="-8" type="line"/>
      <point x="249" y="-8"/>
      <point x="216" y="3"/>
      <point x="190" y="26"/>
      <point x="174" y="59"/>
    </contour>
  </outline>
</glyph>
<glyph name="hyphen" format="1">
  <advance width="612"/>
  <unicode hex="002D"/>
  <outline>
    <contour>
      <point x="150" y="332" type="line"/>
      <point x="462" y="332" type="line"/>
      <point x="462" y="218" type="line"/>
      <point x="150" y="218" type="line"/>
    </contour>
  </outline>
</glyph>
<glyph name="slash" format="1">
  <advance width="612"/>
  <unicode hex="002F"/>
  <outline>
    <contour>
      <point x="514" y="825" type="line"/>
      <point x="618" y="766" type="line"/>
      <point x="99" y="-125" type="line"/>
      <point x="-6" y="-66" type="line"/>
    </contour>
  </outline>
</glyph>
<glyph name="zero" format="1">
  <advance width="612"/>
  <unicode hex="0030"/>
  <outline>
    <contour>
      <point x="223" y="350" type="qcurve"/>
      <point x="223" y="384"/>
      <point x="273" y="434"/>
      <point x="307" y="434" type="qcurve"/>
      <point x="341" y="434"/>
      <point x="391" y="384"/>
      <point x="391" y="350" type="qcurve"/>
      <point x="391" y="316"/>
      <point x="341" y="266"/>
      <point x="307" y="266" type="qcurve"/>
      <point x="273" y="266"/>
      <point x="223" y="316"/>
    </contour>
    <contour>
      <point x="65" y="428" type="line"/>
      <point x="96" y="576"/>
      <point x="248" y="714"/>
      <point x="376" y="714" type="qcurve"/>
      <point x="426" y="714"/>
      <point x="505" y="680"/>
      <point x="559" y="621"/>
      <point x="588" y="541"/>
      <point x="588" y="495" type="qcurve"/>
      <point x="588" y="460"/>
      <point x="581" y="428" type="qcurve"/>
      <point x="548" y="272" type="line"/>
      <point x="517" y="124"/>
      <point x="365" y="-14"/>
      <point x="237" y="-14" type="qcurve"/>
      <point x="187" y="-14"/>
      <point x="108" y="20"/>
      <point x="54" y="79"/>
      <point x="25" y="159"/>
      <point x="25" y="205" type="qcurve"/>
      <point x="25" y="240"/>
      <point x="32" y="272" type="qcurve"/>
    </contour>
    <contour>
      <point x="257" y="106" type="qcurve"/>
      <point x="323" y="106"/>
      <point x="398" y="190"/>
      <point x="412" y="256" type="qcurve"/>
      <point x="451" y="436" type="line"/>
      <point x="457" y="463"/>
      <point x="457" y="487" type="qcurve"/>
      <point x="457" y="536"/>
      <point x="407" y="594"/>
      <point x="356" y="594" type="qcurve"/>
      <point x="290" y="594"/>
      <point x="215" y="510"/>
      <point x="201" y="444" type="qcurve"/>
      <point x="162" y="264" type="line"/>
      <point x="156" y="237"/>
      <point x="156" y="213" type="qcurve"/>
      <point x="156" y="164"/>
      <point x="206" y="106"/>
    </contour>
  </outline>
</glyph>
<glyph name="four" format="1">
  <advance width="612"/>
  <unicode hex="0034"/>
  <outline>
    <contour>
      <point x="314" y="700" type="line"/>
      <point x="568" y="700" type="line"/>
      <point x="474" y="258" type="line"/>
      <point x="562" y="258" type="line"/>
      <point x="562" y="132" type="line"/>
      <point x="447" y="132" type="line"/>
      <point x="419" y="0" type="line"/>
      <point x="287" y="0" type="line"/>
      <point x="315" y="132" type="line"/>
      <point x="11" y="132" type="line"/>
      <point x="11" y="318" type="line"/>
    </contour>
    <contour>
      <point x="122" y="276" type="line"/>
      <point x="122" y="258" type="line"/>
      <point x="342" y="258" type="line"/>
      <point x="422" y="634" type="line"/>
      <point x="404" y="634" type="line"/>
    </contour>
  </outline>
</glyph>
<glyph name="six" format="1">
  <advance width="612"/>
  <unicode hex="0036"/>
  <outline>
    <contour>
      <point x="446" y="502" type="line"/>
      <point x="447" y="507"/>
      <point x="447" y="512"/>
      <point x="447" y="516" type="qcurve"/>
      <point x="447" y="544"/>
      <point x="406" y="588"/>
      <point x="359" y="588" type="qcurve"/>
      <point x="299" y="588"/>
      <point x="229" y="525"/>
      <point x="218" y="474" type="qcurve"/>
      <point x="199" y="384" type="line"/>
      <point x="217" y="384" type="line"/>
      <point x="240" y="423"/>
      <point x="317" y="462"/>
      <point x="361" y="462" type="qcurve"/>
      <point x="398" y="462"/>
      <point x="463" y="436"/>
      <point x="512" y="388"/>
      <point x="540" y="317"/>
      <point x="540" y="272" type="qcurve"/>
      <point x="540" y="213"/>
      <point x="502" y="109"/>
      <point x="429" y="31"/>
      <point x="320" y="-14"/>
      <point x="249" y="-14" type="qcurve"/>
      <point x="201" y="-14"/>
      <point x="121" y="13"/>
      <point x="63" y="63"/>
      <point x="31" y="136"/>
      <point x="31" y="182" type="qcurve"/>
      <point x="31" y="209"/>
      <point x="37" y="241" type="qcurve"/>
      <point x="89" y="491" type="line"/>
      <point x="99" y="541"/>
      <point x="148" y="623"/>
      <point x="220" y="682"/>
      <point x="312" y="714"/>
      <point x="366" y="714" type="qcurve"/>
      <point x="419" y="714"/>
      <point x="499" y="686"/>
      <point x="553" y="637"/>
      <point x="581" y="572"/>
      <point x="581" y="536" type="qcurve"/>
      <point x="581" y="520"/>
      <point x="578" y="502" type="qcurve"/>
    </contour>
    <contour>
      <point x="269" y="112" type="qcurve"/>
      <point x="292" y="112"/>
      <point x="340" y="128"/>
      <point x="378" y="160"/>
      <point x="402" y="209"/>
      <point x="402" y="242" type="qcurve"/>
      <point x="402" y="281"/>
      <point x="348" y="336"/>
      <point x="297" y="336" type="qcurve"/>
      <point x="268" y="336"/>
      <point x="219" y="318"/>
      <point x="183" y="285"/>
      <point x="162" y="236"/>
      <point x="162" y="205" type="qcurve"/>
      <point x="162" y="160"/>
      <point x="222" y="112"/>
    </contour>
  </outline>
</glyph>
<glyph name="seven" format="1">
  <advance width="612"/>
  <unicode hex="0037"/>
  <outline>
    <contour>
      <point x="107" y="700" type="line"/>
      <point x="606" y="700" type="line"/>
      <point x="606" y="501" type="line"/>
      <point x="266" y="124" type="line"/>
      <point x="239" y="95"/>
      <point x="208" y="51"/>
      <point x="202" y="24" type="qcurve"/>
      <point x="197" y="0" type="line"/>
      <point x="39" y="0" type="line"/>
      <point x="45" y="30" type="line"/>
      <point x="49" y="48"/>
      <point x="59" y="78"/>
      <point x="79" y="110"/>
      <point x="109" y="148"/>
      <point x="133" y="174" type="qcurve"/>
      <point x="476" y="556" type="line"/>
      <point x="476" y="574" type="line"/>
      <point x="107" y="574" type="line"/>
    </contour>
  </outline>
</glyph>
<glyph name="eight" format="1">
  <advance width="612"/>
  <unicode hex="0038"/>
  <outline>
    <contour>
      <point x="242" y="-14" type="qcurve"/>
      <point x="185" y="-14"/>
      <point x="99" y="16"/>
      <point x="41" y="66"/>
      <point x="11" y="132"/>
      <point x="11" y="169" type="qcurve"/>
      <point x="11" y="244"/>
      <point x="103" y="340"/>
      <point x="179" y="354" type="qcurve"/>
      <point x="179" y="372" type="line"/>
      <point x="166" y="379"/>
      <point x="138" y="399"/>
      <point x="116" y="429"/>
      <point x="101" y="471"/>
      <point x="101" y="500" type="qcurve"/>
      <point x="101" y="549"/>
      <point x="142" y="628"/>
      <point x="214" y="684"/>
      <point x="312" y="714"/>
      <point x="369" y="714" type="qcurve"/>
      <point x="410" y="714"/>
      <point x="488" y="693"/>
      <point x="548" y="651"/>
      <point x="585" y="585"/>
      <point x="585" y="540" type="qcurve"/>
      <point x="585" y="471"/>
      <point x="501" y="386"/>
      <point x="437" y="372" type="qcurve"/>
      <point x="437" y="354" type="line"/>
      <point x="477" y="339"/>
      <point x="531" y="271"/>
      <point x="531" y="212" type="qcurve"/>
      <point x="531" y="164"/>
      <point x="494" y="81"/>
      <point x="420" y="21"/>
      <point x="312" y="-14"/>
    </contour>
    <contour>
      <point x="256" y="112" type="qcurve"/>
      <point x="286" y="112"/>
      <point x="338" y="125"/>
      <point x="377" y="151"/>
      <point x="400" y="192"/>
      <point x="400" y="219" type="qcurve"/>
      <point x="400" y="252"/>
      <point x="345" y="300"/>
      <point x="288" y="300" type="qcurve"/>
      <point x="261" y="300"/>
      <point x="211" y="286"/>
      <point x="173" y="259"/>
      <point x="150" y="218"/>
      <point x="150" y="190" type="qcurve"/>
      <point x="150" y="157"/>
      <point x="205" y="112"/>
    </contour>
    <contour>
      <point x="354" y="588" type="qcurve"/>
      <point x="330" y="588"/>
      <point x="286" y="577"/>
      <point x="252" y="553"/>
      <point x="232" y="518"/>
      <point x="232" y="494" type="qcurve"/>
      <point x="232" y="465"/>
      <point x="281" y="426"/>
      <point x="322" y="426" type="qcurve"/>
      <point x="346" y="426"/>
      <point x="391" y="438"/>
      <point x="426" y="461"/>
      <point x="446" y="495"/>
      <point x="446" y="517" type="qcurve"/>
      <point x="446" y="549"/>
      <point x="396" y="588"/>
    </contour>
  </outline>
</glyph>
<glyph name="colon" format="1">
  <advance width="612"/>
  <unicode hex="003A"/>
  <outline>
    <contour>
      <point x="354" y="81" type="qcurve"/>
      <point x="354" y="61"/>
      <point x="339" y="26"/>
      <point x="313" y="1"/>
      <point x="278" y="-14"/>
      <point x="259" y="-14" type="qcurve"/>
      <point x="239" y="-14"/>
      <point x="205" y="1"/>
      <point x="179" y="26"/>
      <point x="164" y="61"/>
      <point x="164" y="81" type="qcurve"/>
      <point x="164" y="101"/>
      <point x="179" y="136"/>
      <point x="205" y="161"/>
      <point x="239" y="176"/>
      <point x="259" y="176" type="qcurve"/>
      <point x="278" y="176"/>
      <point x="313" y="161"/>
      <point x="339" y="136"/>
      <point x="354" y="101"/>
    </contour>
    <contour>
      <point x="420" y="415" type="qcurve"/>
      <point x="420" y="395"/>
      <point x="405" y="360"/>
      <point x="379" y="335"/>
      <point x="344" y="320"/>
      <point x="325" y="320" type="qcurve"/>
      <point x="305" y="320"/>
      <point x="271" y="335"/>
      <point x="245" y="360"/>
      <point x="230" y="395"/>
      <point x="230" y="415" type="qcurve"/>
      <point x="230" y="435"/>
      <point x="245" y="470"/>
      <point x="271" y="495"/>
      <point x="305" y="510"/>
      <point x="325" y="510" type="qcurve"/>
      <point x="344" y="510"/>
      <point x="379" y="495"/>
      <point x="405" y="470"/>
      <point x="420" y="435"/>
    </contour>
  </outline>
</glyph>
<glyph name="semicolon" format="1">
  <advance width="612"/>
  <unicode hex="003B"/>
  <outline>
    <contour>
      <point x="420" y="415" type="qcurve"/>
      <point x="420" y="395"/>
      <point x="405" y="360"/>
      <point x="379" y="335"/>
      <point x="344" y="320"/>
      <point x="325" y="320" type="qcurve"/>
      <point x="305" y="320"/>
      <point x="271" y="335"/>
      <point x="245" y="360"/>
      <point x="230" y="395"/>
      <point x="230" y="415" type="qcurve"/>
      <point x="230" y="435"/>
      <point x="245" y="470"/>
      <point x="271" y="495"/>
      <point x="305" y="510"/>
      <point x="325" y="510" type="qcurve"/>
      <point x="344" y="510"/>
      <point x="379" y="495"/>
      <point x="405" y="470"/>
      <point x="420" y="435"/>
    </contour>
    <contour>
      <point x="164" y="82" type="qcurve"/>
      <point x="164" y="102"/>
      <point x="179" y="137"/>
      <point x="205" y="162"/>
      <point x="239" y="176"/>
      <point x="259" y="176" type="qcurve"/>
      <point x="278" y="176"/>
      <point x="313" y="161"/>
      <point x="339" y="136"/>
      <point x="354" y="101"/>
      <point x="354" y="81" type="qcurve"/>
      <point x="354" y="76"/>
      <point x="353" y="66"/>
      <point x="352" y="61" type="qcurve"/>
      <point x="327" y="-58" type="line"/>
      <point x="319" y="-96"/>
      <point x="263" y="-131"/>
      <point x="222" y="-131" type="qcurve"/>
      <point x="140" y="-131" type="line"/>
      <point x="140" y="-53" type="line"/>
      <point x="216" y="-53" type="line"/>
      <point x="247" y="-53"/>
      <point x="253" y="-25" type="qcurve"/>
      <point x="256" y="-8" type="line"/>
      <point x="239" y="-8"/>
      <point x="206" y="3"/>
      <point x="180" y="26"/>
      <point x="164" y="59"/>
    </contour>
  </outline>
</glyph>
<glyph name="question" format="1">
  <advance width="612"/>
  <unicode hex="003F"/>
  <outline>
    <contour>
      <point x="334" y="390" type="line"/>
      <point x="387" y="390"/>
      <point x="447" y="458"/>
      <point x="447" y="508" type="qcurve"/>
      <point x="447" y="541"/>
      <point x="399" y="588"/>
      <point x="354" y="588" type="qcurve"/>
      <point x="326" y="588"/>
      <point x="280" y="569"/>
      <point x="246" y="537"/>
      <point x="223" y="494"/>
      <point x="219" y="470" type="qcurve"/>
      <point x="212" y="434" type="line"/>
      <point x="80" y="434" type="line"/>
      <point x="90" y="482" type="line"/>
      <point x="101" y="534"/>
      <point x="147" y="619"/>
      <point x="217" y="680"/>
      <point x="311" y="714"/>
      <point x="370" y="714" type="qcurve"/>
      <point x="418" y="714"/>
      <point x="496" y="683"/>
      <point x="552" y="630"/>
      <point x="582" y="560"/>
      <point x="582" y="520" type="qcurve"/>
      <point x="582" y="475"/>
      <point x="550" y="387"/>
      <point x="491" y="318"/>
      <point x="406" y="275"/>
      <point x="354" y="275" type="qcurve"/>
      <point x="322" y="275"/>
      <point x="316" y="244" type="qcurve"/>
      <point x="310" y="218" type="line"/>
      <point x="184" y="218" type="line"/>
      <point x="201" y="298" type="line"/>
      <point x="210" y="340"/>
      <point x="268" y="390"/>
      <point x="312" y="390" type="qcurve"/>
    </contour>
    <contour>
      <point x="324" y="81" type="qcurve"/>
      <point x="324" y="61"/>
      <point x="309" y="26"/>
      <point x="283" y="1"/>
      <point x="248" y="-14"/>
      <point x="229" y="-14" type="qcurve"/>
      <point x="209" y="-14"/>
      <point x="175" y="1"/>
      <point x="149" y="26"/>
      <point x="134" y="61"/>
      <point x="134" y="81" type="qcurve"/>
      <point x="134" y="101"/>
      <point x="149" y="136"/>
      <point x="175" y="161"/>
      <point x="209" y="176"/>
      <point x="229" y="176" type="qcurve"/>
      <point x="248" y="176"/>
      <point x="283" y="161"/>
      <point x="309" y="136"/>
      <point x="324" y="101"/>
    </contour>
  </outline>
</glyph>
<glyph name="at" format="1">
  <advance width="612"/>
  <unicode hex="0040"/>
  <outline>
    <contour>
      <point x="112" y="510" type="line"/>
      <point x="112" y="630" type="line"/>
      <point x="398" y="630" type="line"/>
      <point x="441" y="630"/>
      <point x="514" y="607"/>
      <point x="567" y="562"/>
      <point x="596" y="497"/>
      <point x="596" y="454" type="qcurve"/>
      <point x="596" y="427"/>
      <point x="590" y="396" type="qcurve"/>
      <point x="523" y="82" type="line"/>
      <point x="513" y="35"/>
      <point x="452" y="-14"/>
      <point x="408" y="-14" type="qcurve"/>
      <point x="298" y="-14" type="line"/>
      <point x="265" y="-14"/>
      <point x="234" y="22"/>
      <point x="234" y="48" type="qcurve"/>
      <point x="216" y="48" type="line"/>
      <point x="205" y="22"/>
      <point x="160" y="-14"/>
      <point x="118" y="-14" type="qcurve"/>
      <point x="67" y="-14"/>
      <point x="-2" y="67"/>
      <point x="-2" y="148" type="qcurve"/>
      <point x="-2" y="197"/>
      <point x="20" y="300"/>
      <point x="68" y="384"/>
      <point x="144" y="438"/>
      <point x="198" y="438" type="qcurve"/>
      <point x="239" y="438"/>
      <point x="273" y="406"/>
      <point x="277" y="388" type="qcurve"/>
      <point x="295" y="388" type="line"/>
      <point x="302" y="424" type="line"/>
      <point x="422" y="424" type="line"/>
      <point x="360" y="132" type="line"/>
      <point x="359" y="127"/>
      <point x="359" y="124" type="qcurve"/>
      <point x="359" y="113"/>
      <point x="372" y="100"/>
      <point x="384" y="100" type="qcurve"/>
      <point x="407" y="100"/>
      <point x="413" y="128" type="qcurve"/>
      <point x="468" y="386" type="line"/>
      <point x="473" y="411"/>
      <point x="473" y="427" type="qcurve"/>
      <point x="473" y="468"/>
      <point x="425" y="510"/>
      <point x="374" y="510" type="qcurve"/>
    </contour>
    <contour>
      <point x="174" y="100" type="qcurve"/>
      <point x="199" y="100"/>
      <point x="233" y="129"/>
      <point x="254" y="174"/>
      <point x="263" y="228"/>
      <point x="263" y="254" type="qcurve"/>
      <point x="263" y="283"/>
      <point x="240" y="324"/>
      <point x="214" y="324" type="qcurve"/>
      <point x="189" y="324"/>
      <point x="154" y="297"/>
      <point x="132" y="254"/>
      <point x="122" y="200"/>
      <point x="122" y="172" type="qcurve"/>
      <point x="122" y="137"/>
      <point x="148" y="100"/>
    </contour>
  </outline>
</glyph>
<glyph name="A" format="1">
  <advance width="612"/>
  <unicode hex="0041"/>
  <outline>
    <contour>
      <point x="388" y="150" type="line"/>
      <point x="157" y="150" type="line"/>
      <point x="93" y="0" type="line"/>
      <point x="-48" y="0" type="line"/>
      <point x="260" y="700" type="line"/>
      <point x="504" y="700" type="line"/>
      <point x="521" y="0" type="line"/>
      <point x="390" y="0" type="line"/>
    </contour>
    <contour>
      <point x="210" y="276" type="line"/>
      <point x="386" y="276" type="line"/>
      <point x="381" y="634" type="line"/>
      <point x="363" y="634" type="line"/>
    </contour>
  </outline>
</glyph>
<glyph name="B" format="1">
  <advance width="612"/>
  <unicode hex="0042"/>
  <outline>
    <contour>
      <point x="2" y="126" type="line"/>
      <point x="68" y="126" type="line"/>
      <point x="163" y="574" type="line"/>
      <point x="97" y="574" type="line"/>
      <point x="97" y="700" type="line"/>
      <point x="396" y="700" type="line"/>
      <point x="446" y="700"/>
      <point x="520" y="675"/>
      <point x="568" y="631"/>
      <point x="591" y="571"/>
      <point x="591" y="537" type="qcurve"/>
      <point x="591" y="499"/>
      <point x="566" y="440"/>
      <point x="522" y="396"/>
      <point x="465" y="366"/>
      <point x="432" y="358" type="qcurve"/>
      <point x="432" y="340" type="line"/>
      <point x="472" y="328"/>
      <point x="522" y="266"/>
      <point x="522" y="210" type="qcurve"/>
      <point x="522" y="166"/>
      <point x="485" y="90"/>
      <point x="419" y="33"/>
      <point x="328" y="0"/>
      <point x="274" y="0" type="qcurve"/>
      <point x="2" y="0" type="line"/>
    </contour>
    <contour>
      <point x="198" y="126" type="line"/>
      <point x="284" y="126" type="line"/>
      <point x="333" y="126"/>
      <point x="398" y="174"/>
      <point x="398" y="219" type="qcurve"/>
      <point x="398" y="256"/>
      <point x="355" y="288"/>
      <point x="318" y="288" type="qcurve"/>
      <point x="232" y="288" type="line"/>
    </contour>
    <contour>
      <point x="259" y="414" type="line"/>
      <point x="345" y="414" type="line"/>
      <point x="397" y="414"/>
      <point x="458" y="461"/>
      <point x="458" y="507" type="qcurve"/>
      <point x="458" y="540"/>
      <point x="416" y="574"/>
      <point x="379" y="574" type="qcurve"/>
      <point x="293" y="574" type="line"/>
    </contour>
  </outline>
</glyph>
<glyph name="E" format="1">
  <advance width="612"/>
  <unicode hex="0045"/>
  <outline>
    <contour>
      <point x="18" y="12" type="line"/>
      <point x="164" y="700" type="line"/>
      <point x="579" y="700" type="line"/>
      <point x="579" y="574" type="line"/>
      <point x="269" y="574" type="line"/>
      <point x="235" y="414" type="line"/>
      <point x="506" y="414" type="line"/>
      <point x="506" y="288" type="line"/>
      <point x="208" y="288" type="line"/>
      <point x="174" y="126" type="line"/>
      <point x="469" y="126" type="line"/>
      <point x="469" y="0" type="line"/>
      <point x="18" y="0" type="line"/>
    </contour>
  </outline>
</glyph>
<glyph name="G" format="1">
  <advance width="612"/>
  <unicode hex="0047"/>
  <outline>
    <contour>
      <point x="252" y="354" type="line"/>
      <point x="561" y="354" type="line"/>
      <point x="561" y="342" type="line"/>
      <point x="489" y="0" type="line"/>
      <point x="369" y="0" type="line"/>
      <point x="386" y="78" type="line"/>
      <point x="368" y="78" type="line"/>
      <point x="348" y="39"/>
      <point x="268" y="-14"/>
      <point x="200" y="-14" type="qcurve"/>
      <point x="161" y="-14"/>
      <point x="95" y="11"/>
      <point x="47" y="61"/>
      <point x="20" y="134"/>
      <point x="20" y="182" type="qcurve"/>
      <point x="20" y="221"/>
      <point x="30" y="268" type="qcurve"/>
      <point x="65" y="432" type="line"/>
      <point x="96" y="577"/>
      <point x="255" y="714"/>
      <point x="382" y="714" type="qcurve"/>
      <point x="432" y="714"/>
      <point x="511" y="683"/>
      <point x="565" y="629"/>
      <point x="594" y="558"/>
      <point x="594" y="518" type="qcurve"/>
      <point x="594" y="504"/>
      <point x="590" y="473"/>
      <point x="587" y="460" type="qcurve"/>
      <point x="584" y="448" type="line"/>
      <point x="452" y="448" type="line"/>
      <point x="455" y="460" type="line"/>
      <point x="458" y="472"/>
      <point x="460" y="490"/>
      <point x="460" y="499" type="qcurve"/>
      <point x="460" y="541"/>
      <point x="408" y="588"/>
      <point x="358" y="588" type="qcurve"/>
      <point x="330" y="588"/>
      <point x="280" y="570"/>
      <point x="237" y="531"/>
      <point x="205" y="468"/>
      <point x="195" y="422" type="qcurve"/>
      <point x="163" y="274" type="line"/>
      <point x="159" y="256"/>
      <point x="157" y="232"/>
      <point x="157" y="220" type="qcurve"/>
      <point x="157" y="166"/>
      <point x="213" y="112"/>
      <point x="261" y="112" type="qcurve"/>
      <point x="320" y="112"/>
      <point x="395" y="175"/>
      <point x="406" y="228" type="qcurve"/>
      <point x="252" y="228" type="line"/>
    </contour>
  </outline>
</glyph>
<glyph name="J" format="1">
  <advance width="612"/>
  <unicode hex="004A"/>
  <outline>
    <contour>
      <point x="476" y="210" type="line"/>
      <point x="463" y="151"/>
      <point x="420" y="66"/>
      <point x="356" y="12"/>
      <point x="270" y="-14"/>
      <point x="215" y="-14" type="qcurve"/>
      <point x="173" y="-14"/>
      <point x="103" y="10"/>
      <point x="52" y="56"/>
      <point x="23" y="123"/>
      <point x="23" y="167" type="qcurve"/>
      <point x="23" y="198"/>
      <point x="30" y="229" type="qcurve"/>
      <point x="40" y="276" type="line"/>
      <point x="172" y="276" type="line"/>
      <point x="158" y="210" type="line"/>
      <point x="155" y="196"/>
      <point x="155" y="181" type="qcurve"/>
      <point x="155" y="147"/>
      <point x="195" y="110"/>
      <point x="233" y="110" type="qcurve"/>
      <point x="276" y="110"/>
      <point x="334" y="162"/>
      <point x="344" y="210" type="qcurve"/>
      <point x="422" y="576" type="line"/>
      <point x="347" y="576" type="line"/>
      <point x="347" y="700" type="line"/>
      <point x="621" y="700" type="line"/>
      <point x="621" y="576" type="line"/>
      <point x="554" y="576" type="line"/>
    </contour>
  </outline>
</glyph>
<glyph name="N" format="1">
  <advance width="612"/>
  <unicode hex="004E"/>
  <outline>
    <contour>
      <point x="340" y="66" type="line"/>
      <point x="358" y="66" type="line"/>
      <point x="493" y="700" type="line"/>
      <point x="619" y="700" type="line"/>
      <point x="470" y="0" type="line"/>
      <point x="224" y="0" type="line"/>
      <point x="271" y="634" type="line"/>
      <point x="253" y="634" type="line"/>
      <point x="118" y="0" type="line"/>
      <point x="-7" y="0" type="line"/>
      <point x="141" y="700" type="line"/>
      <point x="387" y="700" type="line"/>
    </contour>
  </outline>
</glyph>
<glyph name="R" format="1">
  <advance width="612"/>
  <unicode hex="0052"/>
  <outline>
    <contour>
      <point x="464" y="0" type="line"/>
      <point x="330" y="0" type="line"/>
      <point x="375" y="210" type="line"/>
      <point x="377" y="220"/>
      <point x="377" y="226" type="qcurve"/>
      <point x="377" y="243"/>
      <point x="355" y="264"/>
      <point x="332" y="264" type="qcurve"/>
      <point x="187" y="264" type="line"/>
      <point x="131" y="0" type="line"/>
      <point x="0" y="0" type="line"/>
      <point x="148" y="700" type="line"/>
      <point x="394" y="700" type="line"/>
      <point x="443" y="700"/>
      <point x="518" y="673"/>
      <point x="569" y="628"/>
      <point x="594" y="566"/>
      <point x="594" y="532" type="qcurve"/>
      <point x="594" y="459"/>
      <point x="527" y="368"/>
      <point x="458" y="345" type="qcurve"/>
      <point x="458" y="327" type="line"/>
      <point x="487" y="324"/>
      <point x="518" y="289"/>
      <point x="518" y="262" type="qcurve"/>
      <point x="518" y="252"/>
      <point x="516" y="242" type="qcurve"/>
    </contour>
    <contour>
      <point x="214" y="390" type="line"/>
      <point x="334" y="390" type="line"/>
      <point x="387" y="390"/>
      <point x="455" y="446"/>
      <point x="455" y="494" type="qcurve"/>
      <point x="455" y="532"/>
      <point x="414" y="574"/>
      <point x="372" y="574" type="qcurve"/>
      <point x="253" y="574" type="line"/>
    </contour>
  </outline>
</glyph>
<glyph name="S" format="1">
  <advance width="612"/>
  <unicode hex="0053"/>
  <outline>
    <contour>
      <point x="457" y="475" type="line"/>
      <point x="460" y="490"/>
      <point x="460" y="502" type="qcurve"/>
      <point x="460" y="541"/>
      <point x="404" y="590"/>
      <point x="346" y="590" type="qcurve"/>
      <point x="323" y="590"/>
      <point x="279" y="580"/>
      <point x="245" y="559"/>
      <point x="225" y="527"/>
      <point x="225" y="506" type="qcurve"/>
      <point x="225" y="471"/>
      <point x="284" y="431"/>
      <point x="350" y="420" type="qcurve"/>
      <point x="443" y="405"/>
      <point x="550" y="316"/>
      <point x="550" y="231" type="qcurve"/>
      <point x="550" y="174"/>
      <point x="509" y="84"/>
      <point x="434" y="20"/>
      <point x="328" y="-14"/>
      <point x="262" y="-14" type="qcurve"/>
      <point x="199" y="-14"/>
      <point x="105" y="19"/>
      <point x="44" y="76"/>
      <point x="14" y="152"/>
      <point x="14" y="196" type="qcurve"/>
      <point x="14" y="209"/>
      <point x="16" y="235"/>
      <point x="19" y="249" type="qcurve"/>
      <point x="24" y="272" type="line"/>
      <point x="156" y="272" type="line"/>
      <point x="152" y="255" type="line"/>
      <point x="148" y="236"/>
      <point x="148" y="212" type="qcurve"/>
      <point x="148" y="164"/>
      <point x="209" y="110"/>
      <point x="270" y="110" type="qcurve"/>
      <point x="336" y="110"/>
      <point x="410" y="165"/>
      <point x="410" y="213" type="qcurve"/>
      <point x="410" y="251"/>
      <point x="347" y="293"/>
      <point x="273" y="304" type="qcurve"/>
      <point x="238" y="309"/>
      <point x="171" y="335"/>
      <point x="119" y="381"/>
      <point x="87" y="448"/>
      <point x="87" y="494" type="qcurve"/>
      <point x="87" y="541"/>
      <point x="122" y="622"/>
      <point x="191" y="681"/>
      <point x="292" y="714"/>
      <point x="358" y="714" type="qcurve"/>
      <point x="414" y="714"/>
      <point x="502" y="686"/>
      <point x="563" y="636"/>
      <point x="595" y="567"/>
      <point x="595" y="527" type="qcurve"/>
      <point x="595" y="516"/>
      <point x="593" y="494"/>
      <point x="590" y="480" type="qcurve"/>
      <point x="586" y="462" type="line"/>
      <point x="454" y="462" type="line"/>
    </contour>
  </outline>
</glyph>
<glyph name="U" format="1">
  <advance width="612"/>
  <unicode hex="0055"/>
  <outline>
    <contour>
      <point x="626" y="700" type="line"/>
      <point x="529" y="242" type="line"/>
      <point x="515" y="174"/>
      <point x="468" y="78"/>
      <point x="398" y="15"/>
      <point x="305" y="-14"/>
      <point x="244" y="-14" type="qcurve"/>
      <point x="199" y="-14"/>
      <point x="121" y="13"/>
      <point x="65" y="64"/>
      <point x="33" y="139"/>
      <point x="33" y="187" type="qcurve"/>
      <point x="33" y="203"/>
      <point x="35" y="234"/>
      <point x="40" y="254" type="qcurve"/>
      <point x="134" y="700" type="line"/>
      <point x="266" y="700" type="line"/>
      <point x="169" y="242" type="line"/>
      <point x="167" y="231"/>
      <point x="164" y="211"/>
      <point x="164" y="201" type="qcurve"/>
      <point x="164" y="158"/>
      <point x="211" y="110"/>
      <point x="258" y="110" type="qcurve"/>
      <point x="318" y="110"/>
      <point x="383" y="174"/>
      <point x="397" y="242" type="qcurve"/>
      <point x="494" y="700" type="line"/>
    </contour>
  </outline>
</glyph>
<glyph name="W" format="1">
  <advance width="612"/>
  <unicode hex="0057"/>
  <outline>
    <contour>
      <point x="505" y="0" type="line"/>
      <point x="286" y="0" type="line"/>
      <point x="353" y="508" type="line"/>
      <point x="375" y="628" type="line"/>
      <point x="351" y="628" type="line"/>
      <point x="331" y="520" type="line"/>
      <point x="196" y="0" type="line"/>
      <point x="-20" y="0" type="line"/>
      <point x="75" y="700" type="line"/>
      <point x="195" y="700" type="line"/>
      <point x="114" y="192" type="line"/>
      <point x="91" y="78" type="line"/>
      <point x="115" y="78" type="line"/>
      <point x="136" y="180" type="line"/>
      <point x="272" y="700" type="line"/>
      <point x="482" y="700" type="line"/>
      <point x="414" y="180" type="line"/>
      <point x="393" y="78" type="line"/>
      <point x="417" y="78" type="line"/>
      <point x="440" y="192" type="line"/>
      <point x="558" y="700" type="line"/>
      <point x="678" y="700" type="line"/>
    </contour>
  </outline>
</glyph>
<glyph name="X" format="1">
  <advance width="612"/>
  <unicode hex="0058"/>
  <outline>
    <contour>
      <point x="652" y="687" type="line"/>
      <point x="436" y="354" type="line"/>
      <point x="436" y="336" type="line"/>
      <point x="526" y="0" type="line"/>
      <point x="386" y="0" type="line"/>
      <point x="314" y="288" type="line"/>
      <point x="296" y="288" type="line"/>
      <point x="122" y="0" type="line"/>
      <point x="-25" y="0" type="line"/>
      <point x="-25" y="12" type="line"/>
      <point x="190" y="348" type="line"/>
      <point x="190" y="366" type="line"/>
      <point x="98" y="700" type="line"/>
      <point x="236" y="700" type="line"/>
      <point x="312" y="414" type="line"/>
      <point x="330" y="414" type="line"/>
      <point x="504" y="700" type="line"/>
      <point x="652" y="700" type="line"/>
    </contour>
  </outline>
</glyph>
<glyph name="Z" format="1">
  <advance width="612"/>
  <unicode hex="005A"/>
  <outline>
    <contour>
      <point x="126" y="700" type="line"/>
      <point x="600" y="700" type="line"/>
      <point x="600" y="484" type="line"/>
      <point x="121" y="144" type="line"/>
      <point x="121" y="126" type="line"/>
      <point x="505" y="126" type="line"/>
      <point x="505" y="0" type="line"/>
      <point x="12" y="0" type="line"/>
      <point x="12" y="216" type="line"/>
      <point x="492" y="556" type="line"/>
      <point x="492" y="574" type="line"/>
      <point x="126" y="574" type="line"/>
    </contour>
  </outline>
</glyph>
<glyph name="bracketleft" format="1">
  <advance width="612"/>
  <unicode hex="005B"/>
  <outline>
    <contour>
      <point x="326" y="754" type="line"/>
      <point x="336" y="799"/>
      <point x="405" y="856"/>
      <point x="450" y="856" type="qcurve"/>
      <point x="569" y="856" type="line"/>
      <point x="569" y="736" type="line"/>
      <point x="476" y="736" type="line"/>
      <point x="448" y="736"/>
      <point x="442" y="706" type="qcurve"/>
      <point x="291" y="-6" type="line"/>
      <point x="290" y="-9"/>
      <point x="290" y="-13" type="qcurve"/>
      <point x="290" y="-16" type="line"/>
      <point x="290" y="-36"/>
      <point x="313" y="-36" type="qcurve"/>
      <point x="385" y="-36" type="line"/>
      <point x="385" y="-156" type="line"/>
      <point x="252" y="-156" type="line"/>
      <point x="207" y="-156"/>
      <point x="154" y="-112"/>
      <point x="154" y="-70" type="qcurve"/>
      <point x="154" y="-62"/>
      <point x="156" y="-46"/>
      <point x="158" y="-39" type="qcurve"/>
    </contour>
  </outline>
</glyph>
<glyph name="underscore" format="1">
  <advance width="612"/>
  <unicode hex="005F"/>
  <outline>
    <contour>
      <point x="0" y="-48" type="line"/>
      <point x="490" y="-48" type="line"/>
      <point x="490" y="-162" type="line"/>
      <point x="0" y="-162" type="line"/>
    </contour>
  </outline>
</glyph>
<glyph name="e" format="1">
  <advance width="612"/>
  <unicode hex="0065"/>
  <outline>
    <contour>
      <point x="165" y="207" type="line"/>
      <point x="163" y="199"/>
      <point x="163" y="190" type="qcurve"/>
      <point x="163" y="154"/>
      <point x="218" y="106"/>
      <point x="263" y="106" type="qcurve"/>
      <point x="310" y="106"/>
      <point x="366" y="140"/>
      <point x="381" y="163" type="qcurve"/>
      <point x="481" y="100" type="line"/>
      <point x="469" y="80"/>
      <point x="430" y="40"/>
      <point x="373" y="7"/>
      <point x="296" y="-14"/>
      <point x="245" y="-14" type="qcurve"/>
      <point x="199" y="-14"/>
      <point x="122" y="15"/>
      <point x="67" y="66"/>
      <point x="36" y="137"/>
      <point x="36" y="180" type="qcurve"/>
      <point x="36" y="248"/>
      <point x="77" y="368"/>
      <point x="155" y="458"/>
      <point x="269" y="510"/>
      <point x="343" y="510" type="qcurve"/>
      <point x="395" y="510"/>
      <point x="472" y="477"/>
      <point x="522" y="422"/>
      <point x="547" y="352"/>
      <point x="547" y="315" type="qcurve"/>
      <point x="547" y="303"/>
      <point x="544" y="278"/>
      <point x="540" y="258" type="qcurve"/>
      <point x="529" y="207" type="line"/>
    </contour>
    <contour>
      <point x="323" y="396" type="qcurve"/>
      <point x="276" y="396"/>
      <point x="207" y="349"/>
      <point x="190" y="315" type="qcurve"/>
      <point x="424" y="315" type="line"/>
      <point x="424" y="353"/>
      <point x="377" y="396"/>
    </contour>
  </outline>
</glyph>
<glyph name="h" format="1">
  <advance width="612"/>
  <unicode hex="0068"/>
  <outline>
    <contour>
      <point x="385" y="288" type="line"/>
      <point x="387" y="299"/>
      <point x="389" y="312"/>
      <point x="389" y="320" type="qcurve"/>
      <point x="389" y="356"/>
      <point x="347" y="396"/>
      <point x="311" y="396" type="qcurve"/>
      <point x="260" y="396"/>
      <point x="195" y="324"/>
      <point x="182" y="264" type="qcurve"/>
      <point x="126" y="0" type="line"/>
      <point x="0" y="0" type="line"/>
      <point x="152" y="714" type="line"/>
      <point x="278" y="714" type="line"/>
      <point x="217" y="428" type="line"/>
      <point x="235" y="428" type="line"/>
      <point x="286" y="510"/>
      <point x="381" y="510" type="qcurve"/>
      <point x="443" y="510"/>
      <point x="522" y="436"/>
      <point x="522" y="365" type="qcurve"/>
      <point x="522" y="351"/>
      <point x="518" y="322"/>
      <point x="515" y="306" type="qcurve"/>
      <point x="475" y="119" type="line"/>
      <point x="485" y="112" type="line"/>
      <point x="549" y="156" type="line"/>
      <point x="612" y="62" type="line"/>
      <point x="537" y="12" type="line"/>
      <point x="499" y="-14"/>
      <point x="456" y="-14" type="qcurve"/>
      <point x="434" y="-14"/>
      <point x="394" y="1"/>
      <point x="364" y="29"/>
      <point x="346" y="69"/>
      <point x="346" y="94" type="qcurve"/>
      <point x="346" y="107"/>
      <point x="350" y="126" type="qcurve"/>
    </contour>
  </outline>
</glyph>
<glyph name="i" format="1">
  <advance width="612"/>
  <unicode hex="0069"/>
  <outline>
    <contour>
      <point x="380" y="12" type="line"/>
      <point x="360" y="-2"/>
      <point x="318" y="-14"/>
      <point x="298" y="-14" type="qcurve"/>
      <point x="276" y="-14"/>
      <point x="236" y="1"/>
      <point x="206" y="28"/>
      <point x="189" y="67"/>
      <point x="189" y="91" type="qcurve"/>
      <point x="189" y="110"/>
      <point x="193" y="126" type="qcurve"/>
      <point x="253" y="377" type="line"/>
      <point x="243" y="384" type="line"/>
      <point x="109" y="292" type="line"/>
      <point x="46" y="386" type="line"/>
      <point x="191" y="484" type="line"/>
      <point x="211" y="498"/>
      <point x="253" y="510"/>
      <point x="273" y="510" type="qcurve"/>
      <point x="295" y="510"/>
      <point x="335" y="495"/>
      <point x="365" y="468"/>
      <point x="382" y="429"/>
      <point x="382" y="405" type="qcurve"/>
      <point x="382" y="386"/>
      <point x="378" y="370" type="qcurve"/>
      <point x="318" y="119" type="line"/>
      <point x="328" y="112" type="line"/>
      <point x="462" y="204" type="line"/>
      <point x="525" y="110" type="line"/>
    </contour>
    <contour>
      <point x="467" y="643" type="qcurve"/>
      <point x="467" y="623"/>
      <point x="452" y="588"/>
      <point x="426" y="563"/>
      <point x="391" y="548"/>
      <point x="372" y="548" type="qcurve"/>
      <point x="352" y="548"/>
      <point x="318" y="563"/>
      <point x="292" y="588"/>
      <point x="277" y="623"/>
      <point x="277" y="643" type="qcurve"/>
      <point x="277" y="663"/>
      <point x="292" y="698"/>
      <point x="318" y="723"/>
      <point x="352" y="738"/>
      <point x="372" y="738" type="qcurve"/>
      <point x="391" y="738"/>
      <point x="426" y="723"/>
      <point x="452" y="698"/>
      <point x="467" y="663"/>
    </contour>
  </outline>
</glyph>
<glyph name="p" format="1">
  <advance width="612"/>
  <unicode hex="0070"/>
  <outline>
    <contour>
      <point x="121" y="-200" type="line"/>
      <point x="-5" y="-200" type="line"/>
      <point x="118" y="377" type="line"/>
      <point x="108" y="384" type="line"/>
      <point x="62" y="350" type="line"/>
      <point x="-3" y="440" type="line"/>
      <point x="51" y="480" type="line"/>
      <point x="72" y="495"/>
      <point x="117" y="510"/>
      <point x="138" y="510" type="qcurve"/>
      <point x="178" y="510"/>
      <point x="238" y="464"/>
      <point x="245" y="424" type="qcurve"/>
      <point x="263" y="424" type="line"/>
      <point x="312" y="510"/>
      <point x="423" y="510" type="qcurve"/>
      <point x="457" y="510"/>
      <point x="519" y="484"/>
      <point x="566" y="434"/>
      <point x="593" y="361"/>
      <point x="593" y="314" type="qcurve"/>
      <point x="593" y="255"/>
      <point x="564" y="137"/>
      <point x="502" y="44"/>
      <point x="405" y="-14"/>
      <point x="337" y="-14" type="qcurve"/>
      <point x="305" y="-14"/>
      <point x="257" y="1"/>
      <point x="223" y="25"/>
      <point x="201" y="56"/>
      <point x="197" y="72" type="qcurve"/>
      <point x="179" y="72" type="line"/>
    </contour>
    <contour>
      <point x="313" y="106" type="qcurve"/>
      <point x="350" y="106"/>
      <point x="406" y="133"/>
      <point x="443" y="181"/>
      <point x="461" y="247"/>
      <point x="461" y="286" type="qcurve"/>
      <point x="461" y="328"/>
      <point x="407" y="390"/>
      <point x="359" y="390" type="qcurve"/>
      <point x="325" y="390"/>
      <point x="271" y="363"/>
      <point x="233" y="315"/>
      <point x="212" y="249"/>
      <point x="212" y="210" type="qcurve"/>
      <point x="212" y="163"/>
      <point x="266" y="106"/>
    </contour>
  </outline>
</glyph>
<glyph name="s" format="1">
  <advance width="612"/>
  <unicode hex="0073"/>
  <outline>
    <contour>
      <point x="322" y="396" type="qcurve"/>
      <point x="311" y="396"/>
      <point x="288" y="391"/>
      <point x="268" y="381"/>
      <point x="255" y="364"/>
      <point x="255" y="352" type="qcurve"/>
      <point x="255" y="331"/>
      <point x="303" y="311"/>
      <point x="361" y="304" type="qcurve"/>
      <point x="426" y="296"/>
      <point x="506" y="233"/>
      <point x="506" y="174" type="qcurve"/>
      <point x="506" y="86"/>
      <point x="383" y="-14"/>
      <point x="274" y="-14" type="qcurve"/>
      <point x="219" y="-14"/>
      <point x="140" y="18"/>
      <point x="89" y="66"/>
      <point x="63" y="124"/>
      <point x="62" y="150" type="qcurve"/>
      <point x="186" y="180" type="line"/>
      <point x="189" y="147"/>
      <point x="239" y="100"/>
      <point x="290" y="100" type="qcurve"/>
      <point x="325" y="100"/>
      <point x="377" y="122"/>
      <point x="377" y="150" type="qcurve"/>
      <point x="377" y="171"/>
      <point x="337" y="196"/>
      <point x="283" y="201" type="qcurve"/>
      <point x="211" y="207"/>
      <point x="126" y="277"/>
      <point x="126" y="335" type="qcurve"/>
      <point x="126" y="377"/>
      <point x="161" y="443"/>
      <point x="219" y="487"/>
      <point x="296" y="510"/>
      <point x="338" y="510" type="qcurve"/>
      <point x="390" y="510"/>
      <point x="460" y="482"/>
      <point x="504" y="440"/>
      <point x="525" y="391"/>
      <point x="528" y="370" type="qcurve"/>
      <point x="406" y="338" type="line"/>
      <point x="402" y="365"/>
      <point x="360" y="396"/>
    </contour>
  </outline>
</glyph>
<glyph name="v" format="1">
  <advance width="612"/>
  <unicode hex="0076"/>
  <outline>
    <contour>
      <point x="135" y="374" type="line"/>
      <point x="123" y="378" type="line"/>
      <point x="84" y="329" type="line"/>
      <point x="-3" y="400" type="line"/>
      <point x="44" y="460" type="line"/>
      <point x="64" y="485"/>
      <point x="117" y="510"/>
      <point x="146" y="510" type="qcurve"/>
      <point x="167" y="510"/>
      <point x="207" y="496"/>
      <point x="238" y="469"/>
      <point x="258" y="427"/>
      <point x="260" y="400" type="qcurve"/>
      <point x="281" y="60" type="line"/>
      <point x="299" y="60" type="line"/>
      <point x="501" y="504" type="line"/>
      <point x="614" y="449" type="line"/>
      <point x="404" y="0" type="line"/>
      <point x="161" y="0" type="line"/>
    </contour>
  </outline>
</glyph>
<glyph name="x" format="1">
  <advance width="612"/>
  <unicode hex="0078"/>
  <outline>
    <contour>
      <point x="365" y="235" type="line"/>
      <point x="417" y="112" type="line"/>
      <point x="429" y="112" type="line"/>
      <point x="468" y="184" type="line"/>
      <point x="568" y="132" type="line"/>
      <point x="536" y="68" type="line"/>
      <point x="496" y="-14"/>
      <point x="411" y="-14" type="qcurve"/>
      <point x="369" y="-14"/>
      <point x="316" y="24"/>
      <point x="299" y="66" type="qcurve"/>
      <point x="266" y="143" type="line"/>
      <point x="101" y="-12" type="line"/>
      <point x="16" y="77" type="line"/>
      <point x="216" y="264" type="line"/>
      <point x="166" y="383" type="line"/>
      <point x="154" y="383" type="line"/>
      <point x="106" y="306" type="line"/>
      <point x="10" y="368" type="line"/>
      <point x="58" y="442" type="line"/>
      <point x="101" y="510"/>
      <point x="174" y="510" type="qcurve"/>
      <point x="248" y="510"/>
      <point x="282" y="432" type="qcurve"/>
      <point x="314" y="356" type="line"/>
      <point x="472" y="504" type="line"/>
      <point x="557" y="415" type="line"/>
    </contour>
  </outline>
</glyph>
<glyph name="y" format="1">
  <advance width="612"/>
  <unicode hex="0079"/>
  <outline>
    <contour>
      <point x="228" y="208" type="line"/>
      <point x="226" y="201"/>
      <point x="224" y="185"/>
      <point x="224" y="177" type="qcurve"/>
      <point x="224" y="139"/>
      <point x="268" y="100"/>
      <point x="306" y="100" type="qcurve"/>
      <point x="360" y="100"/>
      <point x="418" y="170"/>
      <point x="432" y="236" type="qcurve"/>
      <point x="487" y="496" type="line"/>
      <point x="613" y="496" type="line"/>
      <point x="482" y="-122" type="line"/>
      <point x="475" y="-156"/>
      <point x="423" y="-200"/>
      <point x="389" y="-200" type="qcurve"/>
      <point x="99" y="-200" type="line"/>
      <point x="99" y="-80" type="line"/>
      <point x="338" y="-80" type="line"/>
      <point x="365" y="-80"/>
      <point x="371" y="-50" type="qcurve"/>
      <point x="397" y="72" type="line"/>
      <point x="379" y="72" type="line"/>
      <point x="357" y="27"/>
      <point x="289" y="-14"/>
      <point x="238" y="-14" type="qcurve"/>
      <point x="208" y="-14"/>
      <point x="156" y="7"/>
      <point x="116" y="46"/>
      <point x="93" y="103"/>
      <point x="93" y="140" type="qcurve"/>
      <point x="93" y="165"/>
      <point x="99" y="192" type="qcurve"/>
      <point x="138" y="377" type="line"/>
      <point x="128" y="384" type="line"/>
      <point x="68" y="342" type="line"/>
      <point x="5" y="436" type="line"/>
      <point x="78" y="485" type="line"/>
      <point x="97" y="498"/>
      <point x="137" y="510"/>
      <point x="157" y="510" type="qcurve"/>
      <point x="179" y="510"/>
      <point x="219" y="495"/>
      <point x="249" y="468"/>
      <point x="267" y="429"/>
      <point x="267" y="404" type="qcurve"/>
      <point x="267" y="390"/>
      <point x="264" y="374" type="qcurve"/>
    </contour>
  </outline>
</glyph>
<glyph name="braceleft" format="1">
  <advance width="612"/>
  <unicode hex="007B"/>
  <outline>
    <contour>
      <point x="234" y="249" type="line"/>
      <point x="235" y="254"/>
      <point x="235" y="256"/>
      <point x="235" y="258" type="qcurve"/>
      <point x="235" y="278"/>
      <point x="212" y="278" type="qcurve"/>
      <point x="162" y="278" type="line"/>
      <point x="162" y="422" type="line"/>
      <point x="244" y="422" type="line"/>
      <point x="271" y="422"/>
      <point x="277" y="451" type="qcurve"/>
      <point x="341" y="754" type="line"/>
      <point x="351" y="799"/>
      <point x="420" y="856"/>
      <point x="465" y="856" type="qcurve"/>
      <point x="584" y="856" type="line"/>
      <point x="584" y="736" type="line"/>
      <point x="491" y="736" type="line"/>
      <point x="463" y="736"/>
      <point x="457" y="706" type="qcurve"/>
      <point x="400" y="437" type="line"/>
      <point x="392" y="403"/>
      <point x="340" y="359"/>
      <point x="305" y="359" type="qcurve"/>
      <point x="296" y="359" type="line"/>
      <point x="296" y="341" type="line"/>
      <point x="302" y="341" type="line"/>
      <point x="332" y="341"/>
      <point x="365" y="307"/>
      <point x="365" y="281" type="qcurve"/>
      <point x="365" y="276"/>
      <point x="364" y="268"/>
      <point x="363" y="263" type="qcurve"/>
      <point x="306" y="-6" type="line"/>
      <point x="305" y="-11"/>
      <point x="305" y="-14"/>
      <point x="305" y="-16" type="qcurve"/>
      <point x="305" y="-36"/>
      <point x="328" y="-36" type="qcurve"/>
      <point x="400" y="-36" type="line"/>
      <point x="400" y="-156" type="line"/>
      <point x="267" y="-156" type="line"/>
      <point x="222" y="-156"/>
      <point x="169" y="-112"/>
      <point x="169" y="-70" type="qcurve"/>
      <point x="169" y="-62"/>
      <point x="171" y="-47"/>
      <point x="173" y="-39" type="qcurve"/>
    </contour>
  </outline>
</glyph>
<glyph name="braceright" format="1">
  <advance width="612"/>
  <unicode hex="007D"/>
  <outline>
    <contour>
      <point x="378" y="451" type="line"/>
      <point x="377" y="446"/>
      <point x="377" y="444"/>
      <point x="377" y="442" type="qcurve"/>
      <point x="377" y="422"/>
      <point x="400" y="422" type="qcurve"/>
      <point x="450" y="422" type="line"/>
      <point x="450" y="278" type="line"/>
      <point x="368" y="278" type="line"/>
      <point x="341" y="278"/>
      <point x="335" y="249" type="qcurve"/>
      <point x="271" y="-54" type="line"/>
      <point x="261" y="-99"/>
      <point x="192" y="-156"/>
      <point x="147" y="-156" type="qcurve"/>
      <point x="28" y="-156" type="line"/>
      <point x="28" y="-36" type="line"/>
      <point x="121" y="-36" type="line"/>
      <point x="149" y="-36"/>
      <point x="155" y="-6" type="qcurve"/>
      <point x="212" y="263" type="line"/>
      <point x="220" y="297"/>
      <point x="272" y="341"/>
      <point x="307" y="341" type="qcurve"/>
      <point x="316" y="341" type="line"/>
      <point x="316" y="359" type="line"/>
      <point x="310" y="359" type="line"/>
      <point x="280" y="359"/>
      <point x="247" y="393"/>
      <point x="247" y="419" type="qcurve"/>
      <point x="247" y="424"/>
      <point x="248" y="432"/>
      <point x="249" y="437" type="qcurve"/>
      <point x="306" y="706" type="line"/>
      <point x="307" y="711"/>
      <point x="307" y="714"/>
      <point x="307" y="716" type="qcurve"/>
      <point x="307" y="736"/>
      <point x="284" y="736" type="qcurve"/>
      <point x="212" y="736" type="line"/>
      <point x="212" y="856" type="line"/>
      <point x="345" y="856" type="line"/>
      <point x="390" y="856"/>
      <point x="443" y="812"/>
      <point x="443" y="770" type="qcurve"/>
      <point x="443" y="762"/>
      <point x="441" y="747"/>
      <point x="439" y="739" type="qcurve"/>
    </contour>
  </outline>
</glyph>
<glyph name="asciitilde" format="1">
  <advance width="612"/>
  <unicode hex="007E"/>
  <outline>
    <contour>
      <point x="335" y="376" type="qcurve"/>
      <point x="347" y="356"/>
      <point x="363" y="341"/>
      <point x="377" y="341" type="qcurve"/>
      <point x="387" y="341"/>
      <point x="406" y="352"/>
      <point x="416" y="360" type="qcurve"/>
      <point x="502" y="423" type="line"/>
      <point x="572" y="330" type="line"/>
      <point x="451" y="238" type="line"/>
      <point x="434" y="224"/>
      <point x="389" y="203"/>
      <point x="362" y="203" type="qcurve"/>
      <point x="327" y="203"/>
      <point x="287" y="227"/>
      <point x="276" y="244" type="qcurve"/>
      <point x="264" y="264"/>
      <point x="248" y="279"/>
      <point x="234" y="279" type="qcurve"/>
      <point x="224" y="279"/>
      <point x="205" y="268"/>
      <point x="195" y="260" type="qcurve"/>
      <point x="109" y="197" type="line"/>
      <point x="39" y="290" type="line"/>
      <point x="160" y="382" type="line"/>
      <point x="177" y="396"/>
      <point x="222" y="417"/>
      <point x="249" y="417" type="qcurve"/>
      <point x="284" y="417"/>
      <point x="324" y="393"/>
    </contour>
  </outline>
</glyph>
<glyph name="cent" format="1">
  <advance width="612"/>
  <unicode hex="00A2"/>
  <outline>
    <contour>
      <point x="208" y="92" type="line"/>
      <point x="132" y="106"/>
      <point x="47" y="215"/>
      <point x="47" y="300" type="qcurve"/>
      <point x="47" y="361"/>
      <point x="87" y="467"/>
      <point x="159" y="549"/>
      <point x="258" y="601"/>
      <point x="318" y="608" type="qcurve"/>
      <point x="332" y="672" type="line"/>
      <point x="428" y="672" type="line"/>
      <point x="414" y="606" type="line"/>
      <point x="457" y="598"/>
      <point x="516" y="562"/>
      <point x="553" y="512"/>
      <point x="569" y="452"/>
      <point x="569" y="422" type="qcurve"/>
      <point x="451" y="396" type="line"/>
      <point x="451" y="430"/>
      <point x="430" y="487"/>
      <point x="391" y="498" type="qcurve"/>
      <point x="328" y="203" type="line"/>
      <point x="351" y="209"/>
      <point x="385" y="233"/>
      <point x="411" y="261"/>
      <point x="428" y="291"/>
      <point x="434" y="304" type="qcurve"/>
      <point x="540" y="278" type="line"/>
      <point x="511" y="204"/>
      <point x="395" y="100"/>
      <point x="304" y="89" type="qcurve"/>
      <point x="291" y="28" type="line"/>
      <point x="195" y="28" type="line"/>
    </contour>
    <contour>
      <point x="164" y="315" type="qcurve"/>
      <point x="164" y="275"/>
      <point x="195" y="215"/>
      <point x="232" y="203" type="qcurve"/>
      <point x="294" y="496" type="line"/>
      <point x="232" y="480"/>
      <point x="164" y="381"/>
    </contour>
  </outline>
</glyph>
<glyph name="section" format="1">
  <advance width="612"/>
  <unicode hex="00A7"/>
  <outline>
    <contour>
      <point x="399" y="598" type="line"/>
      <point x="401" y="612"/>
      <point x="384" y="630"/>
      <point x="361" y="630" type="qcurve"/>
      <point x="346" y="630"/>
      <point x="321" y="617"/>
      <point x="321" y="602" type="qcurve"/>
      <point x="321" y="589"/>
      <point x="348" y="571"/>
      <point x="380" y="566" type="qcurve"/>
      <point x="425" y="558"/>
      <point x="471" y="510"/>
      <point x="471" y="472" type="qcurve"/>
      <point x="471" y="447"/>
      <point x="451" y="404"/>
      <point x="434" y="390" type="qcurve"/>
      <point x="436" y="385"/>
      <point x="440" y="369"/>
      <point x="440" y="361" type="qcurve"/>
      <point x="440" y="322"/>
      <point x="415" y="268"/>
      <point x="373" y="234"/>
      <point x="317" y="218"/>
      <point x="286" y="218" type="qcurve"/>
      <point x="224" y="218"/>
      <point x="158" y="276"/>
      <point x="158" y="321" type="qcurve"/>
      <point x="158" y="331"/>
      <point x="161" y="348" type="qcurve"/>
      <point x="162" y="353" type="line"/>
      <point x="252" y="353" type="line"/>
      <point x="251" y="347" type="line"/>
      <point x="250" y="342"/>
      <point x="250" y="338"/>
      <point x="250" y="337" type="qcurve"/>
      <point x="250" y="320"/>
      <point x="275" y="302"/>
      <point x="296" y="302" type="qcurve"/>
      <point x="317" y="302"/>
      <point x="347" y="319"/>
      <point x="347" y="339" type="qcurve"/>
      <point x="347" y="349"/>
      <point x="327" y="369"/>
      <point x="292" y="376" type="qcurve"/>
      <point x="255" y="383"/>
      <point x="198" y="431"/>
      <point x="198" y="472" type="qcurve"/>
      <point x="198" y="497"/>
      <point x="217" y="531"/>
      <point x="236" y="547" type="qcurve"/>
      <point x="231" y="555"/>
      <point x="225" y="579"/>
      <point x="225" y="587" type="qcurve"/>
      <point x="225" y="646"/>
      <point x="308" y="714"/>
      <point x="372" y="714" type="qcurve"/>
      <point x="429" y="714"/>
      <point x="491" y="660"/>
      <point x="491" y="621" type="qcurve"/>
      <point x="491" y="616"/>
      <point x="490" y="605"/>
      <point x="489" y="600" type="qcurve"/>
      <point x="488" y="594" type="line"/>
      <point x="398" y="594" type="line"/>
    </contour>
    <contour>
      <point x="369" y="441" type="line"/>
      <point x="374" y="448"/>
      <point x="374" y="461" type="qcurve"/>
      <point x="374" y="472"/>
      <point x="358" y="486"/>
      <point x="335" y="491" type="qcurve"/>
      <point x="301" y="499" type="line"/>
      <point x="294" y="492"/>
      <point x="294" y="480" type="qcurve"/>
      <point x="294" y="472"/>
      <point x="310" y="457"/>
      <point x="335" y="450" type="qcurve"/>
    </contour>
  </outline>
</glyph>
<glyph name="copyright" format="1">
  <advance width="612"/>
  <unicode hex="00A9"/>
  <outline>
    <contour>
      <point x="305" y="634" type="qcurve"/>
      <point x="288" y="634"/>
      <point x="273" y="614"/>
      <point x="273" y="602" type="qcurve"/>
      <point x="273" y="510" type="line"/>
      <point x="273" y="498"/>
      <point x="288" y="478"/>
      <point x="305" y="478" type="qcurve"/>
      <point x="322" y="478"/>
      <point x="337" y="498"/>
      <point x="337" y="510" type="qcurve"/>
      <point x="337" y="526" type="line"/>
      <point x="415" y="526" type="line"/>
      <point x="415" y="510" type="line"/>
      <point x="415" y="464"/>
      <point x="356" y="406"/>
      <point x="305" y="406" type="qcurve"/>
      <point x="256" y="406"/>
      <point x="195" y="464"/>
      <point x="195" y="510" type="qcurve"/>
      <point x="195" y="602" type="line"/>
      <point x="195" y="648"/>
      <point x="255" y="706"/>
      <point x="305" y="706" type="qcurve"/>
      <point x="356" y="706"/>
      <point x="415" y="648"/>
      <point x="415" y="602" type="qcurve"/>
      <point x="415" y="586" type="line"/>
      <point x="337" y="586" type="line"/>
      <point x="337" y="602" type="line"/>
      <point x="337" y="614"/>
      <point x="322" y="634"/>
    </contour>
    <contour>
      <point x="28" y="556" type="qcurve"/>
      <point x="28" y="613"/>
      <point x="72" y="715"/>
      <point x="147" y="790"/>
      <point x="249" y="834"/>
      <point x="306" y="834" type="qcurve"/>
      <point x="363" y="834"/>
      <point x="465" y="790"/>
      <point x="540" y="715"/>
      <point x="584" y="613"/>
      <point x="584" y="556" type="qcurve"/>
      <point x="584" y="499"/>
      <point x="540" y="397"/>
      <point x="465" y="322"/>
      <point x="363" y="278"/>
      <point x="306" y="278" type="qcurve"/>
      <point x="249" y="278"/>
      <point x="147" y="322"/>
      <point x="72" y="397"/>
      <point x="28" y="499"/>
    </contour>
    <contour>
      <point x="106" y="556" type="qcurve"/>
      <point x="106" y="514"/>
      <point x="137" y="441"/>
      <point x="191" y="387"/>
      <point x="264" y="356"/>
      <point x="306" y="356" type="qcurve"/>
      <point x="348" y="356"/>
      <point x="421" y="387"/>
      <point x="475" y="441"/>
      <point x="506" y="514"/>
      <point x="506" y="556" type="qcurve"/>
      <point x="506" y="598"/>
      <point x="475" y="671"/>
      <point x="421" y="725"/>
      <point x="348" y="756"/>
      <point x="306" y="756" type="qcurve"/>
      <point x="264" y="756"/>
      <point x="191" y="725"/>
      <point x="137" y="671"/>
      <point x="106" y="598"/>
    </contour>
  </outline>
</glyph>
<glyph name="registered" format="1">
  <advance width="612"/>
  <unicode hex="00AE"/>
  <outline>
    <contour>
      <point x="28" y="556" type="qcurve"/>
      <point x="28" y="613"/>
      <point x="72" y="715"/>
      <point x="147" y="790"/>
      <point x="249" y="834"/>
      <point x="306" y="834" type="qcurve"/>
      <point x="363" y="834"/>
      <point x="465" y="790"/>
      <point x="540" y="715"/>
      <point x="584" y="613"/>
      <point x="584" y="556" type="qcurve"/>
      <point x="584" y="499"/>
      <point x="540" y="397"/>
      <point x="465" y="322"/>
      <point x="363" y="278"/>
      <point x="306" y="278" type="qcurve"/>
      <point x="249" y="278"/>
      <point x="147" y="322"/>
      <point x="72" y="397"/>
      <point x="28" y="499"/>
    </contour>
    <contour>
      <point x="106" y="556" type="qcurve"/>
      <point x="106" y="514"/>
      <point x="137" y="441"/>
      <point x="191" y="387"/>
      <point x="264" y="356"/>
      <point x="306" y="356" type="qcurve"/>
      <point x="348" y="356"/>
      <point x="421" y="387"/>
      <point x="475" y="441"/>
      <point x="506" y="514"/>
      <point x="506" y="556" type="qcurve"/>
      <point x="506" y="598"/>
      <point x="475" y="671"/>
      <point x="421" y="725"/>
      <point x="348" y="756"/>
      <point x="306" y="756" type="qcurve"/>
      <point x="264" y="756"/>
      <point x="191" y="725"/>
      <point x="137" y="671"/>
      <point x="106" y="598"/>
    </contour>
    <contour>
      <point x="408" y="412" type="line"/>
      <point x="330" y="412" type="line"/>
      <point x="330" y="483" type="line"/>
      <point x="330" y="494"/>
      <point x="317" y="508"/>
      <point x="305" y="508" type="qcurve"/>
      <point x="294" y="508" type="line"/>
      <point x="294" y="412" type="line"/>
      <point x="216" y="412" type="line"/>
      <point x="216" y="700" type="line"/>
      <point x="322" y="700" type="line"/>
      <point x="367" y="700"/>
      <point x="414" y="652"/>
      <point x="414" y="620" type="qcurve"/>
      <point x="414" y="567"/>
      <point x="374" y="551" type="qcurve"/>
      <point x="374" y="542" type="line"/>
      <point x="392" y="540"/>
      <point x="408" y="516"/>
      <point x="408" y="502" type="qcurve"/>
    </contour>
    <contour>
      <point x="294" y="580" type="line"/>
      <point x="310" y="580" type="line"/>
      <point x="336" y="580"/>
      <point x="336" y="604" type="qcurve"/>
      <point x="336" y="628"/>
      <point x="310" y="628" type="qcurve"/>
      <point x="294" y="628" type="line"/>
    </contour>
  </outline>
</glyph>
<glyph name="twosuperior" format="1">
  <advance width="612"/>
  <unicode hex="00B2"/>
  <outline>
    <contour>
      <point x="390" y="484" type="line"/>
      <point x="390" y="412" type="line"/>
      <point x="169" y="412" type="line"/>
      <point x="183" y="478" type="line"/>
      <point x="193" y="523"/>
      <point x="246" y="563"/>
      <point x="292" y="574" type="qcurve"/>
      <point x="322" y="581"/>
      <point x="350" y="595"/>
      <point x="350" y="611" type="qcurve"/>
      <point x="350" y="622"/>
      <point x="334" y="634"/>
      <point x="323" y="634" type="qcurve"/>
      <point x="308" y="634"/>
      <point x="289" y="616"/>
      <point x="287" y="598" type="qcurve"/>
      <point x="209" y="598" type="line"/>
      <point x="210" y="604" type="line"/>
      <point x="218" y="653"/>
      <point x="279" y="706"/>
      <point x="331" y="706" type="qcurve"/>
      <point x="376" y="706"/>
      <point x="431" y="660"/>
      <point x="431" y="618" type="qcurve"/>
      <point x="431" y="544"/>
      <point x="337" y="520" type="qcurve"/>
      <point x="296" y="509"/>
      <point x="265" y="496"/>
      <point x="263" y="484" type="qcurve"/>
    </contour>
  </outline>
</glyph>
<glyph name="threesuperior" format="1">
  <advance width="612"/>
  <unicode hex="00B3"/>
  <outline>
    <contour>
      <point x="264" y="512" type="line"/>
      <point x="261" y="495"/>
      <point x="279" y="478"/>
      <point x="294" y="478" type="qcurve"/>
      <point x="312" y="478"/>
      <point x="328" y="497"/>
      <point x="328" y="510" type="qcurve"/>
      <point x="328" y="521"/>
      <point x="312" y="536"/>
      <point x="298" y="536" type="qcurve"/>
      <point x="287" y="536" type="line"/>
      <point x="287" y="608" type="line"/>
      <point x="338" y="621" type="line"/>
      <point x="338" y="630" type="line"/>
      <point x="230" y="630" type="line"/>
      <point x="230" y="700" type="line"/>
      <point x="410" y="700" type="line"/>
      <point x="410" y="598" type="line"/>
      <point x="358" y="585" type="line"/>
      <point x="358" y="576" type="line"/>
      <point x="379" y="571"/>
      <point x="405" y="538"/>
      <point x="405" y="512" type="qcurve"/>
      <point x="405" y="465"/>
      <point x="343" y="406"/>
      <point x="289" y="406" type="qcurve"/>
      <point x="240" y="406"/>
      <point x="187" y="454"/>
      <point x="187" y="492" type="qcurve"/>
      <point x="187" y="502"/>
      <point x="189" y="512" type="qcurve"/>
    </contour>
  </outline>
</glyph>
<glyph name="mu" format="1">
  <advance width="612"/>
  <unicode hex="00B5"/>
  <outline>
    <contour>
      <point x="493" y="118" type="line"/>
      <point x="504" y="112" type="line"/>
      <point x="540" y="138" type="line"/>
      <point x="603" y="46" type="line"/>
      <point x="556" y="12" type="line"/>
      <point x="537" y="-2"/>
      <point x="496" y="-14"/>
      <point x="476" y="-14" type="qcurve"/>
      <point x="438" y="-14"/>
      <point x="380" y="25"/>
      <point x="375" y="60" type="qcurve"/>
      <point x="357" y="60" type="line"/>
      <point x="352" y="40"/>
      <point x="331" y="12"/>
      <point x="302" y="-6"/>
      <point x="269" y="-14"/>
      <point x="253" y="-14" type="qcurve"/>
      <point x="209" y="-14"/>
      <point x="165" y="15"/>
      <point x="157" y="36" type="qcurve"/>
      <point x="139" y="36" type="line"/>
      <point x="90" y="-200" type="line"/>
      <point x="-36" y="-200" type="line"/>
      <point x="111" y="496" type="line"/>
      <point x="237" y="496" type="line"/>
      <point x="179" y="220" type="line"/>
      <point x="174" y="195"/>
      <point x="174" y="178" type="qcurve"/>
      <point x="174" y="143"/>
      <point x="211" y="100"/>
      <point x="258" y="100" type="qcurve"/>
      <point x="288" y="100"/>
      <point x="332" y="119"/>
      <point x="364" y="152"/>
      <point x="384" y="195"/>
      <point x="389" y="220" type="qcurve"/>
      <point x="447" y="496" type="line"/>
      <point x="573" y="496" type="line"/>
    </contour>
  </outline>
</glyph>
<glyph name="paragraph" format="1">
  <advance width="612"/>
  <unicode hex="00B6"/>
  <outline>
    <contour>
      <point x="244" y="424" type="line"/>
      <point x="235" y="424" type="line"/>
      <point x="210" y="424"/>
      <point x="166" y="444"/>
      <point x="134" y="478"/>
      <point x="115" y="524"/>
      <point x="115" y="551" type="qcurve"/>
      <point x="115" y="582"/>
      <point x="138" y="641"/>
      <point x="183" y="686"/>
      <point x="250" y="714"/>
      <point x="293" y="714" type="qcurve"/>
      <point x="549" y="714" type="line"/>
      <point x="549" y="702" type="line"/>
      <point x="446" y="218" type="line"/>
      <point x="338" y="218" type="line"/>
      <point x="422" y="612" type="line"/>
      <point x="392" y="612" type="line"/>
      <point x="308" y="218" type="line"/>
      <point x="200" y="218" type="line"/>
    </contour>
    <contour>
      <point x="265" y="526" type="line"/>
      <point x="284" y="612" type="line"/>
      <point x="272" y="612" type="line"/>
      <point x="246" y="612"/>
      <point x="219" y="582"/>
      <point x="219" y="560" type="qcurve"/>
      <point x="219" y="543"/>
      <point x="240" y="526"/>
      <point x="253" y="526" type="qcurve"/>
    </contour>
  </outline>
</glyph>
<glyph name="ordmasculine" format="1">
  <advance width="612"/>
  <unicode hex="00BA"/>
  <outline>
    <contour>
      <point x="200" y="536" type="qcurve"/>
      <point x="200" y="569"/>
      <point x="225" y="630"/>
      <point x="271" y="678"/>
      <point x="336" y="706"/>
      <point x="377" y="706" type="qcurve"/>
      <point x="403" y="706"/>
      <point x="450" y="690"/>
      <point x="485" y="659"/>
      <point x="506" y="613"/>
      <point x="506" y="583" type="qcurve"/>
      <point x="506" y="542"/>
      <point x="478" y="477"/>
      <point x="431" y="431"/>
      <point x="369" y="406"/>
      <point x="335" y="406" type="qcurve"/>
      <point x="307" y="406"/>
      <point x="258" y="421"/>
      <point x="221" y="453"/>
      <point x="200" y="502"/>
    </contour>
    <contour>
      <point x="340" y="484" type="qcurve"/>
      <point x="376" y="484"/>
      <point x="420" y="534"/>
      <point x="420" y="570" type="qcurve"/>
      <point x="420" y="596"/>
      <point x="395" y="628"/>
      <point x="366" y="628" type="qcurve"/>
      <point x="348" y="628"/>
      <point x="318" y="613"/>
      <point x="297" y="589"/>
      <point x="285" y="557"/>
      <point x="285" y="539" type="qcurve"/>
      <point x="285" y="510"/>
      <point x="316" y="484"/>
    </contour>
  </outline>
</glyph>
<glyph name="questiondown" format="1">
  <advance width="612"/>
  <unicode hex="00BF"/>
  <outline>
    <contour>
      <point x="252" y="110" type="line"/>
      <point x="199" y="110"/>
      <point x="139" y="42"/>
      <point x="139" y="-8" type="qcurve"/>
      <point x="139" y="-41"/>
      <point x="187" y="-88"/>
      <point x="232" y="-88" type="qcurve"/>
      <point x="260" y="-88"/>
      <point x="305" y="-69"/>
      <point x="340" y="-37"/>
      <point x="362" y="6"/>
      <point x="367" y="30" type="qcurve"/>
      <point x="374" y="66" type="line"/>
      <point x="506" y="66" type="line"/>
      <point x="496" y="18" type="line"/>
      <point x="485" y="-34"/>
      <point x="439" y="-119"/>
      <point x="369" y="-180"/>
      <point x="275" y="-214"/>
      <point x="216" y="-214" type="qcurve"/>
      <point x="168" y="-214"/>
      <point x="90" y="-183"/>
      <point x="34" y="-130"/>
      <point x="4" y="-60"/>
      <point x="4" y="-20" type="qcurve"/>
      <point x="4" y="25"/>
      <point x="36" y="113"/>
      <point x="95" y="182"/>
      <point x="179" y="225"/>
      <point x="232" y="225" type="qcurve"/>
      <point x="264" y="225"/>
      <point x="270" y="256" type="qcurve"/>
      <point x="276" y="282" type="line"/>
      <point x="402" y="282" type="line"/>
      <point x="385" y="202" type="line"/>
      <point x="376" y="160"/>
      <point x="318" y="110"/>
      <point x="274" y="110" type="qcurve"/>
    </contour>
    <contour>
      <point x="262" y="419" type="qcurve"/>
      <point x="262" y="439"/>
      <point x="277" y="474"/>
      <point x="303" y="499"/>
      <point x="337" y="514"/>
      <point x="357" y="514" type="qcurve"/>
      <point x="376" y="514"/>
      <point x="411" y="499"/>
      <point x="437" y="474"/>
      <point x="452" y="439"/>
      <point x="452" y="419" type="qcurve"/>
      <point x="452" y="399"/>
      <point x="437" y="364"/>
      <point x="411" y="339"/>
      <point x="376" y="324"/>
      <point x="357" y="324" type="qcurve"/>
      <point x="337" y="324"/>
      <point x="303" y="339"/>
      <point x="277" y="364"/>
      <point x="262" y="399"/>
    </contour>
  </outline>
</glyph>
<glyph name="Thorn" format="1">
  <advance width="612"/>
  <unicode hex="00DE"/>
  <outline>
    <contour>
      <point x="159" y="132" type="line"/>
      <point x="131" y="0" type="line"/>
      <point x="0" y="0" type="line"/>
      <point x="148" y="700" type="line"/>
      <point x="280" y="700" type="line"/>
      <point x="252" y="568" type="line"/>
      <point x="388" y="568" type="line"/>
      <point x="429" y="568"/>
      <point x="496" y="541"/>
      <point x="543" y="494"/>
      <point x="568" y="432"/>
      <point x="568" y="398" type="qcurve"/>
      <point x="568" y="344"/>
      <point x="534" y="247"/>
      <point x="466" y="175"/>
      <point x="367" y="132"/>
      <point x="301" y="132" type="qcurve"/>
    </contour>
    <contour>
      <point x="186" y="258" type="line"/>
      <point x="315" y="258" type="line"/>
      <point x="339" y="258"/>
      <point x="382" y="274"/>
      <point x="414" y="304"/>
      <point x="433" y="345"/>
      <point x="433" y="370" type="qcurve"/>
      <point x="433" y="405"/>
      <point x="389" y="442"/>
      <point x="350" y="442" type="qcurve"/>
      <point x="225" y="442" type="line"/>
    </contour>
  </outline>
</glyph>
<glyph name="germandbls" format="1">
  <advance width="612"/>
  <unicode hex="00DF"/>
  <outline>
    <contour>
      <point x="350" y="346" type="line"/>
      <point x="377" y="346" type="line"/>
      <point x="411" y="346"/>
      <point x="473" y="326"/>
      <point x="520" y="286"/>
      <point x="548" y="227"/>
      <point x="548" y="187" type="qcurve"/>
      <point x="548" y="145"/>
      <point x="522" y="72"/>
      <point x="471" y="18"/>
      <point x="394" y="-14"/>
      <point x="343" y="-14" type="qcurve"/>
      <point x="303" y="-14"/>
      <point x="243" y="10"/>
      <point x="203" y="51"/>
      <point x="183" y="103"/>
      <point x="183" y="132" type="qcurve"/>
      <point x="306" y="154" type="line"/>
      <point x="306" y="131"/>
      <point x="329" y="106"/>
      <point x="352" y="106" type="qcurve"/>
      <point x="382" y="106"/>
      <point x="418" y="143"/>
      <point x="418" y="173" type="qcurve"/>
      <point x="418" y="205"/>
      <point x="374" y="238"/>
      <point x="336" y="238" type="qcurve"/>
      <point x="266" y="238" type="line"/>
      <point x="266" y="466" type="line"/>
      <point x="328" y="466" type="line"/>
      <point x="364" y="466"/>
      <point x="415" y="499"/>
      <point x="415" y="536" type="qcurve"/>
      <point x="415" y="561"/>
      <point x="377" y="594"/>
      <point x="345" y="594" type="qcurve"/>
      <point x="251" y="594"/>
      <point x="231" y="496" type="qcurve"/>
      <point x="125" y="0" type="line"/>
      <point x="0" y="0" type="line"/>
      <point x="79" y="376" type="line"/>
      <point x="31" y="376" type="line"/>
      <point x="31" y="496" type="line"/>
      <point x="105" y="496" type="line"/>
      <point x="108" y="514" type="line"/>
      <point x="117" y="565"/>
      <point x="160" y="640"/>
      <point x="224" y="690"/>
      <point x="305" y="714"/>
      <point x="352" y="714" type="qcurve"/>
      <point x="440" y="714"/>
      <point x="545" y="631"/>
      <point x="545" y="553" type="qcurve"/>
      <point x="545" y="510"/>
      <point x="516" y="443"/>
      <point x="464" y="396"/>
      <point x="392" y="368"/>
      <point x="350" y="364" type="qcurve"/>
    </contour>
  </outline>
</glyph>
<glyph name="eth" format="1">
  <advance width="612"/>
  <unicode hex="00F0"/>
  <outline>
    <contour>
      <point x="427" y="464" type="line"/>
      <point x="422" y="499"/>
      <point x="382" y="553"/>
      <point x="350" y="572" type="qcurve"/>
      <point x="330" y="534" type="line"/>
      <point x="246" y="576" type="line"/>
      <point x="262" y="605" type="line"/>
      <point x="230" y="611"/>
      <point x="197" y="614" type="qcurve"/>
      <point x="241" y="728" type="line"/>
      <point x="262" y="726"/>
      <point x="301" y="720"/>
      <point x="320" y="715" type="qcurve"/>
      <point x="340" y="752" type="line"/>
      <point x="424" y="710" type="line"/>
      <point x="409" y="683" type="line"/>
      <point x="481" y="645"/>
      <point x="560" y="501"/>
      <point x="560" y="388" type="qcurve"/>
      <point x="560" y="318"/>
      <point x="523" y="175"/>
      <point x="444" y="59"/>
      <point x="318" y="-14"/>
      <point x="230" y="-14" type="qcurve"/>
      <point x="181" y="-14"/>
      <point x="101" y="14"/>
      <point x="44" y="68"/>
      <point x="12" y="148"/>
      <point x="12" y="199" type="qcurve"/>
      <point x="12" y="257"/>
      <point x="52" y="369"/>
      <point x="125" y="456"/>
      <point x="228" y="510"/>
      <point x="292" y="510" type="qcurve"/>
      <point x="341" y="510"/>
      <point x="396" y="485"/>
      <point x="409" y="464" type="qcurve"/>
    </contour>
    <contour>
      <point x="244" y="106" type="qcurve"/>
      <point x="280" y="106"/>
      <point x="340" y="136"/>
      <point x="385" y="187"/>
      <point x="410" y="254"/>
      <point x="410" y="290" type="qcurve"/>
      <point x="410" y="338"/>
      <point x="354" y="390"/>
      <point x="305" y="390" type="qcurve"/>
      <point x="269" y="390"/>
      <point x="208" y="359"/>
      <point x="165" y="308"/>
      <point x="140" y="242"/>
      <point x="140" y="206" type="qcurve"/>
      <point x="140" y="156"/>
      <point x="196" y="106"/>
    </contour>
  </outline>
</glyph>
<glyph name="divide" format="1">
  <advance width="612"/>
  <unicode hex="00F7"/>
  <outline>
    <contour>
      <point x="97" y="407" type="line"/>
      <point x="515" y="407" type="line"/>
      <point x="515" y="293" type="line"/>
      <point x="97" y="293" type="line"/>
    </contour>
    <contour>
      <point x="356" y="159" type="qcurve"/>
      <point x="356" y="141"/>
      <point x="342" y="110"/>
      <point x="319" y="86"/>
      <point x="288" y="73"/>
      <point x="270" y="73" type="qcurve"/>
      <point x="252" y="73"/>
      <point x="221" y="86"/>
      <point x="198" y="110"/>
      <point x="184" y="141"/>
      <point x="184" y="159" type="qcurve"/>
      <point x="184" y="177"/>
      <point x="198" y="208"/>
      <point x="221" y="232"/>
      <point x="252" y="245"/>
      <point x="270" y="245" type="qcurve"/>
      <point x="288" y="245"/>
      <point x="319" y="232"/>
      <point x="342" y="208"/>
      <point x="356" y="177"/>
    </contour>
    <contour>
      <point x="428" y="541" type="qcurve"/>
      <point x="428" y="523"/>
      <point x="414" y="492"/>
      <point x="391" y="468"/>
      <point x="360" y="455"/>
      <point x="342" y="455" type="qcurve"/>
      <point x="324" y="455"/>
      <point x="293" y="468"/>
      <point x="270" y="492"/>
      <point x="256" y="523"/>
      <point x="256" y="541" type="qcurve"/>
      <point x="256" y="559"/>
      <point x="270" y="590"/>
      <point x="293" y="614"/>
      <point x="324" y="627"/>
      <point x="342" y="627" type="qcurve"/>
      <point x="360" y="627"/>
      <point x="391" y="614"/>
      <point x="414" y="590"/>
      <point x="428" y="559"/>
    </contour>
  </outline>
</glyph>
<glyph name="Aogonek" format="1">
  <advance width="612"/>
  <unicode hex="0104"/>
  <outline>
    <contour>
      <point x="475" y="0" type="line"/>
      <point x="450" y="-56" type="line"/>
      <point x="447" y="-64"/>
      <point x="447" y="-70" type="qcurve"/>
      <point x="447" y="-86"/>
      <point x="466" y="-86" type="qcurve"/>
      <point x="503" y="-86" type="line"/>
      <point x="503" y="-170" type="line"/>
      <point x="421" y="-170" type="line"/>
      <point x="389" y="-170"/>
      <point x="351" y="-138"/>
      <point x="351" y="-109" type="qcurve"/>
      <point x="351" y="-89"/>
      <point x="361" y="-66" type="qcurve"/>
      <point x="390" y="0" type="line"/>
      <point x="388" y="150" type="line"/>
      <point x="157" y="150" type="line"/>
      <point x="93" y="0" type="line"/>
      <point x="-48" y="0" type="line"/>
      <point x="260" y="700" type="line"/>
      <point x="504" y="700" type="line"/>
      <point x="521" y="0" type="line"/>
    </contour>
    <contour>
      <point x="210" y="276" type="line"/>
      <point x="386" y="276" type="line"/>
      <point x="381" y="634" type="line"/>
      <point x="363" y="634" type="line"/>
    </contour>
  </outline>
</glyph>
<glyph name="dcaron" format="1">
  <advance width="612"/>
  <unicode hex="010F"/>
  <outline>
    <contour>
      <point x="215" y="66" type="line"/>
      <point x="198" y="19"/>
      <point x="139" y="-14"/>
      <point x="98" y="-14" type="qcurve"/>
      <point x="75" y="-14"/>
      <point x="34" y="3"/>
      <point x="3" y="36"/>
      <point x="-16" y="86"/>
      <point x="-16" y="119" type="qcurve"/>
      <point x="-16" y="144"/>
      <point x="-12" y="202"/>
      <point x="-4" y="235" type="qcurve"/>
      <point x="17" y="330" type="line"/>
      <point x="36" y="414"/>
      <point x="129" y="510"/>
      <point x="194" y="510" type="qcurve"/>
      <point x="229" y="510"/>
      <point x="271" y="480"/>
      <point x="275" y="454" type="qcurve"/>
      <point x="293" y="454" type="line"/>
      <point x="348" y="714" type="line"/>
      <point x="474" y="714" type="line"/>
      <point x="349" y="119" type="line"/>
      <point x="359" y="112" type="line"/>
      <point x="422" y="156" type="line"/>
      <point x="485" y="62" type="line"/>
      <point x="411" y="12" type="line"/>
      <point x="391" y="-2"/>
      <point x="351" y="-14"/>
      <point x="332" y="-14" type="qcurve"/>
      <point x="296" y="-14"/>
      <point x="241" y="28"/>
      <point x="233" y="66" type="qcurve"/>
    </contour>
    <contour>
      <point x="632" y="496" type="line"/>
      <point x="622" y="450"/>
      <point x="561" y="406"/>
      <point x="523" y="406" type="qcurve"/>
      <point x="471" y="406" type="line"/>
      <point x="471" y="484" type="line"/>
      <point x="524" y="484" type="line"/>
      <point x="552" y="484"/>
      <point x="558" y="514" type="qcurve"/>
      <point x="560" y="526" type="line"/>
      <point x="544" y="526"/>
      <point x="516" y="539"/>
      <point x="495" y="562"/>
      <point x="483" y="591"/>
      <point x="483" y="607" type="qcurve"/>
      <point x="483" y="648"/>
      <point x="538" y="700"/>
      <point x="578" y="700" type="qcurve"/>
      <point x="612" y="700"/>
      <point x="657" y="658"/>
      <point x="657" y="623" type="qcurve"/>
      <point x="657" y="618"/>
      <point x="657" y="610"/>
      <point x="655" y="602" type="qcurve"/>
    </contour>
    <contour>
      <point x="218" y="390" type="qcurve"/>
      <point x="182" y="390"/>
      <point x="140" y="330"/>
      <point x="129" y="276" type="qcurve"/>
      <point x="117" y="218" type="line"/>
      <point x="111" y="191"/>
      <point x="111" y="169" type="qcurve"/>
      <point x="111" y="137"/>
      <point x="137" y="106"/>
      <point x="160" y="106" type="qcurve"/>
      <point x="193" y="106"/>
      <point x="229" y="153"/>
      <point x="238" y="194" type="qcurve"/>
      <point x="261" y="302" type="line"/>
      <point x="263" y="311"/>
      <point x="265" y="328"/>
      <point x="265" y="336" type="qcurve"/>
      <point x="265" y="360"/>
      <point x="242" y="390"/>
    </contour>
  </outline>
</glyph>
<glyph name="Dcroat" format="1">
  <advance width="612"/>
  <unicode hex="0110"/>
  <outline>
    <contour>
      <point x="51" y="410" type="line"/>
      <point x="134" y="410" type="line"/>
      <point x="169" y="574" type="line"/>
      <point x="103" y="574" type="line"/>
      <point x="103" y="700" type="line"/>
      <point x="368" y="700" type="line"/>
      <point x="470" y="700"/>
      <point x="582" y="597"/>
      <point x="582" y="512" type="qcurve"/>
      <point x="582" y="498"/>
      <point x="578" y="468"/>
      <point x="575" y="452" type="qcurve"/>
      <point x="531" y="242" type="line"/>
      <point x="517" y="178"/>
      <point x="469" y="87"/>
      <point x="394" y="28"/>
      <point x="291" y="0"/>
      <point x="223" y="0" type="qcurve"/>
      <point x="2" y="0" type="line"/>
      <point x="2" y="126" type="line"/>
      <point x="74" y="126" type="line"/>
      <point x="109" y="290" type="line"/>
      <point x="51" y="290" type="line"/>
    </contour>
    <contour>
      <point x="250" y="126" type="line"/>
      <point x="319" y="126"/>
      <point x="388" y="191"/>
      <point x="402" y="260" type="qcurve"/>
      <point x="443" y="452" type="line"/>
      <point x="445" y="460"/>
      <point x="448" y="481"/>
      <point x="448" y="490" type="qcurve"/>
      <point x="448" y="531"/>
      <point x="398" y="574"/>
      <point x="345" y="574" type="qcurve"/>
      <point x="301" y="574" type="line"/>
      <point x="266" y="410" type="line"/>
      <point x="339" y="410" type="line"/>
      <point x="339" y="290" type="line"/>
      <point x="241" y="290" type="line"/>
      <point x="206" y="126" type="line"/>
    </contour>
  </outline>
</glyph>
<glyph name="eogonek" format="1">
  <advance width="612"/>
  <unicode hex="0119"/>
  <outline>
    <contour>
      <point x="165" y="207" type="line"/>
      <point x="163" y="199"/>
      <point x="163" y="190" type="qcurve"/>
      <point x="163" y="154"/>
      <point x="218" y="106"/>
      <point x="263" y="106" type="qcurve"/>
      <point x="310" y="106"/>
      <point x="366" y="140"/>
      <point x="381" y="163" type="qcurve"/>
      <point x="481" y="100" type="line"/>
      <point x="459" y="63"/>
      <point x="408" y="27" type="qcurve"/>
      <point x="286" y="-58" type="line"/>
      <point x="278" y="-64"/>
      <point x="278" y="-72" type="qcurve"/>
      <point x="278" y="-77"/>
      <point x="287" y="-86"/>
      <point x="295" y="-86" type="qcurve"/>
      <point x="344" y="-86" type="line"/>
      <point x="344" y="-170" type="line"/>
      <point x="234" y="-170" type="line"/>
      <point x="198" y="-170"/>
      <point x="157" y="-126"/>
      <point x="157" y="-97" type="qcurve"/>
      <point x="157" y="-78"/>
      <point x="176" y="-40"/>
      <point x="196" y="-23" type="qcurve"/>
      <point x="211" y="-11" type="line"/>
      <point x="172" y="-6"/>
      <point x="108" y="26"/>
      <point x="61" y="75"/>
      <point x="36" y="141"/>
      <point x="36" y="180" type="qcurve"/>
      <point x="36" y="248"/>
      <point x="77" y="368"/>
      <point x="155" y="458"/>
      <point x="269" y="510"/>
      <point x="343" y="510" type="qcurve"/>
      <point x="395" y="510"/>
      <point x="472" y="477"/>
      <point x="522" y="422"/>
      <point x="547" y="352"/>
      <point x="547" y="315" type="qcurve"/>
      <point x="547" y="303"/>
      <point x="544" y="278"/>
      <point x="540" y="258" type="qcurve"/>
      <point x="529" y="207" type="line"/>
    </contour>
    <contour>
      <point x="323" y="396" type="qcurve"/>
      <point x="276" y="396"/>
      <point x="207" y="349"/>
      <point x="190" y="315" type="qcurve"/>
      <point x="424" y="315" type="line"/>
      <point x="424" y="353"/>
      <point x="377" y="396"/>
    </contour>
  </outline>
</glyph>
<glyph name="Iogonek" format="1">
  <advance width="612"/>
  <unicode hex="012E"/>
  <outline>
    <contour>
      <point x="125" y="700" type="line"/>
      <point x="581" y="700" type="line"/>
      <point x="581" y="574" type="line"/>
      <point x="419" y="574" type="line"/>
      <point x="324" y="126" type="line"/>
      <point x="486" y="126" type="line"/>
      <point x="486" y="0" type="line"/>
      <point x="460" y="-56" type="line"/>
      <point x="458" y="-60"/>
      <point x="457" y="-65"/>
      <point x="457" y="-70" type="qcurve"/>
      <point x="457" y="-86"/>
      <point x="476" y="-86" type="qcurve"/>
      <point x="513" y="-86" type="line"/>
      <point x="513" y="-170" type="line"/>
      <point x="431" y="-170" type="line"/>
      <point x="399" y="-170"/>
      <point x="361" y="-138"/>
      <point x="361" y="-109" type="qcurve"/>
      <point x="361" y="-89"/>
      <point x="371" y="-66" type="qcurve"/>
      <point x="400" y="0" type="line"/>
      <point x="30" y="0" type="line"/>
      <point x="30" y="126" type="line"/>
      <point x="192" y="126" type="line"/>
      <point x="287" y="574" type="line"/>
      <point x="125" y="574" type="line"/>
    </contour>
  </outline>
</glyph>
<glyph name="dotlessi" format="1">
  <advance width="612"/>
  <unicode hex="0131"/>
  <outline>
    <contour>
      <point x="380" y="12" type="line"/>
      <point x="360" y="-2"/>
      <point x="318" y="-14"/>
      <point x="298" y="-14" type="qcurve"/>
      <point x="276" y="-14"/>
      <point x="236" y="1"/>
      <point x="206" y="28"/>
      <point x="189" y="67"/>
      <point x="189" y="91" type="qcurve"/>
      <point x="189" y="110"/>
      <point x="193" y="126" type="qcurve"/>
      <point x="253" y="377" type="line"/>
      <point x="243" y="384" type="line"/>
      <point x="109" y="292" type="line"/>
      <point x="46" y="386" type="line"/>
      <point x="191" y="484" type="line"/>
      <point x="211" y="498"/>
      <point x="253" y="510"/>
      <point x="273" y="510" type="qcurve"/>
      <point x="295" y="510"/>
      <point x="335" y="495"/>
      <point x="365" y="468"/>
      <point x="382" y="429"/>
      <point x="382" y="405" type="qcurve"/>
      <point x="382" y="386"/>
      <point x="378" y="370" type="qcurve"/>
      <point x="318" y="119" type="line"/>
      <point x="328" y="112" type="line"/>
      <point x="462" y="204" type="line"/>
      <point x="525" y="110" type="line"/>
    </contour>
  </outline>
</glyph>
<glyph name="IJ" format="1">
  <advance width="612"/>
  <unicode hex="0132"/>
  <outline>
    <contour>
      <point x="265" y="700" type="line"/>
      <point x="189" y="342" type="line"/>
      <point x="57" y="342" type="line"/>
      <point x="133" y="700" type="line"/>
    </contour>
    <contour>
      <point x="479" y="210" type="line"/>
      <point x="466" y="151"/>
      <point x="423" y="66"/>
      <point x="359" y="12"/>
      <point x="273" y="-14"/>
      <point x="218" y="-14" type="qcurve"/>
      <point x="176" y="-14"/>
      <point x="106" y="10"/>
      <point x="55" y="56"/>
      <point x="26" y="123"/>
      <point x="26" y="167" type="qcurve"/>
      <point x="26" y="198"/>
      <point x="33" y="229" type="qcurve"/>
      <point x="43" y="276" type="line"/>
      <point x="175" y="276" type="line"/>
      <point x="161" y="210" type="line"/>
      <point x="158" y="196"/>
      <point x="158" y="181" type="qcurve"/>
      <point x="158" y="147"/>
      <point x="198" y="110"/>
      <point x="236" y="110" type="qcurve"/>
      <point x="279" y="110"/>
      <point x="337" y="162"/>
      <point x="347" y="210" type="qcurve"/>
      <point x="425" y="576" type="line"/>
      <point x="350" y="576" type="line"/>
      <point x="350" y="700" type="line"/>
      <point x="624" y="700" type="line"/>
      <point x="624" y="576" type="line"/>
      <point x="557" y="576" type="line"/>
    </contour>
  </outline>
</glyph>
<glyph name="uni013B" format="1">
  <advance width="612"/>
  <unicode hex="013B"/>
  <outline>
    <contour>
      <point x="140" y="-134" type="qcurve"/>
      <point x="140" y="-115"/>
      <point x="154" y="-82"/>
      <point x="179" y="-58"/>
      <point x="212" y="-44"/>
      <point x="231" y="-44" type="qcurve"/>
      <point x="249" y="-44"/>
      <point x="282" y="-58"/>
      <point x="307" y="-83"/>
      <point x="322" y="-116"/>
      <point x="322" y="-135" type="qcurve"/>
      <point x="322" y="-140"/>
      <point x="321" y="-150"/>
      <point x="320" y="-155" type="qcurve"/>
      <point x="296" y="-269" type="line"/>
      <point x="288" y="-304"/>
      <point x="234" y="-338"/>
      <point x="195" y="-338" type="qcurve"/>
      <point x="140" y="-338" type="line"/>
      <point x="140" y="-260" type="line"/>
      <point x="189" y="-260" type="line"/>
      <point x="206" y="-260"/>
      <point x="223" y="-251"/>
      <point x="225" y="-237" type="qcurve"/>
      <point x="228" y="-218" type="line"/>
      <point x="212" y="-218"/>
      <point x="180" y="-208"/>
      <point x="155" y="-187"/>
      <point x="140" y="-156"/>
    </contour>
    <component base="L"/>
  </outline>
</glyph>
<glyph name="Lcaron" format="1">
  <advance width="612"/>
  <unicode hex="013D"/>
  <outline>
    <contour>
      <point x="15" y="12" type="line"/>
      <point x="161" y="700" type="line"/>
      <point x="293" y="700" type="line"/>
      <point x="171" y="126" type="line"/>
      <point x="475" y="126" type="line"/>
      <point x="475" y="0" type="line"/>
      <point x="15" y="0" type="line"/>
    </contour>
    <contour>
      <point x="415" y="610" type="qcurve"/>
      <point x="415" y="649"/>
      <point x="468" y="700"/>
      <point x="506" y="700" type="qcurve"/>
      <point x="524" y="700"/>
      <point x="557" y="686"/>
      <point x="582" y="661"/>
      <point x="597" y="628"/>
      <point x="597" y="609" type="qcurve"/>
      <point x="597" y="604"/>
      <point x="596" y="595"/>
      <point x="595" y="590" type="qcurve"/>
      <point x="571" y="476" type="line"/>
      <point x="563" y="440"/>
      <point x="509" y="406"/>
      <point x="470" y="406" type="qcurve"/>
      <point x="392" y="406" type="line"/>
      <point x="392" y="484" type="line"/>
      <point x="467" y="484" type="line"/>
      <point x="496" y="484"/>
      <point x="500" y="508" type="qcurve"/>
      <point x="503" y="523" type="line"/>
      <point x="470" y="523"/>
      <point x="415" y="565"/>
    </contour>
  </outline>
</glyph>
<glyph name="uni0145" format="1">
  <advance width="612"/>
  <unicode hex="0145"/>
  <outline>
    <contour>
      <point x="76" y="-134" type="qcurve"/>
      <point x="76" y="-115"/>
      <point x="90" y="-82"/>
      <point x="115" y="-58"/>
      <point x="148" y="-44"/>
      <point x="167" y="-44" type="qcurve"/>
      <point x="185" y="-44"/>
      <point x="218" y="-58"/>
      <point x="243" y="-83"/>
      <point x="258" y="-116"/>
      <point x="258" y="-135" type="qcurve"/>
      <point x="258" y="-140"/>
      <point x="257" y="-150"/>
      <point x="256" y="-155" type="qcurve"/>
      <point x="232" y="-269" type="line"/>
      <point x="224" y="-304"/>
      <point x="170" y="-338"/>
      <point x="131" y="-338" type="qcurve"/>
      <point x="83" y="-338" type="line"/>
      <point x="83" y="-260" type="line"/>
      <point x="125" y="-260" type="line"/>
      <point x="142" y="-260"/>
      <point x="159" y="-251"/>
      <point x="161" y="-237" type="qcurve"/>
      <point x="164" y="-218" type="line"/>
      <point x="148" y="-218"/>
      <point x="116" y="-208"/>
      <point x="91" y="-187"/>
      <point x="76" y="-156"/>
    </contour>
    <component base="N"/>
  </outline>
</glyph>
<glyph name="Eng" format="1">
  <advance width="612"/>
  <unicode hex="014A"/>
  <outline>
    <contour>
      <point x="340" y="66" type="line"/>
      <point x="358" y="66" type="line"/>
      <point x="493" y="700" type="line"/>
      <point x="619" y="700" type="line"/>
      <point x="449" y="-98" type="line"/>
      <point x="438" y="-150"/>
      <point x="371" y="-200"/>
      <point x="326" y="-200" type="qcurve"/>
      <point x="147" y="-200" type="line"/>
      <point x="147" y="-80" type="line"/>
      <point x="298" y="-80" type="line"/>
      <point x="329" y="-80"/>
      <point x="335" y="-47" type="qcurve"/>
      <point x="345" y="0" type="line"/>
      <point x="224" y="0" type="line"/>
      <point x="271" y="634" type="line"/>
      <point x="253" y="634" type="line"/>
      <point x="118" y="0" type="line"/>
      <point x="-7" y="0" type="line"/>
      <point x="141" y="700" type="line"/>
      <point x="387" y="700" type="line"/>
    </contour>
  </outline>
</glyph>
<glyph name="eng" format="1">
  <advance width="612"/>
  <unicode hex="014B"/>
  <outline>
    <contour>
      <point x="396" y="288" type="line"/>
      <point x="399" y="304"/>
      <point x="399" y="315" type="qcurve"/>
      <point x="399" y="353"/>
      <point x="351" y="396"/>
      <point x="313" y="396" type="qcurve"/>
      <point x="268" y="396"/>
      <point x="196" y="332"/>
      <point x="185" y="278" type="qcurve"/>
      <point x="126" y="0" type="line"/>
      <point x="0" y="0" type="line"/>
      <point x="105" y="496" type="line"/>
      <point x="231" y="496" type="line"/>
      <point x="215" y="422" type="line"/>
      <point x="233" y="422" type="line"/>
      <point x="259" y="467"/>
      <point x="331" y="510"/>
      <point x="384" y="510" type="qcurve"/>
      <point x="449" y="510"/>
      <point x="532" y="433"/>
      <point x="532" y="361" type="qcurve"/>
      <point x="532" y="336"/>
      <point x="526" y="306" type="qcurve"/>
      <point x="438" y="-98" type="line"/>
      <point x="427" y="-150"/>
      <point x="361" y="-200"/>
      <point x="316" y="-200" type="qcurve"/>
      <point x="205" y="-200" type="line"/>
      <point x="205" y="-80" type="line"/>
      <point x="286" y="-80" type="line"/>
      <point x="315" y="-80"/>
      <point x="323" y="-47" type="qcurve"/>
    </contour>
  </outline>
</glyph>
<glyph name="uni0157" format="1">
  <advance width="612"/>
  <unicode hex="0157"/>
  <outline>
    <contour>
      <point x="48" y="-134" type="qcurve"/>
      <point x="48" y="-115"/>
      <point x="62" y="-82"/>
      <point x="87" y="-58"/>
      <point x="120" y="-44"/>
      <point x="139" y="-44" type="qcurve"/>
      <point x="157" y="-44"/>
      <point x="190" y="-58"/>
      <point x="215" y="-83"/>
      <point x="230" y="-116"/>
      <point x="230" y="-135" type="qcurve"/>
      <point x="230" y="-140"/>
      <point x="229" y="-150"/>
      <point x="228" y="-155" type="qcurve"/>
      <point x="204" y="-269" type="line"/>
      <point x="196" y="-304"/>
      <point x="142" y="-338"/>
      <point x="103" y="-338" type="qcurve"/>
      <point x="55" y="-338" type="line"/>
      <point x="55" y="-260" type="line"/>
      <point x="97" y="-260" type="line"/>
      <point x="114" y="-260"/>
      <point x="131" y="-251"/>
      <point x="133" y="-237" type="qcurve"/>
      <point x="136" y="-218" type="line"/>
      <point x="120" y="-218"/>
      <point x="88" y="-208"/>
      <point x="63" y="-187"/>
      <point x="48" y="-156"/>
    </contour>
    <component base="r"/>
  </outline>
</glyph>
<glyph name="Scedilla" format="1">
  <advance width="612"/>
  <unicode hex="015E"/>
  <outline>
    <contour>
      <point x="457" y="475" type="line"/>
      <point x="460" y="490"/>
      <point x="460" y="502" type="qcurve"/>
      <point x="460" y="541"/>
      <point x="404" y="590"/>
      <point x="346" y="590" type="qcurve"/>
      <point x="323" y="590"/>
      <point x="279" y="580"/>
      <point x="245" y="559"/>
      <point x="225" y="527"/>
      <point x="225" y="506" type="qcurve"/>
      <point x="225" y="471"/>
      <point x="284" y="431"/>
      <point x="350" y="420" type="qcurve"/>
      <point x="443" y="405"/>
      <point x="550" y="316"/>
      <point x="550" y="231" type="qcurve"/>
      <point x="550" y="174"/>
      <point x="509" y="84"/>
      <point x="434" y="20"/>
      <point x="328" y="-14"/>
      <point x="262" y="-14" type="qcurve"/>
      <point x="252" y="-14" type="line"/>
      <point x="238" y="-46" type="line"/>
      <point x="250" y="-46" type="line"/>
      <point x="258" y="-37"/>
      <point x="282" y="-24"/>
      <point x="301" y="-24" type="qcurve"/>
      <point x="330" y="-24"/>
      <point x="368" y="-64"/>
      <point x="368" y="-102" type="qcurve"/>
      <point x="368" y="-153"/>
      <point x="305" y="-212"/>
      <point x="247" y="-212" type="qcurve"/>
      <point x="213" y="-212"/>
      <point x="169" y="-201"/>
      <point x="154" y="-192" type="qcurve"/>
      <point x="191" y="-123" type="line"/>
      <point x="201" y="-130"/>
      <point x="226" y="-138"/>
      <point x="242" y="-138" type="qcurve"/>
      <point x="259" y="-138"/>
      <point x="282" y="-123"/>
      <point x="282" y="-109" type="qcurve"/>
      <point x="282" y="-90"/>
      <point x="264" y="-90" type="qcurve"/>
      <point x="250" y="-90"/>
      <point x="243" y="-104" type="qcurve"/>
      <point x="146" y="-104" type="line"/>
      <point x="146" y="-92" type="line"/>
      <point x="177" y="-5" type="line"/>
      <point x="93" y="15"/>
      <point x="14" y="124"/>
      <point x="14" y="196" type="qcurve"/>
      <point x="14" y="209"/>
      <point x="16" y="235"/>
      <point x="19" y="249" type="qcurve"/>
      <point x="24" y="272" type="line"/>
      <point x="156" y="272" type="line"/>
      <point x="152" y="255" type="line"/>
      <point x="148" y="236"/>
      <point x="148" y="212" type="qcurve"/>
      <point x="148" y="164"/>
      <point x="209" y="110"/>
      <point x="270" y="110" type="qcurve"/>
      <point x="336" y="110"/>
      <point x="410" y="165"/>
      <point x="410" y="213" type="qcurve"/>
      <point x="410" y="251"/>
      <point x="347" y="293"/>
      <point x="273" y="304" type="qcurve"/>
      <point x="238" y="309"/>
      <point x="171" y="335"/>
      <point x="119" y="381"/>
      <point x="87" y="448"/>
      <point x="87" y="494" type="qcurve"/>
      <point x="87" y="541"/>
      <point x="122" y="622"/>
      <point x="191" y="681"/>
      <point x="292" y="714"/>
      <point x="358" y="714" type="qcurve"/>
      <point x="414" y="714"/>
      <point x="502" y="686"/>
      <point x="563" y="636"/>
      <point x="595" y="567"/>
      <point x="595" y="527" type="qcurve"/>
      <point x="595" y="516"/>
      <point x="593" y="494"/>
      <point x="590" y="480" type="qcurve"/>
      <point x="586" y="462" type="line"/>
      <point x="454" y="462" type="line"/>
    </contour>
  </outline>
</glyph>
<glyph name="uni0163" format="1">
  <advance width="612"/>
  <unicode hex="0163"/>
  <outline>
    <contour>
      <point x="218" y="376" type="line"/>
      <point x="78" y="376" type="line"/>
      <point x="78" y="496" type="line"/>
      <point x="244" y="496" type="line"/>
      <point x="290" y="714" type="line"/>
      <point x="416" y="714" type="line"/>
      <point x="370" y="496" type="line"/>
      <point x="542" y="496" type="line"/>
      <point x="542" y="376" type="line"/>
      <point x="344" y="376" type="line"/>
      <point x="288" y="119" type="line"/>
      <point x="298" y="112" type="line"/>
      <point x="432" y="204" type="line"/>
      <point x="495" y="110" type="line"/>
      <point x="350" y="12" type="line"/>
      <point x="330" y="-2"/>
      <point x="289" y="-14"/>
      <point x="269" y="-14" type="qcurve"/>
      <point x="265" y="-14" type="line"/>
      <point x="252" y="-46" type="line"/>
      <point x="264" y="-46" type="line"/>
      <point x="272" y="-37"/>
      <point x="296" y="-24"/>
      <point x="315" y="-24" type="qcurve"/>
      <point x="344" y="-24"/>
      <point x="382" y="-64"/>
      <point x="382" y="-102" type="qcurve"/>
      <point x="382" y="-153"/>
      <point x="319" y="-212"/>
      <point x="261" y="-212" type="qcurve"/>
      <point x="227" y="-212"/>
      <point x="183" y="-201"/>
      <point x="168" y="-192" type="qcurve"/>
      <point x="205" y="-123" type="line"/>
      <point x="215" y="-130"/>
      <point x="240" y="-138"/>
      <point x="256" y="-138" type="qcurve"/>
      <point x="273" y="-138"/>
      <point x="296" y="-123"/>
      <point x="296" y="-109" type="qcurve"/>
      <point x="296" y="-90"/>
      <point x="278" y="-90" type="qcurve"/>
      <point x="264" y="-90"/>
      <point x="257" y="-104" type="qcurve"/>
      <point x="160" y="-104" type="line"/>
      <point x="160" y="-92" type="line"/>
      <point x="196" y="10" type="line"/>
      <point x="179" y="24"/>
      <point x="159" y="67"/>
      <point x="159" y="94" type="qcurve"/>
      <point x="159" y="102"/>
      <point x="161" y="115"/>
      <point x="163" y="126" type="qcurve"/>
    </contour>
  </outline>
</glyph>
<glyph name="tbar" format="1">
  <advance width="612"/>
  <unicode hex="0167"/>
  <outline>
    <contour>
      <point x="179" y="202" type="line"/>
      <point x="84" y="202" type="line"/>
      <point x="84" y="316" type="line"/>
      <point x="204" y="316" type="line"/>
      <point x="218" y="376" type="line"/>
      <point x="78" y="376" type="line"/>
      <point x="78" y="496" type="line"/>
      <point x="244" y="496" type="line"/>
      <point x="290" y="714" type="line"/>
      <point x="416" y="714" type="line"/>
      <point x="370" y="496" type="line"/>
      <point x="542" y="496" type="line"/>
      <point x="542" y="376" type="line"/>
      <point x="344" y="376" type="line"/>
      <point x="331" y="316" type="line"/>
      <point x="378" y="316" type="line"/>
      <point x="378" y="202" type="line"/>
      <point x="306" y="202" type="line"/>
      <point x="288" y="119" type="line"/>
      <point x="298" y="112" type="line"/>
      <point x="432" y="204" type="line"/>
      <point x="495" y="110" type="line"/>
      <point x="350" y="12" type="line"/>
      <point x="312" y="-14"/>
      <point x="269" y="-14" type="qcurve"/>
      <point x="247" y="-14"/>
      <point x="207" y="1"/>
      <point x="177" y="29"/>
      <point x="159" y="69"/>
      <point x="159" y="94" type="qcurve"/>
      <point x="159" y="102"/>
      <point x="161" y="115"/>
      <point x="163" y="126" type="qcurve"/>
    </contour>
  </outline>
</glyph>
<glyph name="longs" format="1">
  <advance width="612"/>
  <unicode hex="017F"/>
  <outline>
    <contour>
      <point x="239" y="376" type="line"/>
      <point x="98" y="376" type="line"/>
      <point x="98" y="496" type="line"/>
      <point x="265" y="496" type="line"/>
      <point x="287" y="598" type="line"/>
      <point x="291" y="619"/>
      <point x="315" y="657"/>
      <point x="348" y="684"/>
      <point x="389" y="700"/>
      <point x="410" y="700" type="qcurve"/>
      <point x="586" y="700" type="line"/>
      <point x="586" y="580" type="line"/>
      <point x="436" y="580" type="line"/>
      <point x="409" y="580"/>
      <point x="403" y="550" type="qcurve"/>
      <point x="254" y="-120" type="line"/>
      <point x="243" y="-169"/>
      <point x="183" y="-212"/>
      <point x="148" y="-212" type="qcurve"/>
      <point x="119" y="-212"/>
      <point x="64" y="-185"/>
      <point x="49" y="-160" type="qcurve"/>
      <point x="-14" y="-59" type="line"/>
      <point x="83" y="0" type="line"/>
      <point x="127" y="-76" type="line"/>
      <point x="139" y="-74" type="line"/>
    </contour>
  </outline>
</glyph>
<glyph name="uni0180" format="1">
  <advance width="612"/>
  <unicode hex="0180"/>
  <outline>
    <contour>
      <point x="145" y="0" type="line"/>
      <point x="20" y="0" type="line"/>
      <point x="134" y="538" type="line"/>
      <point x="86" y="538" type="line"/>
      <point x="86" y="652" type="line"/>
      <point x="158" y="652" type="line"/>
      <point x="171" y="714" type="line"/>
      <point x="297" y="714" type="line"/>
      <point x="284" y="652" type="line"/>
      <point x="410" y="652" type="line"/>
      <point x="410" y="538" type="line"/>
      <point x="259" y="538" type="line"/>
      <point x="235" y="424" type="line"/>
      <point x="253" y="424" type="line"/>
      <point x="305" y="510"/>
      <point x="410" y="510" type="qcurve"/>
      <point x="487" y="510"/>
      <point x="577" y="406"/>
      <point x="577" y="320" type="qcurve"/>
      <point x="577" y="243"/>
      <point x="534" y="119"/>
      <point x="460" y="32"/>
      <point x="360" y="-14"/>
      <point x="304" y="-14" type="qcurve"/>
      <point x="271" y="-14"/>
      <point x="226" y="0"/>
      <point x="197" y="24"/>
      <point x="181" y="55"/>
      <point x="178" y="72" type="qcurve"/>
      <point x="160" y="72" type="line"/>
    </contour>
    <contour>
      <point x="288" y="106" type="qcurve"/>
      <point x="324" y="107"/>
      <point x="382" y="136"/>
      <point x="424" y="186"/>
      <point x="446" y="251"/>
      <point x="446" y="288" type="qcurve"/>
      <point x="446" y="335"/>
      <point x="391" y="390"/>
      <point x="344" y="390" type="qcurve"/>
      <point x="309" y="390"/>
      <point x="254" y="362"/>
      <point x="214" y="313"/>
      <point x="193" y="246"/>
      <point x="193" y="208" type="qcurve"/>
      <point x="193" y="160"/>
      <point x="243" y="106"/>
    </contour>
  </outline>
</glyph>
<glyph name="uni018F" format="1">
  <advance width="612"/>
  <unicode hex="018F"/>
  <outline>
    <contour>
      <point x="56" y="380" type="line"/>
      <point x="440" y="380" type="line"/>
      <point x="452" y="438" type="line"/>
      <point x="455" y="452"/>
      <point x="457" y="475"/>
      <point x="457" y="486" type="qcurve"/>
      <point x="457" y="534"/>
      <point x="407" y="594"/>
      <point x="352" y="594" type="qcurve"/>
      <point x="317" y="594"/>
      <point x="265" y="569"/>
      <point x="229" y="528"/>
      <point x="207" y="476"/>
      <point x="202" y="448" type="qcurve"/>
      <point x="70" y="448" type="line"/>
      <point x="99" y="584"/>
      <point x="250" y="714"/>
      <point x="372" y="714" type="qcurve"/>
      <point x="424" y="714"/>
      <point x="505" y="682"/>
      <point x="561" y="624"/>
      <point x="590" y="545"/>
      <point x="590" y="498" type="qcurve"/>
      <point x="590" y="481"/>
      <point x="585" y="444"/>
      <point x="582" y="428" type="qcurve"/>
      <point x="549" y="272" type="line"/>
      <point x="517" y="119"/>
      <point x="359" y="-14"/>
      <point x="230" y="-14" type="qcurve"/>
      <point x="182" y="-14"/>
      <point x="105" y="14"/>
      <point x="51" y="67"/>
      <point x="22" y="141"/>
      <point x="22" y="186" type="qcurve"/>
      <point x="22" y="220"/>
      <point x="29" y="252" type="qcurve"/>
    </contour>
    <contour>
      <point x="254" y="106" type="qcurve"/>
      <point x="289" y="106"/>
      <point x="343" y="128"/>
      <point x="381" y="167"/>
      <point x="406" y="221"/>
      <point x="413" y="254" type="qcurve"/>
      <point x="161" y="254" type="line"/>
      <point x="159" y="246" type="line"/>
      <point x="157" y="235"/>
      <point x="153" y="209"/>
      <point x="153" y="198" type="qcurve"/>
      <point x="153" y="179"/>
      <point x="163" y="145"/>
      <point x="186" y="120"/>
      <point x="225" y="106"/>
    </contour>
  </outline>
</glyph>
<glyph name="florin" format="1">
  <advance width="612"/>
  <unicode hex="0192"/>
  <outline>
    <contour>
      <point x="171" y="438" type="line"/>
      <point x="267" y="438" type="line"/>
      <point x="281" y="502" type="line"/>
      <point x="285" y="523"/>
      <point x="309" y="561"/>
      <point x="342" y="588"/>
      <point x="382" y="604"/>
      <point x="403" y="604" type="qcurve"/>
      <point x="523" y="604" type="line"/>
      <point x="523" y="496" type="line"/>
      <point x="421" y="496" type="line"/>
      <point x="393" y="496"/>
      <point x="387" y="466" type="qcurve"/>
      <point x="381" y="438" type="line"/>
      <point x="453" y="438" type="line"/>
      <point x="453" y="330" type="line"/>
      <point x="358" y="330" type="line"/>
      <point x="330" y="198" type="line"/>
      <point x="320" y="153"/>
      <point x="255" y="96"/>
      <point x="208" y="96" type="qcurve"/>
      <point x="88" y="96" type="line"/>
      <point x="88" y="204" type="line"/>
      <point x="190" y="204" type="line"/>
      <point x="218" y="204"/>
      <point x="224" y="234" type="qcurve"/>
      <point x="244" y="330" type="line"/>
      <point x="171" y="330" type="line"/>
    </contour>
  </outline>
</glyph>
<glyph name="uni01B0" format="1">
  <advance width="612"/>
  <unicode hex="01B0"/>
  <outline>
    <contour>
      <point x="475" y="406" type="qcurve"/>
      <point x="475" y="443"/>
      <point x="528" y="496"/>
      <point x="565" y="496" type="qcurve"/>
      <point x="602" y="496"/>
      <point x="646" y="449"/>
      <point x="646" y="413" type="qcurve"/>
      <point x="646" y="407"/>
      <point x="645" y="396"/>
      <point x="643" y="388" type="qcurve"/>
      <point x="621" y="286" type="line"/>
      <point x="612" y="243"/>
      <point x="558" y="204"/>
      <point x="513" y="204" type="qcurve"/>
      <point x="399" y="204" type="line"/>
      <point x="356" y="0" type="line"/>
      <point x="230" y="0" type="line"/>
      <point x="240" y="48" type="line"/>
      <point x="222" y="48" type="line"/>
      <point x="208" y="21"/>
      <point x="151" y="-14"/>
      <point x="109" y="-14" type="qcurve"/>
      <point x="88" y="-14"/>
      <point x="49" y="0"/>
      <point x="19" y="29"/>
      <point x="0" y="73"/>
      <point x="0" y="104" type="qcurve"/>
      <point x="0" y="126"/>
      <point x="6" y="153" type="qcurve"/>
      <point x="78" y="496" type="line"/>
      <point x="204" y="496" type="line"/>
      <point x="135" y="174" type="line"/>
      <point x="133" y="166"/>
      <point x="133" y="158"/>
      <point x="133" y="153" type="qcurve"/>
      <point x="133" y="127"/>
      <point x="163" y="100"/>
      <point x="190" y="100" type="qcurve"/>
      <point x="224" y="100"/>
      <point x="261" y="144"/>
      <point x="269" y="180" type="qcurve"/>
      <point x="336" y="496" type="line"/>
      <point x="462" y="496" type="line"/>
      <point x="416" y="282" type="line"/>
      <point x="514" y="282" type="line"/>
      <point x="543" y="282"/>
      <point x="549" y="312" type="qcurve"/>
      <point x="551" y="322" type="line"/>
      <point x="537" y="322"/>
      <point x="510" y="334"/>
      <point x="489" y="356"/>
      <point x="475" y="387"/>
    </contour>
  </outline>
</glyph>
<glyph name="uni01EA" format="1">
  <advance width="612"/>
  <unicode hex="01EA"/>
  <outline>
    <contour>
      <point x="65" y="428" type="line"/>
      <point x="96" y="576"/>
      <point x="241" y="714"/>
      <point x="368" y="714" type="qcurve"/>
      <point x="421" y="714"/>
      <point x="503" y="681"/>
      <point x="559" y="622"/>
      <point x="588" y="542"/>
      <point x="588" y="496" type="qcurve"/>
      <point x="588" y="479"/>
      <point x="585" y="445"/>
      <point x="581" y="428" type="qcurve"/>
      <point x="548" y="272" type="line"/>
      <point x="539" y="228"/>
      <point x="515" y="157"/>
      <point x="483" y="99"/>
      <point x="440" y="51"/>
      <point x="411" y="29" type="qcurve"/>
      <point x="295" y="-58" type="line"/>
      <point x="287" y="-65"/>
      <point x="287" y="-72" type="qcurve"/>
      <point x="287" y="-77"/>
      <point x="296" y="-86"/>
      <point x="304" y="-86" type="qcurve"/>
      <point x="367" y="-86" type="line"/>
      <point x="367" y="-170" type="line"/>
      <point x="243" y="-170" type="line"/>
      <point x="208" y="-170"/>
      <point x="168" y="-128"/>
      <point x="168" y="-99" type="qcurve"/>
      <point x="168" y="-79"/>
      <point x="188" y="-40"/>
      <point x="210" y="-23" type="qcurve"/>
      <point x="222" y="-13" type="line"/>
      <point x="174" y="-10"/>
      <point x="101" y="26"/>
      <point x="51" y="84"/>
      <point x="25" y="160"/>
      <point x="25" y="204" type="qcurve"/>
      <point x="25" y="221"/>
      <point x="28" y="255"/>
      <point x="32" y="272" type="qcurve"/>
    </contour>
    <contour>
      <point x="257" y="106" type="qcurve"/>
      <point x="291" y="106"/>
      <point x="343" y="131"/>
      <point x="382" y="173"/>
      <point x="407" y="231"/>
      <point x="414" y="264" type="qcurve"/>
      <point x="451" y="436" type="line"/>
      <point x="454" y="452"/>
      <point x="457" y="475"/>
      <point x="457" y="486" type="qcurve"/>
      <point x="457" y="537"/>
      <point x="404" y="594"/>
      <point x="356" y="594" type="qcurve"/>
      <point x="322" y="594"/>
      <point x="270" y="569"/>
      <point x="231" y="527"/>
      <point x="206" y="469"/>
      <point x="199" y="436" type="qcurve"/>
      <point x="162" y="264" type="line"/>
      <point x="156" y="237"/>
      <point x="156" y="214" type="qcurve"/>
      <point x="156" y="163"/>
      <point x="209" y="106"/>
    </contour>
  </outline>
</glyph>
<glyph name="uni01EB" format="1">
  <advance width="612"/>
  <unicode hex="01EB"/>
  <outline>
    <contour>
      <point x="558" y="310" type="qcurve"/>
      <point x="558" y="216"/>
      <point x="493" y="79"/>
      <point x="435" y="39" type="qcurve"/>
      <point x="295" y="-58" type="line"/>
      <point x="287" y="-63"/>
      <point x="287" y="-72" type="qcurve"/>
      <point x="287" y="-77"/>
      <point x="296" y="-86"/>
      <point x="304" y="-86" type="qcurve"/>
      <point x="351" y="-86" type="line"/>
      <point x="351" y="-170" type="line"/>
      <point x="243" y="-170" type="line"/>
      <point x="207" y="-170"/>
      <point x="164" y="-125"/>
      <point x="164" y="-95" type="qcurve"/>
      <point x="164" y="-76"/>
      <point x="184" y="-39"/>
      <point x="205" y="-23" type="qcurve"/>
      <point x="219" y="-13" type="line"/>
      <point x="180" y="-9"/>
      <point x="112" y="21"/>
      <point x="62" y="71"/>
      <point x="33" y="140"/>
      <point x="33" y="184" type="qcurve"/>
      <point x="33" y="261"/>
      <point x="81" y="382"/>
      <point x="164" y="466"/>
      <point x="277" y="510"/>
      <point x="342" y="510" type="qcurve"/>
      <point x="389" y="510"/>
      <point x="469" y="481"/>
      <point x="526" y="429"/>
      <point x="558" y="355"/>
    </contour>
    <contour>
      <point x="265" y="104" type="qcurve"/>
      <point x="301" y="105"/>
      <point x="362" y="135"/>
      <point x="405" y="184"/>
      <point x="429" y="250"/>
      <point x="429" y="287" type="qcurve"/>
      <point x="429" y="339"/>
      <point x="373" y="392"/>
      <point x="326" y="392" type="qcurve"/>
      <point x="290" y="392"/>
      <point x="230" y="361"/>
      <point x="186" y="310"/>
      <point x="162" y="244"/>
      <point x="162" y="208" type="qcurve"/>
      <point x="162" y="157"/>
      <point x="218" y="104"/>
    </contour>
  </outline>
</glyph>
<glyph name="uni021A" format="1">
  <advance width="612"/>
  <unicode hex="021A"/>
  <outline>
    <contour>
      <point x="112" y="-134" type="qcurve"/>
      <point x="112" y="-115"/>
      <point x="126" y="-82"/>
      <point x="151" y="-58"/>
      <point x="184" y="-44"/>
      <point x="203" y="-44" type="qcurve"/>
      <point x="221" y="-44"/>
      <point x="254" y="-58"/>
      <point x="279" y="-83"/>
      <point x="294" y="-116"/>
      <point x="294" y="-135" type="qcurve"/>
      <point x="294" y="-140"/>
      <point x="293" y="-150"/>
      <point x="292" y="-155" type="qcurve"/>
      <point x="268" y="-269" type="line"/>
      <point x="260" y="-304"/>
      <point x="206" y="-338"/>
      <point x="167" y="-338" type="qcurve"/>
      <point x="112" y="-338" type="line"/>
      <point x="112" y="-260" type="line"/>
      <point x="161" y="-260" type="line"/>
      <point x="178" y="-260"/>
      <point x="195" y="-251"/>
      <point x="197" y="-237" type="qcurve"/>
      <point x="200" y="-218" type="line"/>
      <point x="184" y="-218"/>
      <point x="152" y="-208"/>
      <point x="127" y="-187"/>
      <point x="112" y="-156"/>
    </contour>
    <component base="T"/>
  </outline>
</glyph>
<glyph name="uni0243" format="1">
  <advance width="612"/>
  <unicode hex="0243"/>
  <outline>
    <contour>
      <point x="27" y="258" type="line"/>
      <point x="100" y="258" type="line"/>
      <point x="167" y="574" type="line"/>
      <point x="101" y="574" type="line"/>
      <point x="101" y="700" type="line"/>
      <point x="400" y="700" type="line"/>
      <point x="450" y="700"/>
      <point x="524" y="675"/>
      <point x="572" y="631"/>
      <point x="595" y="571"/>
      <point x="595" y="537" type="qcurve"/>
      <point x="595" y="499"/>
      <point x="570" y="440"/>
      <point x="526" y="396"/>
      <point x="469" y="366"/>
      <point x="436" y="358" type="qcurve"/>
      <point x="436" y="340" type="line"/>
      <point x="476" y="328"/>
      <point x="526" y="266"/>
      <point x="526" y="210" type="qcurve"/>
      <point x="526" y="166"/>
      <point x="489" y="90"/>
      <point x="423" y="33"/>
      <point x="332" y="0"/>
      <point x="278" y="0" type="qcurve"/>
      <point x="6" y="0" type="line"/>
      <point x="6" y="126" type="line"/>
      <point x="72" y="126" type="line"/>
      <point x="78" y="156" type="line"/>
      <point x="27" y="156" type="line"/>
    </contour>
    <contour>
      <point x="263" y="414" type="line"/>
      <point x="349" y="414" type="line"/>
      <point x="401" y="414"/>
      <point x="462" y="461"/>
      <point x="462" y="507" type="qcurve"/>
      <point x="462" y="540"/>
      <point x="420" y="574"/>
      <point x="383" y="574" type="qcurve"/>
      <point x="297" y="574" type="line"/>
    </contour>
    <contour>
      <point x="229" y="258" type="line"/>
      <point x="288" y="258" type="line"/>
      <point x="288" y="156" type="line"/>
      <point x="208" y="156" type="line"/>
      <point x="202" y="126" type="line"/>
      <point x="288" y="126" type="line"/>
      <point x="337" y="126"/>
      <point x="402" y="174"/>
      <point x="402" y="219" type="qcurve"/>
      <point x="402" y="256"/>
      <point x="359" y="288"/>
      <point x="322" y="288" type="qcurve"/>
      <point x="236" y="288" type="line"/>
    </contour>
  </outline>
</glyph>
<glyph name="uni0265" format="1">
  <advance width="612"/>
  <unicode hex="0265"/>
  <outline>
    <contour>
      <point x="222" y="208" type="line"/>
      <point x="218" y="189"/>
      <point x="218" y="176" type="qcurve"/>
      <point x="218" y="140"/>
      <point x="260" y="100"/>
      <point x="296" y="100" type="qcurve"/>
      <point x="347" y="100"/>
      <point x="412" y="172"/>
      <point x="425" y="232" type="qcurve"/>
      <point x="481" y="496" type="line"/>
      <point x="607" y="496" type="line"/>
      <point x="459" y="-200" type="line"/>
      <point x="333" y="-200" type="line"/>
      <point x="390" y="68" type="line"/>
      <point x="372" y="68" type="line"/>
      <point x="321" y="-14"/>
      <point x="226" y="-14" type="qcurve"/>
      <point x="164" y="-14"/>
      <point x="85" y="60"/>
      <point x="85" y="131" type="qcurve"/>
      <point x="85" y="145"/>
      <point x="89" y="174"/>
      <point x="92" y="190" type="qcurve"/>
      <point x="132" y="377" type="line"/>
      <point x="122" y="384" type="line"/>
      <point x="58" y="340" type="line"/>
      <point x="-5" y="434" type="line"/>
      <point x="70" y="484" type="line"/>
      <point x="108" y="510"/>
      <point x="151" y="510" type="qcurve"/>
      <point x="173" y="510"/>
      <point x="213" y="495"/>
      <point x="243" y="467"/>
      <point x="261" y="427"/>
      <point x="261" y="402" type="qcurve"/>
      <point x="261" y="387"/>
      <point x="257" y="370" type="qcurve"/>
    </contour>
  </outline>
</glyph>
<glyph name="uni028C" format="1">
  <advance width="612"/>
  <unicode hex="028C"/>
  <outline>
    <contour>
      <point x="511" y="0" type="line"/>
      <point x="381" y="0" type="line"/>
      <point x="356" y="436" type="line"/>
      <point x="338" y="436" type="line"/>
      <point x="140" y="0" type="line"/>
      <point x="1" y="0" type="line"/>
      <point x="233" y="496" type="line"/>
      <point x="476" y="496" type="line"/>
    </contour>
  </outline>
</glyph>
<glyph name="circumflex" format="1">
  <advance width="612"/>
  <unicode hex="02C6"/>
  <outline>
    <contour>
      <point x="187" y="582" type="line"/>
      <point x="289" y="706" type="line"/>
      <point x="461" y="706" type="line"/>
      <point x="516" y="570" type="line"/>
      <point x="405" y="570" type="line"/>
      <point x="375" y="658" type="line"/>
      <point x="363" y="658" type="line"/>
      <point x="302" y="570" type="line"/>
      <point x="187" y="570" type="line"/>
    </contour>
  </outline>
</glyph>
<glyph name="caron" format="1">
  <advance width="612"/>
  <unicode hex="02C7"/>
  <outline>
    <contour>
      <point x="537" y="694" type="line"/>
      <point x="435" y="570" type="line"/>
      <point x="263" y="570" type="line"/>
      <point x="208" y="706" type="line"/>
      <point x="319" y="706" type="line"/>
      <point x="349" y="618" type="line"/>
      <point x="361" y="618" type="line"/>
      <point x="422" y="706" type="line"/>
      <point x="537" y="706" type="line"/>
    </contour>
  </outline>
</glyph>
<glyph name="breve" format="1">
  <advance width="612"/>
  <unicode hex="02D8"/>
  <outline>
    <contour>
      <point x="505" y="700" type="line"/>
      <point x="502" y="686" type="line"/>
      <point x="488" y="623"/>
      <point x="413" y="564"/>
      <point x="350" y="564" type="qcurve"/>
      <point x="299" y="564"/>
      <point x="236" y="621"/>
      <point x="236" y="664" type="qcurve"/>
      <point x="236" y="669"/>
      <point x="238" y="688"/>
      <point x="241" y="700" type="qcurve"/>
      <point x="331" y="700" type="line"/>
      <point x="329" y="692"/>
      <point x="329" y="683" type="qcurve"/>
      <point x="329" y="652"/>
      <point x="363" y="652" type="qcurve"/>
      <point x="406" y="652"/>
      <point x="414" y="694" type="qcurve"/>
      <point x="415" y="700" type="line"/>
    </contour>
  </outline>
</glyph>
<glyph name="dotaccent" format="1">
  <advance width="612"/>
  <unicode hex="02D9"/>
  <outline>
    <contour>
      <point x="453" y="643" type="qcurve"/>
      <point x="453" y="623"/>
      <point x="438" y="588"/>
      <point x="412" y="563"/>
      <point x="377" y="548"/>
      <point x="358" y="548" type="qcurve"/>
      <point x="338" y="548"/>
      <point x="304" y="563"/>
      <point x="278" y="588"/>
      <point x="263" y="623"/>
      <point x="263" y="643" type="qcurve"/>
      <point x="263" y="663"/>
      <point x="278" y="698"/>
      <point x="304" y="723"/>
      <point x="338" y="738"/>
      <point x="358" y="738" type="qcurve"/>
      <point x="377" y="738"/>
      <point x="412" y="723"/>
      <point x="438" y="698"/>
      <point x="453" y="663"/>
    </contour>
  </outline>
</glyph>
<glyph name="ring" format="1">
  <advance width="612"/>
  <unicode hex="02DA"/>
  <outline>
    <contour>
      <point x="198" y="676" type="qcurve"/>
      <point x="198" y="698"/>
      <point x="215" y="738"/>
      <point x="244" y="767"/>
      <point x="283" y="784"/>
      <point x="306" y="784" type="qcurve"/>
      <point x="328" y="784"/>
      <point x="368" y="767"/>
      <point x="397" y="738"/>
      <point x="414" y="698"/>
      <point x="414" y="676" type="qcurve"/>
      <point x="414" y="653"/>
      <point x="397" y="614"/>
      <point x="368" y="585"/>
      <point x="328" y="568"/>
      <point x="306" y="568" type="qcurve"/>
      <point x="283" y="568"/>
      <point x="244" y="585"/>
      <point x="215" y="614"/>
      <point x="198" y="653"/>
    </contour>
    <contour>
      <point x="276" y="676" type="qcurve"/>
      <point x="276" y="663"/>
      <point x="293" y="646"/>
      <point x="306" y="646" type="qcurve"/>
      <point x="319" y="646"/>
      <point x="336" y="663"/>
      <point x="336" y="676" type="qcurve"/>
      <point x="336" y="689"/>
      <point x="319" y="706"/>
      <point x="306" y="706" type="qcurve"/>
      <point x="293" y="706"/>
      <point x="276" y="689"/>
    </contour>
  </outline>
</glyph>
<glyph name="uni0309" format="1">
  <advance width="612"/>
  <unicode hex="0309"/>
  <outline>
    <contour>
      <point x="192" y="658" type="line"/>
      <point x="192" y="750" type="line"/>
      <point x="199" y="762" type="line"/>
      <point x="291" y="762" type="line"/>
      <point x="291" y="748"/>
      <point x="308" y="748" type="qcurve"/>
      <point x="333" y="748"/>
      <point x="333" y="772" type="qcurve"/>
      <point x="333" y="784"/>
      <point x="314" y="796"/>
      <point x="302" y="796" type="qcurve"/>
      <point x="277" y="796"/>
      <point x="251" y="782" type="qcurve"/>
      <point x="235" y="849" type="line"/>
      <point x="253" y="858"/>
      <point x="297" y="870"/>
      <point x="322" y="870" type="qcurve"/>
      <point x="363" y="870"/>
      <point x="419" y="826"/>
      <point x="419" y="781" type="qcurve"/>
      <point x="419" y="732"/>
      <point x="365" y="682"/>
      <point x="327" y="682" type="qcurve"/>
      <point x="308" y="682"/>
      <point x="280" y="695"/>
      <point x="274" y="704" type="qcurve"/>
      <point x="262" y="704" type="line"/>
      <point x="262" y="658" type="line"/>
    </contour>
  </outline>
</glyph>
<glyph name="uni032E" format="1">
  <advance width="612"/>
  <unicode hex="032E"/>
  <outline>
    <contour>
      <point x="440" y="-64" type="line"/>
      <point x="437" y="-78" type="line"/>
      <point x="423" y="-141"/>
      <point x="348" y="-200"/>
      <point x="285" y="-200" type="qcurve"/>
      <point x="234" y="-200"/>
      <point x="171" y="-143"/>
      <point x="171" y="-100" type="qcurve"/>
      <point x="171" y="-95"/>
      <point x="173" y="-76"/>
      <point x="176" y="-64" type="qcurve"/>
      <point x="266" y="-64" type="line"/>
      <point x="264" y="-72"/>
      <point x="264" y="-81" type="qcurve"/>
      <point x="264" y="-112"/>
      <point x="298" y="-112" type="qcurve"/>
      <point x="341" y="-112"/>
      <point x="349" y="-70" type="qcurve"/>
      <point x="350" y="-64" type="line"/>
    </contour>
  </outline>
</glyph>
<glyph name="uni0331" format="1">
  <advance width="612"/>
  <unicode hex="0331"/>
  <outline>
    <contour>
      <point x="453" y="-166" type="line"/>
      <point x="159" y="-166" type="line"/>
      <point x="159" y="-64" type="line"/>
      <point x="453" y="-64" type="line"/>
    </contour>
  </outline>
</glyph>
<glyph name="pi" format="1">
  <advance width="612"/>
  <unicode hex="03C0"/>
  <outline>
    <contour>
      <point x="75" y="0" type="line"/>
      <point x="155" y="376" type="line"/>
      <point x="89" y="376" type="line"/>
      <point x="89" y="496" type="line"/>
      <point x="603" y="496" type="line"/>
      <point x="603" y="376" type="line"/>
      <point x="513" y="376" type="line"/>
      <point x="465" y="150" type="line"/>
      <point x="464" y="145"/>
      <point x="464" y="141"/>
      <point x="464" y="139" type="qcurve"/>
      <point x="464" y="120"/>
      <point x="485" y="120" type="qcurve"/>
      <point x="523" y="120" type="line"/>
      <point x="523" y="0" type="line"/>
      <point x="410" y="0" type="line"/>
      <point x="372" y="0"/>
      <point x="327" y="42"/>
      <point x="327" y="80" type="qcurve"/>
      <point x="327" y="95"/>
      <point x="330" y="110" type="qcurve"/>
      <point x="387" y="376" type="line"/>
      <point x="281" y="376" type="line"/>
      <point x="201" y="0" type="line"/>
    </contour>
  </outline>
</glyph>
<glyph name="emdash" format="1">
  <advance width="612"/>
  <unicode hex="2014"/>
  <outline>
    <contour>
      <point x="0" y="332" type="line"/>
      <point x="600" y="332" type="line"/>
      <point x="600" y="218" type="line"/>
      <point x="0" y="218" type="line"/>
    </contour>
  </outline>
</glyph>
<glyph name="quotesinglbase" format="1">
  <advance width="612"/>
  <unicode hex="201A"/>
  <outline>
    <contour>
      <point x="182" y="95" type="qcurve"/>
      <point x="182" y="115"/>
      <point x="197" y="150"/>
      <point x="223" y="175"/>
      <point x="257" y="189"/>
      <point x="277" y="189" type="qcurve"/>
      <point x="296" y="189"/>
      <point x="331" y="174"/>
      <point x="357" y="149"/>
      <point x="372" y="114"/>
      <point x="372" y="94" type="qcurve"/>
      <point x="372" y="89"/>
      <point x="371" y="79"/>
      <point x="370" y="74" type="qcurve"/>
      <point x="345" y="-44" type="line"/>
      <point x="337" y="-82"/>
      <point x="281" y="-117"/>
      <point x="240" y="-117" type="qcurve"/>
      <point x="164" y="-117" type="line"/>
      <point x="164" y="-39" type="line"/>
      <point x="234" y="-39" type="line"/>
      <point x="265" y="-39"/>
      <point x="271" y="-11" type="qcurve"/>
      <point x="274" y="5" type="line"/>
      <point x="257" y="5"/>
      <point x="224" y="16"/>
      <point x="198" y="38"/>
      <point x="182" y="72"/>
    </contour>
  </outline>
</glyph>
<glyph name="quotedblleft" format="1">
  <advance width="612"/>
  <unicode hex="201C"/>
  <outline>
    <contour>
      <point x="548" y="502" type="qcurve"/>
      <point x="548" y="482"/>
      <point x="533" y="447"/>
      <point x="507" y="422"/>
      <point x="472" y="408"/>
      <point x="453" y="408" type="qcurve"/>
      <point x="433" y="408"/>
      <point x="399" y="423"/>
      <point x="373" y="448"/>
      <point x="358" y="483"/>
      <point x="358" y="503" type="qcurve"/>
      <point x="358" y="508"/>
      <point x="359" y="518"/>
      <point x="360" y="523" type="qcurve"/>
      <point x="385" y="641" type="line"/>
      <point x="393" y="679"/>
      <point x="449" y="714"/>
      <point x="490" y="714" type="qcurve"/>
      <point x="566" y="714" type="line"/>
      <point x="566" y="636" type="line"/>
      <point x="496" y="636" type="line"/>
      <point x="465" y="636"/>
      <point x="459" y="608" type="qcurve"/>
      <point x="456" y="592" type="line"/>
      <point x="473" y="592"/>
      <point x="506" y="581"/>
      <point x="532" y="559"/>
      <point x="548" y="525"/>
    </contour>
    <contour>
      <point x="322" y="502" type="qcurve"/>
      <point x="322" y="482"/>
      <point x="307" y="447"/>
      <point x="281" y="422"/>
      <point x="246" y="408"/>
      <point x="227" y="408" type="qcurve"/>
      <point x="207" y="408"/>
      <point x="173" y="423"/>
      <point x="147" y="448"/>
      <point x="132" y="483"/>
      <point x="132" y="503" type="qcurve"/>
      <point x="132" y="508"/>
      <point x="133" y="518"/>
      <point x="134" y="523" type="qcurve"/>
      <point x="159" y="641" type="line"/>
      <point x="167" y="679"/>
      <point x="223" y="714"/>
      <point x="264" y="714" type="qcurve"/>
      <point x="340" y="714" type="line"/>
      <point x="340" y="636" type="line"/>
      <point x="270" y="636" type="line"/>
      <point x="239" y="636"/>
      <point x="233" y="608" type="qcurve"/>
      <point x="230" y="592" type="line"/>
      <point x="247" y="592"/>
      <point x="280" y="581"/>
      <point x="306" y="559"/>
      <point x="322" y="525"/>
    </contour>
  </outline>
</glyph>
<glyph name="uni2032" format="1">
  <advance width="612"/>
  <unicode hex="2032"/>
  <outline>
    <contour>
      <point x="302" y="554" type="line"/>
      <point x="290" y="568"/>
      <point x="275" y="601"/>
      <point x="275" y="620" type="qcurve"/>
      <point x="275" y="639"/>
      <point x="290" y="674"/>
      <point x="316" y="699"/>
      <point x="350" y="714"/>
      <point x="370" y="714" type="qcurve"/>
      <point x="389" y="714"/>
      <point x="424" y="699"/>
      <point x="449" y="674"/>
      <point x="464" y="639"/>
      <point x="464" y="620" type="qcurve"/>
      <point x="464" y="582"/>
      <point x="413" y="527"/>
      <point x="372" y="524" type="qcurve"/>
      <point x="324" y="410" type="line"/>
      <point x="252" y="439" type="line"/>
    </contour>
  </outline>
</glyph>
<glyph name="uni207D" format="1">
  <advance width="612"/>
  <unicode hex="207D"/>
  <outline>
    <contour>
      <point x="416" y="375" type="line"/>
      <point x="416" y="303" type="line"/>
      <point x="368" y="303" type="line"/>
      <point x="337" y="303"/>
      <point x="284" y="321"/>
      <point x="245" y="357"/>
      <point x="222" y="410"/>
      <point x="222" y="446" type="qcurve"/>
      <point x="222" y="459"/>
      <point x="226" y="487"/>
      <point x="229" y="502" type="qcurve"/>
      <point x="256" y="626" type="line"/>
      <point x="276" y="721"/>
      <point x="389" y="809"/>
      <point x="472" y="809" type="qcurve"/>
      <point x="508" y="809" type="line"/>
      <point x="508" y="737" type="line"/>
      <point x="461" y="737" type="line"/>
      <point x="407" y="737"/>
      <point x="338" y="677"/>
      <point x="327" y="624" type="qcurve"/>
      <point x="298" y="488" type="line"/>
      <point x="295" y="473"/>
      <point x="295" y="459" type="qcurve"/>
      <point x="295" y="421"/>
      <point x="341" y="375"/>
      <point x="384" y="375" type="qcurve"/>
    </contour>
  </outline>
</glyph>
<glyph name="uni2081" format="1">
  <advance width="612"/>
  <unicode hex="2081"/>
  <outline>
    <contour>
      <point x="218" y="-128" type="line"/>
      <point x="246" y="4" type="line"/>
      <point x="240" y="4" type="line"/>
      <point x="164" y="-52" type="line"/>
      <point x="158" y="-52" type="line"/>
      <point x="158" y="30" type="line"/>
      <point x="240" y="88" type="line"/>
      <point x="342" y="88" type="line"/>
      <point x="296" y="-128" type="line"/>
      <point x="360" y="-128" type="line"/>
      <point x="360" y="-200" type="line"/>
      <point x="132" y="-200" type="line"/>
      <point x="132" y="-128" type="line"/>
    </contour>
  </outline>
</glyph>
<glyph name="uni2082" format="1">
  <advance width="612"/>
  <unicode hex="2082"/>
  <outline>
    <contour>
      <point x="335" y="-128" type="line"/>
      <point x="335" y="-200" type="line"/>
      <point x="114" y="-200" type="line"/>
      <point x="128" y="-134" type="line"/>
      <point x="138" y="-89"/>
      <point x="191" y="-49"/>
      <point x="237" y="-38" type="qcurve"/>
      <point x="267" y="-31"/>
      <point x="295" y="-17"/>
      <point x="295" y="-1" type="qcurve"/>
      <point x="295" y="10"/>
      <point x="279" y="22"/>
      <point x="268" y="22" type="qcurve"/>
      <point x="253" y="22"/>
      <point x="234" y="4"/>
      <point x="232" y="-14" type="qcurve"/>
      <point x="154" y="-14" type="line"/>
      <point x="155" y="-8" type="line"/>
      <point x="163" y="41"/>
      <point x="224" y="94"/>
      <point x="276" y="94" type="qcurve"/>
      <point x="321" y="94"/>
      <point x="376" y="48"/>
      <point x="376" y="6" type="qcurve"/>
      <point x="376" y="-68"/>
      <point x="282" y="-92" type="qcurve"/>
      <point x="241" y="-103"/>
      <point x="210" y="-116"/>
      <point x="208" y="-128" type="qcurve"/>
    </contour>
  </outline>
</glyph>
<glyph name="uni2083" format="1">
  <advance width="612"/>
  <unicode hex="2083"/>
  <outline>
    <contour>
      <point x="209" y="-100" type="line"/>
      <point x="206" y="-117"/>
      <point x="224" y="-134"/>
      <point x="239" y="-134" type="qcurve"/>
      <point x="257" y="-134"/>
      <point x="273" y="-115"/>
      <point x="273" y="-102" type="qcurve"/>
      <point x="273" y="-91"/>
      <point x="257" y="-76"/>
      <point x="243" y="-76" type="qcurve"/>
      <point x="232" y="-76" type="line"/>
      <point x="232" y="-4" type="line"/>
      <point x="283" y="9" type="line"/>
      <point x="283" y="18" type="line"/>
      <point x="175" y="18" type="line"/>
      <point x="175" y="88" type="line"/>
      <point x="355" y="88" type="line"/>
      <point x="355" y="-14" type="line"/>
      <point x="303" y="-27" type="line"/>
      <point x="303" y="-36" type="line"/>
      <point x="324" y="-41"/>
      <point x="350" y="-74"/>
      <point x="350" y="-100" type="qcurve"/>
      <point x="350" y="-147"/>
      <point x="288" y="-206"/>
      <point x="234" y="-206" type="qcurve"/>
      <point x="185" y="-206"/>
      <point x="132" y="-158"/>
      <point x="132" y="-120" type="qcurve"/>
      <point x="132" y="-110"/>
      <point x="134" y="-100" type="qcurve"/>
    </contour>
  </outline>
</glyph>
<glyph name="uni2086" format="1">
  <advance width="612"/>
  <unicode hex="2086"/>
  <outline>
    <contour>
      <point x="291" y="2" type="line"/>
      <point x="291" y="24"/>
      <point x="269" y="24" type="qcurve"/>
      <point x="244" y="24"/>
      <point x="238" y="-2" type="qcurve"/>
      <point x="229" y="-42" type="line"/>
      <point x="238" y="-42" type="line"/>
      <point x="246" y="-30"/>
      <point x="273" y="-18"/>
      <point x="287" y="-18" type="qcurve"/>
      <point x="318" y="-18"/>
      <point x="353" y="-59"/>
      <point x="353" y="-91" type="qcurve"/>
      <point x="353" y="-145"/>
      <point x="285" y="-206"/>
      <point x="231" y="-206" type="qcurve"/>
      <point x="189" y="-206"/>
      <point x="139" y="-159"/>
      <point x="139" y="-117" type="qcurve"/>
      <point x="139" y="-103"/>
      <point x="142" y="-88" type="qcurve"/>
      <point x="159" y="-8" type="line"/>
      <point x="170" y="42"/>
      <point x="232" y="94"/>
      <point x="280" y="94" type="qcurve"/>
      <point x="322" y="94"/>
      <point x="366" y="48"/>
      <point x="366" y="16" type="qcurve"/>
      <point x="366" y="14"/>
      <point x="366" y="10"/>
      <point x="365" y="2" type="qcurve"/>
    </contour>
    <contour>
      <point x="247" y="-90" type="qcurve"/>
      <point x="232" y="-90"/>
      <point x="214" y="-104"/>
      <point x="214" y="-115" type="qcurve"/>
      <point x="214" y="-125"/>
      <point x="229" y="-134"/>
      <point x="240" y="-134" type="qcurve"/>
      <point x="251" y="-134"/>
      <point x="271" y="-123"/>
      <point x="271" y="-109" type="qcurve"/>
      <point x="271" y="-100"/>
      <point x="258" y="-90"/>
    </contour>
  </outline>
</glyph>
<glyph name="uni2087" format="1">
  <advance width="612"/>
  <unicode hex="2087"/>
  <outline>
    <contour>
      <point x="173" y="88" type="line"/>
      <point x="369" y="88" type="line"/>
      <point x="369" y="-10" type="line"/>
      <point x="249" y="-149" type="line"/>
      <point x="240" y="-159"/>
      <point x="225" y="-179"/>
      <point x="223" y="-193" type="qcurve"/>
      <point x="222" y="-200" type="line"/>
      <point x="138" y="-200" type="line"/>
      <point x="141" y="-185" type="line"/>
      <point x="144" y="-169"/>
      <point x="159" y="-144"/>
      <point x="176" y="-125" type="qcurve"/>
      <point x="295" y="8" type="line"/>
      <point x="295" y="16" type="line"/>
      <point x="173" y="16" type="line"/>
    </contour>
  </outline>
</glyph>
<glyph name="uni2089" format="1">
  <advance width="612"/>
  <unicode hex="2089"/>
  <outline>
    <contour>
      <point x="211" y="-114" type="line"/>
      <point x="211" y="-136"/>
      <point x="233" y="-136" type="qcurve"/>
      <point x="247" y="-136"/>
      <point x="261" y="-122"/>
      <point x="264" y="-110" type="qcurve"/>
      <point x="273" y="-70" type="line"/>
      <point x="264" y="-70" type="line"/>
      <point x="256" y="-82"/>
      <point x="229" y="-94"/>
      <point x="215" y="-94" type="qcurve"/>
      <point x="184" y="-94"/>
      <point x="149" y="-53"/>
      <point x="149" y="-21" type="qcurve"/>
      <point x="149" y="33"/>
      <point x="217" y="94"/>
      <point x="271" y="94" type="qcurve"/>
      <point x="313" y="94"/>
      <point x="363" y="47"/>
      <point x="363" y="5" type="qcurve"/>
      <point x="363" y="-9"/>
      <point x="360" y="-24" type="qcurve"/>
      <point x="343" y="-104" type="line"/>
      <point x="332" y="-154"/>
      <point x="270" y="-206"/>
      <point x="222" y="-206" type="qcurve"/>
      <point x="180" y="-206"/>
      <point x="136" y="-160"/>
      <point x="136" y="-128" type="qcurve"/>
      <point x="136" y="-126"/>
      <point x="136" y="-122"/>
      <point x="137" y="-114" type="qcurve"/>
    </contour>
    <contour>
      <point x="255" y="-22" type="qcurve"/>
      <point x="270" y="-22"/>
      <point x="288" y="-8"/>
      <point x="288" y="3" type="qcurve"/>
      <point x="288" y="13"/>
      <point x="273" y="22"/>
      <point x="262" y="22" type="qcurve"/>
      <point x="251" y="22"/>
      <point x="231" y="11"/>
      <point x="231" y="-3" type="qcurve"/>
      <point x="231" y="-12"/>
      <point x="244" y="-22"/>
    </contour>
  </outline>
</glyph>
<glyph name="uni2094" format="1">
  <advance width="612"/>
  <unicode hex="2094"/>
  <outline>
    <contour>
      <point x="315" y="-34" type="line"/>
      <point x="316" y="-29"/>
      <point x="316" y="-23" type="qcurve"/>
      <point x="316" y="-1"/>
      <point x="288" y="22"/>
      <point x="266" y="22" type="qcurve"/>
      <point x="243" y="22"/>
      <point x="212" y="2"/>
      <point x="201" y="-12" type="qcurve"/>
      <point x="149" y="30" type="line"/>
      <point x="169" y="59"/>
      <point x="234" y="94"/>
      <point x="279" y="94" type="qcurve"/>
      <point x="327" y="94"/>
      <point x="393" y="36"/>
      <point x="393" y="-14" type="qcurve"/>
      <point x="393" y="-52"/>
      <point x="374" y="-122"/>
      <point x="332" y="-175"/>
      <point x="267" y="-206"/>
      <point x="221" y="-206" type="qcurve"/>
      <point x="190" y="-206"/>
      <point x="148" y="-187"/>
      <point x="121" y="-156"/>
      <point x="109" y="-118"/>
      <point x="109" y="-99" type="qcurve"/>
      <point x="109" y="-92"/>
      <point x="109" y="-83"/>
      <point x="111" y="-74" type="qcurve"/>
      <point x="119" y="-34" type="line"/>
    </contour>
    <contour>
      <point x="233" y="-136" type="qcurve"/>
      <point x="263" y="-136"/>
      <point x="295" y="-113"/>
      <point x="301" y="-96" type="qcurve"/>
      <point x="184" y="-96" type="line"/>
      <point x="184" y="-116"/>
      <point x="204" y="-136"/>
    </contour>
  </outline>
</glyph>
<glyph name="uni20A1" format="1">
  <advance width="612"/>
  <unicode hex="20A1"/>
  <outline>
    <contour>
      <point x="114" y="134" type="line"/>
      <point x="81" y="160"/>
      <point x="42" y="240"/>
      <point x="42" y="292" type="qcurve"/>
      <point x="42" y="357"/>
      <point x="81" y="470"/>
      <point x="154" y="554"/>
      <point x="260" y="606"/>
      <point x="327" y="611" type="qcurve"/>
      <point x="359" y="682" type="line"/>
      <point x="425" y="652" type="line"/>
      <point x="405" y="608" type="line"/>
      <point x="414" y="606"/>
      <point x="431" y="602"/>
      <point x="439" y="600" type="qcurve"/>
      <point x="476" y="682" type="line"/>
      <point x="541" y="653" type="line"/>
      <point x="503" y="568" type="line"/>
      <point x="575" y="512"/>
      <point x="575" y="410" type="qcurve"/>
      <point x="447" y="385" type="line"/>
      <point x="447" y="409"/>
      <point x="441" y="429" type="qcurve"/>
      <point x="347" y="220" type="line"/>
      <point x="377" y="232"/>
      <point x="417" y="281"/>
      <point x="429" y="315" type="qcurve"/>
      <point x="546" y="284" type="line"/>
      <point x="520" y="201"/>
      <point x="394" y="97"/>
      <point x="289" y="89" type="qcurve"/>
      <point x="257" y="18" type="line"/>
      <point x="191" y="48" type="line"/>
      <point x="210" y="92" type="line"/>
      <point x="194" y="95"/>
      <point x="177" y="100" type="qcurve"/>
      <point x="140" y="18" type="line"/>
      <point x="75" y="47" type="line"/>
    </contour>
    <contour>
      <point x="229" y="216" type="line"/>
      <point x="245" y="209"/>
      <point x="263" y="208" type="qcurve"/>
      <point x="387" y="485" type="line"/>
      <point x="372" y="490"/>
      <point x="353" y="491" type="qcurve"/>
    </contour>
    <contour>
      <point x="172" y="309" type="qcurve"/>
      <point x="172" y="289"/>
      <point x="176" y="274" type="qcurve"/>
      <point x="266" y="475" type="line"/>
      <point x="223" y="453"/>
      <point x="172" y="365"/>
    </contour>
  </outline>
</glyph>
<glyph name="uni20A4" format="1">
  <advance width="612"/>
  <unicode hex="20A4"/>
  <outline>
    <contour>
      <point x="112" y="428" type="line"/>
      <point x="179" y="428" type="line"/>
      <point x="181" y="438" type="line"/>
      <point x="201" y="533"/>
      <point x="302" y="612"/>
      <point x="383" y="612" type="qcurve"/>
      <point x="447" y="612"/>
      <point x="527" y="537"/>
      <point x="527" y="473" type="qcurve"/>
      <point x="527" y="458"/>
      <point x="524" y="440" type="qcurve"/>
      <point x="522" y="428" type="line"/>
      <point x="409" y="428" type="line"/>
      <point x="414" y="450"/>
      <point x="414" y="456" type="qcurve"/>
      <point x="414" y="474"/>
      <point x="391" y="504"/>
      <point x="365" y="504" type="qcurve"/>
      <point x="335" y="504"/>
      <point x="302" y="469"/>
      <point x="296" y="442" type="qcurve"/>
      <point x="293" y="428" type="line"/>
      <point x="355" y="428" type="line"/>
      <point x="355" y="350" type="line"/>
      <point x="276" y="350" type="line"/>
      <point x="270" y="320" type="line"/>
      <point x="332" y="320" type="line"/>
      <point x="332" y="242" type="line"/>
      <point x="253" y="242" type="line"/>
      <point x="246" y="210" type="line"/>
      <point x="451" y="210" type="line"/>
      <point x="451" y="102" type="line"/>
      <point x="59" y="102" type="line"/>
      <point x="59" y="210" type="line"/>
      <point x="132" y="210" type="line"/>
      <point x="139" y="242" type="line"/>
      <point x="89" y="242" type="line"/>
      <point x="89" y="320" type="line"/>
      <point x="155" y="320" type="line"/>
      <point x="162" y="350" type="line"/>
      <point x="112" y="350" type="line"/>
    </contour>
  </outline>
</glyph>
<glyph name="uni20A6" format="1">
  <advance width="612"/>
  <unicode hex="20A6"/>
  <outline>
    <contour>
      <point x="66" y="459" type="line"/>
      <point x="137" y="459" type="line"/>
      <point x="166" y="598" type="line"/>
      <point x="374" y="598" type="line"/>
      <point x="361" y="459" type="line"/>
      <point x="413" y="459" type="line"/>
      <point x="442" y="598" type="line"/>
      <point x="550" y="598" type="line"/>
      <point x="521" y="459" type="line"/>
      <point x="570" y="459" type="line"/>
      <point x="570" y="363" type="line"/>
      <point x="500" y="363" type="line"/>
      <point x="494" y="333" type="line"/>
      <point x="543" y="333" type="line"/>
      <point x="543" y="237" type="line"/>
      <point x="473" y="237" type="line"/>
      <point x="445" y="102" type="line"/>
      <point x="237" y="102" type="line"/>
      <point x="249" y="237" type="line"/>
      <point x="197" y="237" type="line"/>
      <point x="169" y="102" type="line"/>
      <point x="61" y="102" type="line"/>
      <point x="89" y="237" type="line"/>
      <point x="39" y="237" type="line"/>
      <point x="39" y="333" type="line"/>
      <point x="110" y="333" type="line"/>
      <point x="116" y="363" type="line"/>
      <point x="66" y="363" type="line"/>
    </contour>
    <contour>
      <point x="245" y="459" type="line"/>
      <point x="268" y="459" type="line"/>
      <point x="276" y="538" type="line"/>
      <point x="261" y="538" type="line"/>
    </contour>
    <contour>
      <point x="350" y="162" type="line"/>
      <point x="365" y="237" type="line"/>
      <point x="341" y="237" type="line"/>
      <point x="332" y="162" type="line"/>
    </contour>
    <contour>
      <point x="218" y="333" type="line"/>
      <point x="257" y="333" type="line"/>
      <point x="260" y="363" type="line"/>
      <point x="224" y="363" type="line"/>
    </contour>
    <contour>
      <point x="350" y="333" type="line"/>
      <point x="386" y="333" type="line"/>
      <point x="392" y="363" type="line"/>
      <point x="353" y="363" type="line"/>
    </contour>
  </outline>
</glyph>
<glyph name="uni20A7" format="1">
  <advance width="612"/>
  <unicode hex="20A7"/>
  <outline>
    <contour>
      <point x="83" y="467" type="line"/>
      <point x="155" y="467" type="line"/>
      <point x="183" y="598" type="line"/>
      <point x="365" y="598" type="line"/>
      <point x="398" y="598"/>
      <point x="450" y="577"/>
      <point x="486" y="541"/>
      <point x="505" y="494"/>
      <point x="505" y="467" type="qcurve"/>
      <point x="555" y="467" type="line"/>
      <point x="555" y="383" type="line"/>
      <point x="491" y="383" type="line"/>
      <point x="471" y="325"/>
      <point x="377" y="252"/>
      <point x="306" y="252" type="qcurve"/>
      <point x="224" y="252" type="line"/>
      <point x="192" y="102" type="line"/>
      <point x="78" y="102" type="line"/>
      <point x="137" y="383" type="line"/>
      <point x="83" y="383" type="line"/>
    </contour>
    <contour>
      <point x="269" y="467" type="line"/>
      <point x="380" y="467" type="line"/>
      <point x="368" y="490"/>
      <point x="336" y="490" type="qcurve"/>
      <point x="274" y="490" type="line"/>
    </contour>
    <contour>
      <point x="309" y="360" type="line"/>
      <point x="324" y="360"/>
      <point x="351" y="372"/>
      <point x="362" y="383" type="qcurve"/>
      <point x="252" y="383" type="line"/>
      <point x="247" y="360" type="line"/>
    </contour>
  </outline>
</glyph>
<glyph name="Euro" format="1">
  <advance width="612"/>
  <unicode hex="20AC"/>
  <outline>
    <contour>
      <point x="44" y="459" type="line"/>
      <point x="111" y="459" type="line"/>
      <point x="148" y="526"/>
      <point x="282" y="612"/>
      <point x="373" y="612" type="qcurve"/>
      <point x="428" y="612"/>
      <point x="511" y="584"/>
      <point x="566" y="533"/>
      <point x="593" y="464"/>
      <point x="593" y="422" type="qcurve"/>
      <point x="475" y="396" type="line"/>
      <point x="475" y="414"/>
      <point x="465" y="452"/>
      <point x="439" y="484"/>
      <point x="396" y="504"/>
      <point x="362" y="504" type="qcurve"/>
      <point x="326" y="504"/>
      <point x="268" y="479"/>
      <point x="246" y="459" type="qcurve"/>
      <point x="352" y="459" type="line"/>
      <point x="352" y="363" type="line"/>
      <point x="193" y="363" type="line"/>
      <point x="191" y="355"/>
      <point x="189" y="341"/>
      <point x="188" y="333" type="qcurve"/>
      <point x="325" y="333" type="line"/>
      <point x="325" y="237" type="line"/>
      <point x="211" y="237" type="line"/>
      <point x="227" y="216"/>
      <point x="276" y="196"/>
      <point x="307" y="196" type="qcurve"/>
      <point x="338" y="196"/>
      <point x="386" y="215"/>
      <point x="423" y="245"/>
      <point x="449" y="284"/>
      <point x="458" y="304" type="qcurve"/>
      <point x="564" y="278" type="line"/>
      <point x="535" y="186"/>
      <point x="399" y="88"/>
      <point x="307" y="88" type="qcurve"/>
      <point x="223" y="88"/>
      <point x="99" y="161"/>
      <point x="79" y="237" type="qcurve"/>
      <point x="17" y="237" type="line"/>
      <point x="17" y="333" type="line"/>
      <point x="72" y="333" type="line"/>
      <point x="73" y="341"/>
      <point x="75" y="355"/>
      <point x="77" y="363" type="qcurve"/>
      <point x="44" y="363" type="line"/>
    </contour>
  </outline>
</glyph>
<glyph name="uni20B5" format="1">
  <advance width="612"/>
  <unicode hex="20B5"/>
  <outline>
    <contour>
      <point x="404" y="606" type="line"/>
      <point x="458" y="594"/>
      <point x="512" y="520"/>
      <point x="512" y="469" type="qcurve"/>
      <point x="512" y="447"/>
      <point x="508" y="427" type="qcurve"/>
      <point x="505" y="412" type="line"/>
      <point x="391" y="412" type="line"/>
      <point x="394" y="426" type="line"/>
      <point x="395" y="430"/>
      <point x="396" y="441"/>
      <point x="396" y="449" type="qcurve"/>
      <point x="396" y="477"/>
      <point x="380" y="492" type="qcurve"/>
      <point x="319" y="205" type="line"/>
      <point x="336" y="214"/>
      <point x="356" y="249"/>
      <point x="361" y="274" type="qcurve"/>
      <point x="364" y="288" type="line"/>
      <point x="478" y="288" type="line"/>
      <point x="475" y="274" type="line"/>
      <point x="458" y="193"/>
      <point x="375" y="100"/>
      <point x="294" y="90" type="qcurve"/>
      <point x="281" y="28" type="line"/>
      <point x="197" y="28" type="line"/>
      <point x="210" y="92" type="line"/>
      <point x="162" y="103"/>
      <point x="102" y="175"/>
      <point x="102" y="238" type="qcurve"/>
      <point x="102" y="265"/>
      <point x="109" y="300" type="qcurve"/>
      <point x="136" y="427" type="line"/>
      <point x="152" y="502"/>
      <point x="244" y="600"/>
      <point x="321" y="610" type="qcurve"/>
      <point x="334" y="672" type="line"/>
      <point x="418" y="672" type="line"/>
    </contour>
    <contour>
      <point x="219" y="281" type="line"/>
      <point x="215" y="264"/>
      <point x="215" y="250" type="qcurve"/>
      <point x="215" y="218"/>
      <point x="235" y="206" type="qcurve"/>
      <point x="296" y="494" type="line"/>
      <point x="260" y="475"/>
      <point x="248" y="420" type="qcurve"/>
    </contour>
  </outline>
</glyph>
<glyph name="uni20B9" format="1">
  <advance width="612"/>
  <unicode hex="20B9"/>
  <outline>
    <contour>
      <point x="132" y="485" type="line"/>
      <point x="342" y="485" type="line"/>
      <point x="332" y="514"/>
      <point x="289" y="514" type="qcurve"/>
      <point x="156" y="514" type="line"/>
      <point x="156" y="598" type="line"/>
      <point x="540" y="598" type="line"/>
      <point x="540" y="514" type="line"/>
      <point x="450" y="514" type="line"/>
      <point x="450" y="508" type="line"/>
      <point x="459" y="499"/>
      <point x="459" y="485" type="qcurve"/>
      <point x="516" y="485" type="line"/>
      <point x="516" y="401" type="line"/>
      <point x="449" y="401" type="line"/>
      <point x="434" y="369"/>
      <point x="389" y="338"/>
      <point x="365" y="328" type="qcurve"/>
      <point x="365" y="316" type="line"/>
      <point x="387" y="314"/>
      <point x="407" y="286"/>
      <point x="407" y="268" type="qcurve"/>
      <point x="407" y="264"/>
      <point x="406" y="257"/>
      <point x="405" y="252" type="qcurve"/>
      <point x="373" y="102" type="line"/>
      <point x="265" y="102" type="line"/>
      <point x="292" y="232" type="line"/>
      <point x="293" y="237"/>
      <point x="293" y="240"/>
      <point x="293" y="243" type="qcurve"/>
      <point x="293" y="255"/>
      <point x="279" y="270"/>
      <point x="262" y="270" type="qcurve"/>
      <point x="106" y="270" type="line"/>
      <point x="106" y="372" type="line"/>
      <point x="263" y="372" type="line"/>
      <point x="283" y="372"/>
      <point x="316" y="387"/>
      <point x="327" y="401" type="qcurve"/>
      <point x="132" y="401" type="line"/>
    </contour>
  </outline>
</glyph>
<glyph name="uni212E" format="1">
  <advance width="612"/>
  <unicode hex="212E"/>
  <outline>
    <contour>
      <point x="191" y="309" type="line"/>
      <point x="191" y="256" type="line"/>
      <point x="204" y="224"/>
      <point x="268" y="186"/>
      <point x="312" y="186" type="qcurve"/>
      <point x="360" y="186"/>
      <point x="422" y="223"/>
      <point x="436" y="253" type="qcurve"/>
      <point x="525" y="204" type="line"/>
      <point x="516" y="185"/>
      <point x="484" y="144"/>
      <point x="433" y="110"/>
      <point x="360" y="88"/>
      <point x="311" y="88" type="qcurve"/>
      <point x="255" y="88"/>
      <point x="163" y="124"/>
      <point x="96" y="192"/>
      <point x="59" y="290"/>
      <point x="59" y="352" type="qcurve"/>
      <point x="59" y="358" type="line"/>
      <point x="59" y="415"/>
      <point x="97" y="509"/>
      <point x="164" y="575"/>
      <point x="254" y="612"/>
      <point x="306" y="612" type="qcurve"/>
      <point x="369" y="612"/>
      <point x="462" y="567"/>
      <point x="523" y="498"/>
      <point x="553" y="415"/>
      <point x="553" y="376" type="qcurve"/>
      <point x="553" y="309" type="line"/>
    </contour>
    <contour>
      <point x="305" y="516" type="qcurve"/>
      <point x="264" y="516"/>
      <point x="205" y="481"/>
      <point x="191" y="454" type="qcurve"/>
      <point x="191" y="405" type="line"/>
      <point x="421" y="405" type="line"/>
      <point x="421" y="454" type="line"/>
      <point x="408" y="481"/>
      <point x="348" y="516"/>
    </contour>
  </outline>
</glyph>
<glyph name="uni2197" format="1">
  <advance width="612"/>
  <unicode hex="2197"/>
  <outline>
    <contour>
      <point x="420" y="620" type="line"/>
      <point x="561" y="479" type="line"/>
      <point x="561" y="257" type="line"/>
      <point x="446" y="257" type="line"/>
      <point x="446" y="395" type="line"/>
      <point x="475" y="463" type="line"/>
      <point x="458" y="470" type="line"/>
      <point x="431" y="409" type="line"/>
      <point x="132" y="110" type="line"/>
      <point x="51" y="191" type="line"/>
      <point x="350" y="490" type="line"/>
      <point x="411" y="517" type="line"/>
      <point x="404" y="534" type="line"/>
      <point x="336" y="505" type="line"/>
      <point x="198" y="505" type="line"/>
      <point x="198" y="620" type="line"/>
    </contour>
  </outline>
</glyph>
<glyph name="uni2215" format="1">
  <advance width="612"/>
  <unicode hex="2215"/>
  <outline>
    <contour>
      <point x="568" y="825" type="line"/>
      <point x="658" y="761" type="line"/>
      <point x="44" y="-125" type="line"/>
      <point x="-44" y="-58" type="line"/>
    </contour>
  </outline>
</glyph>
<glyph name="infinity" format="1">
  <advance width="612"/>
  <unicode hex="221E"/>
  <outline>
    <contour>
      <point x="218" y="513" type="qcurve"/>
      <point x="253" y="513"/>
      <point x="306" y="488"/>
      <point x="321" y="465" type="qcurve"/>
      <point x="339" y="465" type="line"/>
      <point x="383" y="513"/>
      <point x="454" y="513" type="qcurve"/>
      <point x="511" y="513"/>
      <point x="582" y="440"/>
      <point x="582" y="384" type="qcurve"/>
      <point x="582" y="337"/>
      <point x="552" y="263"/>
      <point x="501" y="213"/>
      <point x="435" y="187"/>
      <point x="398" y="187" type="qcurve"/>
      <point x="359" y="187"/>
      <point x="307" y="212"/>
      <point x="290" y="235" type="qcurve"/>
      <point x="272" y="235" type="line"/>
      <point x="252" y="210"/>
      <point x="194" y="187"/>
      <point x="157" y="187" type="qcurve"/>
      <point x="130" y="187"/>
      <point x="84" y="207"/>
      <point x="50" y="243"/>
      <point x="30" y="293"/>
      <point x="30" y="324" type="qcurve"/>
      <point x="30" y="365"/>
      <point x="59" y="435"/>
      <point x="110" y="485"/>
      <point x="178" y="513"/>
    </contour>
    <contour>
      <point x="359" y="340" type="qcurve"/>
      <point x="359" y="320"/>
      <point x="385" y="295"/>
      <point x="406" y="295" type="qcurve"/>
      <point x="436" y="295"/>
      <point x="471" y="333"/>
      <point x="471" y="360" type="qcurve"/>
      <point x="471" y="380"/>
      <point x="445" y="405"/>
      <point x="424" y="405" type="qcurve"/>
      <point x="395" y="405"/>
      <point x="359" y="367"/>
    </contour>
    <contour>
      <point x="141" y="340" type="qcurve"/>
      <point x="141" y="320"/>
      <point x="167" y="295"/>
      <point x="188" y="295" type="qcurve"/>
      <point x="218" y="295"/>
      <point x="253" y="333"/>
      <point x="253" y="360" type="qcurve"/>
      <point x="253" y="380"/>
      <point x="227" y="405"/>
      <point x="206" y="405" type="qcurve"/>
      <point x="177" y="405"/>
      <point x="141" y="367"/>
    </contour>
  </outline>
</glyph>
<glyph name="integral" format="1">
  <advance width="612"/>
  <unicode hex="222B"/>
  <outline>
    <contour>
      <point x="277" y="-98" type="line"/>
      <point x="267" y="-143"/>
      <point x="199" y="-200"/>
      <point x="154" y="-200" type="qcurve"/>
      <point x="28" y="-200" type="line"/>
      <point x="28" y="-80" type="line"/>
      <point x="127" y="-80" type="line"/>
      <point x="155" y="-80"/>
      <point x="161" y="-50" type="qcurve"/>
      <point x="302" y="598" type="line"/>
      <point x="312" y="645"/>
      <point x="379" y="700"/>
      <point x="425" y="700" type="qcurve"/>
      <point x="551" y="700" type="line"/>
      <point x="551" y="580" type="line"/>
      <point x="452" y="580" type="line"/>
      <point x="424" y="580"/>
      <point x="418" y="550" type="qcurve"/>
    </contour>
  </outline>
</glyph>
<glyph name="approxequal" format="1">
  <advance width="612"/>
  <unicode hex="2248"/>
  <outline>
    <contour>
      <point x="367" y="510" type="qcurve"/>
      <point x="379" y="490"/>
      <point x="395" y="475"/>
      <point x="409" y="475" type="qcurve"/>
      <point x="419" y="475"/>
      <point x="438" y="486"/>
      <point x="448" y="494" type="qcurve"/>
      <point x="518" y="545" type="line"/>
      <point x="588" y="452" type="line"/>
      <point x="483" y="372" type="line"/>
      <point x="466" y="358"/>
      <point x="421" y="337"/>
      <point x="394" y="337" type="qcurve"/>
      <point x="359" y="337"/>
      <point x="319" y="361"/>
      <point x="308" y="378" type="qcurve"/>
      <point x="296" y="398"/>
      <point x="280" y="413"/>
      <point x="266" y="413" type="qcurve"/>
      <point x="256" y="413"/>
      <point x="237" y="402"/>
      <point x="227" y="394" type="qcurve"/>
      <point x="157" y="343" type="line"/>
      <point x="87" y="436" type="line"/>
      <point x="192" y="516" type="line"/>
      <point x="209" y="530"/>
      <point x="254" y="551"/>
      <point x="281" y="551" type="qcurve"/>
      <point x="316" y="551"/>
      <point x="356" y="527"/>
    </contour>
    <contour>
      <point x="307" y="284" type="qcurve"/>
      <point x="319" y="264"/>
      <point x="335" y="249"/>
      <point x="349" y="249" type="qcurve"/>
      <point x="359" y="249"/>
      <point x="378" y="260"/>
      <point x="388" y="268" type="qcurve"/>
      <point x="458" y="319" type="line"/>
      <point x="528" y="226" type="line"/>
      <point x="423" y="146" type="line"/>
      <point x="406" y="132"/>
      <point x="361" y="111"/>
      <point x="334" y="111" type="qcurve"/>
      <point x="299" y="111"/>
      <point x="259" y="135"/>
      <point x="248" y="152" type="qcurve"/>
      <point x="236" y="172"/>
      <point x="220" y="187"/>
      <point x="206" y="187" type="qcurve"/>
      <point x="196" y="187"/>
      <point x="177" y="176"/>
      <point x="167" y="168" type="qcurve"/>
      <point x="94" y="115" type="line"/>
      <point x="24" y="208" type="line"/>
      <point x="132" y="290" type="line"/>
      <point x="149" y="304"/>
      <point x="194" y="325"/>
      <point x="221" y="325" type="qcurve"/>
      <point x="256" y="325"/>
      <point x="296" y="301"/>
    </contour>
  </outline>
</glyph>
<glyph name="fl" format="1">
  <advance width="612"/>
  <unicode hex="FB02"/>
  <outline>
    <contour>
      <point x="295" y="580" type="line"/>
      <point x="268" y="580"/>
      <point x="262" y="550" type="qcurve"/>
      <point x="251" y="496" type="line"/>
      <point x="341" y="496" type="line"/>
      <point x="341" y="376" type="line"/>
      <point x="225" y="376" type="line"/>
      <point x="145" y="0" type="line"/>
      <point x="19" y="0" type="line"/>
      <point x="99" y="376" type="line"/>
      <point x="6" y="376" type="line"/>
      <point x="6" y="496" type="line"/>
      <point x="125" y="496" type="line"/>
      <point x="146" y="598" type="line"/>
      <point x="150" y="619"/>
      <point x="174" y="657"/>
      <point x="207" y="684"/>
      <point x="248" y="700"/>
      <point x="269" y="700" type="qcurve"/>
      <point x="434" y="700" type="line"/>
      <point x="490" y="700"/>
      <point x="549" y="640"/>
      <point x="549" y="593" type="qcurve"/>
      <point x="549" y="573"/>
      <point x="545" y="556" type="qcurve"/>
      <point x="440" y="119" type="line"/>
      <point x="450" y="112" type="line"/>
      <point x="536" y="172" type="line"/>
      <point x="599" y="78" type="line"/>
      <point x="502" y="12" type="line"/>
      <point x="482" y="-2"/>
      <point x="440" y="-14"/>
      <point x="420" y="-14" type="qcurve"/>
      <point x="398" y="-14"/>
      <point x="358" y="1"/>
      <point x="328" y="28"/>
      <point x="311" y="67"/>
      <point x="311" y="91" type="qcurve"/>
      <point x="311" y="110"/>
      <point x="315" y="126" type="qcurve"/>
      <point x="416" y="548" type="line"/>
      <point x="417" y="553"/>
      <point x="417" y="556" type="qcurve"/>
      <point x="417" y="568"/>
      <point x="400" y="580"/>
      <point x="388" y="580" type="qcurve"/>
    </contour>
  </outline>
</glyph>
<glyph name="D.alt" format="1">
  <advance width="612"/>
  <outline>
    <contour>
      <point x="356" y="700" type="line"/>
      <point x="458" y="700"/>
      <point x="570" y="597"/>
      <point x="570" y="512" type="qcurve"/>
      <point x="570" y="498"/>
      <point x="566" y="468"/>
      <point x="563" y="452" type="qcurve"/>
      <point x="519" y="242" type="line"/>
      <point x="505" y="178"/>
      <point x="457" y="87"/>
      <point x="382" y="28"/>
      <point x="279" y="0"/>
      <point x="211" y="0" type="qcurve"/>
      <point x="14" y="0" type="line"/>
      <point x="14" y="12" type="line"/>
      <point x="160" y="700" type="line"/>
    </contour>
    <contour>
      <point x="238" y="126" type="line"/>
      <point x="307" y="126"/>
      <point x="376" y="191"/>
      <point x="390" y="260" type="qcurve"/>
      <point x="431" y="452" type="line"/>
      <point x="433" y="463"/>
      <point x="436" y="481"/>
      <point x="436" y="490" type="qcurve"/>
      <point x="436" y="531"/>
      <point x="386" y="574"/>
      <point x="333" y="574" type="qcurve"/>
      <point x="265" y="574" type="line"/>
      <point x="170" y="126" type="line"/>
    </contour>
  </outline>
</glyph>
<glyph name="Dcroat.alt" format="1">
  <advance width="612"/>
  <outline>
    <contour>
      <point x="368" y="700" type="line"/>
      <point x="470" y="700"/>
      <point x="582" y="597"/>
      <point x="582" y="512" type="qcurve"/>
      <point x="582" y="498"/>
      <point x="578" y="468"/>
      <point x="575" y="452" type="qcurve"/>
      <point x="531" y="242" type="line"/>
      <point x="517" y="178"/>
      <point x="469" y="87"/>
      <point x="394" y="28"/>
      <point x="291" y="0"/>
      <point x="223" y="0" type="qcurve"/>
      <point x="26" y="0" type="line"/>
      <point x="26" y="12" type="line"/>
      <point x="85" y="290" type="line"/>
      <point x="32" y="290" type="line"/>
      <point x="32" y="410" type="line"/>
      <point x="110" y="410" type="line"/>
      <point x="172" y="700" type="line"/>
    </contour>
    <contour>
      <point x="250" y="126" type="line"/>
      <point x="319" y="126"/>
      <point x="388" y="191"/>
      <point x="402" y="260" type="qcurve"/>
      <point x="443" y="452" type="line"/>
      <point x="445" y="463"/>
      <point x="448" y="481"/>
      <point x="448" y="490" type="qcurve"/>
      <point x="448" y="531"/>
      <point x="398" y="574"/>
      <point x="345" y="574" type="qcurve"/>
      <point x="277" y="574" type="line"/>
      <point x="242" y="410" type="line"/>
      <point x="328" y="410" type="line"/>
      <point x="328" y="290" type="line"/>
      <point x="217" y="290" type="line"/>
      <point x="182" y="126" type="line"/>
    </contour>
  </outline>
</glyph>
<glyph name="Delta" format="1">
  <advance width="612"/>
  <outline>
    <contour>
      <point x="-48" y="0" type="line"/>
      <point x="-48" y="12" type="line"/>
      <point x="264" y="700" type="line"/>
      <point x="512" y="700" type="line"/>
      <point x="530" y="0" type="line"/>
    </contour>
    <contour>
      <point x="145" y="126" type="line"/>
      <point x="394" y="126" type="line"/>
      <point x="387" y="634" type="line"/>
      <point x="369" y="634" type="line"/>
    </contour>
  </outline>
</glyph>
<glyph name="Euro.cap" format="1">
  <advance width="612"/>
  <outline>
    <contour>
      <point x="38" y="480" type="line"/>
      <point x="100" y="480" type="line"/>
      <point x="173" y="714"/>
      <point x="403" y="714" type="qcurve"/>
      <point x="452" y="714"/>
      <point x="531" y="685"/>
      <point x="586" y="632"/>
      <point x="615" y="558"/>
      <point x="615" y="514" type="qcurve"/>
      <point x="615" y="479"/>
      <point x="606" y="442" type="qcurve"/>
      <point x="473" y="430" type="line"/>
      <point x="478" y="447"/>
      <point x="483" y="481"/>
      <point x="483" y="496" type="qcurve"/>
      <point x="483" y="540"/>
      <point x="436" y="594"/>
      <point x="382" y="594" type="qcurve"/>
      <point x="327" y="594"/>
      <point x="253" y="528"/>
      <point x="233" y="480" type="qcurve"/>
      <point x="340" y="480" type="line"/>
      <point x="340" y="366" type="line"/>
      <point x="206" y="366" type="line"/>
      <point x="198" y="330" type="line"/>
      <point x="308" y="330" type="line"/>
      <point x="308" y="216" type="line"/>
      <point x="177" y="216" type="line"/>
      <point x="177" y="207" type="line"/>
      <point x="177" y="161"/>
      <point x="224" y="106"/>
      <point x="279" y="106" type="qcurve"/>
      <point x="317" y="106"/>
      <point x="371" y="131"/>
      <point x="407" y="171"/>
      <point x="427" y="224"/>
      <point x="433" y="251" type="qcurve"/>
      <point x="437" y="270" type="line"/>
      <point x="564" y="246" type="line"/>
      <point x="549" y="180"/>
      <point x="500" y="82"/>
      <point x="426" y="18"/>
      <point x="323" y="-14"/>
      <point x="253" y="-14" type="qcurve"/>
      <point x="156" y="-14"/>
      <point x="45" y="94"/>
      <point x="45" y="191" type="qcurve"/>
      <point x="45" y="197"/>
      <point x="45" y="207"/>
      <point x="46" y="216" type="qcurve"/>
      <point x="6" y="216" type="line"/>
      <point x="6" y="330" type="line"/>
      <point x="66" y="330" type="line"/>
      <point x="74" y="366" type="line"/>
      <point x="38" y="366" type="line"/>
    </contour>
  </outline>
</glyph>
<glyph name="IJ.alt" format="1">
  <advance width="612"/>
  <outline>
    <contour>
      <point x="287" y="700" type="line"/>
      <point x="211" y="342" type="line"/>
      <point x="79" y="342" type="line"/>
      <point x="155" y="700" type="line"/>
    </contour>
    <contour>
      <point x="501" y="210" type="line"/>
      <point x="488" y="151"/>
      <point x="445" y="66"/>
      <point x="381" y="12"/>
      <point x="295" y="-14"/>
      <point x="240" y="-14" type="qcurve"/>
      <point x="198" y="-14"/>
      <point x="128" y="10"/>
      <point x="77" y="56"/>
      <point x="48" y="123"/>
      <point x="48" y="167" type="qcurve"/>
      <point x="48" y="198"/>
      <point x="55" y="229" type="qcurve"/>
      <point x="65" y="276" type="line"/>
      <point x="197" y="276" type="line"/>
      <point x="183" y="210" type="line"/>
      <point x="180" y="196"/>
      <point x="180" y="181" type="qcurve"/>
      <point x="180" y="147"/>
      <point x="220" y="110"/>
      <point x="258" y="110" type="qcurve"/>
      <point x="301" y="110"/>
      <point x="358" y="162"/>
      <point x="369" y="210" type="qcurve"/>
      <point x="473" y="700" type="line"/>
      <point x="605" y="700" type="line"/>
    </contour>
  </outline>
</glyph>
<glyph name="J.alt" format="1">
  <advance width="612"/>
  <outline>
    <contour>
      <point x="498" y="210" type="line"/>
      <point x="485" y="151"/>
      <point x="442" y="66"/>
      <point x="378" y="12"/>
      <point x="292" y="-14"/>
      <point x="237" y="-14" type="qcurve"/>
      <point x="195" y="-14"/>
      <point x="125" y="10"/>
      <point x="74" y="56"/>
      <point x="45" y="123"/>
      <point x="45" y="167" type="qcurve"/>
      <point x="45" y="198"/>
      <point x="52" y="229" type="qcurve"/>
      <point x="62" y="276" type="line"/>
      <point x="194" y="276" type="line"/>
      <point x="180" y="210" type="line"/>
      <point x="177" y="196"/>
      <point x="177" y="181" type="qcurve"/>
      <point x="177" y="147"/>
      <point x="217" y="110"/>
      <point x="255" y="110" type="qcurve"/>
      <point x="298" y="110"/>
      <point x="355" y="162"/>
      <point x="366" y="210" type="qcurve"/>
      <point x="470" y="700" type="line"/>
      <point x="602" y="700" type="line"/>
    </contour>
  </outline>
</glyph>
<glyph name="a.alt" format="1">
  <advance width="612"/>
  <outline>
    <contour>
      <point x="456" y="119" type="line"/>
      <point x="466" y="112" type="line"/>
      <point x="517" y="148" type="line"/>
      <point x="580" y="54" type="line"/>
      <point x="518" y="12" type="line"/>
      <point x="479" y="-14"/>
      <point x="436" y="-14" type="qcurve"/>
      <point x="398" y="-14"/>
      <point x="338" y="28"/>
      <point x="330" y="66" type="qcurve"/>
      <point x="312" y="66" type="line"/>
      <point x="304" y="49"/>
      <point x="281" y="20"/>
      <point x="248" y="-1"/>
      <point x="204" y="-14"/>
      <point x="174" y="-14" type="qcurve"/>
      <point x="142" y="-14"/>
      <point x="88" y="6"/>
      <point x="49" y="45"/>
      <point x="26" y="101"/>
      <point x="26" y="138" type="qcurve"/>
      <point x="26" y="166"/>
      <point x="47" y="226"/>
      <point x="96" y="275"/>
      <point x="176" y="306"/>
      <point x="235" y="306" type="qcurve"/>
      <point x="369" y="306" type="line"/>
      <point x="371" y="316"/>
      <point x="371" y="323" type="qcurve"/>
      <point x="371" y="352"/>
      <point x="330" y="390"/>
      <point x="290" y="390" type="qcurve"/>
      <point x="254" y="390"/>
      <point x="205" y="357"/>
      <point x="188" y="330" type="qcurve"/>
      <point x="98" y="398" type="line"/>
      <point x="125" y="443"/>
      <point x="228" y="510"/>
      <point x="306" y="510" type="qcurve"/>
      <point x="348" y="510"/>
      <point x="418" y="485"/>
      <point x="469" y="440"/>
      <point x="497" y="376"/>
      <point x="497" y="338" type="qcurve"/>
      <point x="497" y="319"/>
      <point x="492" y="294" type="qcurve"/>
    </contour>
    <contour>
      <point x="220" y="106" type="qcurve"/>
      <point x="270" y="106"/>
      <point x="338" y="159"/>
      <point x="346" y="198" type="qcurve"/>
      <point x="228" y="198" type="line"/>
      <point x="201" y="198"/>
      <point x="164" y="173"/>
      <point x="164" y="151" type="qcurve"/>
      <point x="164" y="129"/>
      <point x="194" y="106"/>
    </contour>
  </outline>
</glyph>
<glyph name="ijacute" format="1">
  <advance width="612"/>
  <outline>
    <contour>
      <point x="207" y="208" type="line"/>
      <point x="205" y="200"/>
      <point x="203" y="185"/>
      <point x="203" y="177" type="qcurve"/>
      <point x="203" y="139"/>
      <point x="247" y="100"/>
      <point x="285" y="100" type="qcurve"/>
      <point x="339" y="100"/>
      <point x="397" y="170"/>
      <point x="411" y="236" type="qcurve"/>
      <point x="466" y="496" type="line"/>
      <point x="592" y="496" type="line"/>
      <point x="461" y="-122" type="line"/>
      <point x="454" y="-156"/>
      <point x="402" y="-200"/>
      <point x="368" y="-200" type="qcurve"/>
      <point x="132" y="-200" type="line"/>
      <point x="132" y="-80" type="line"/>
      <point x="317" y="-80" type="line"/>
      <point x="344" y="-80"/>
      <point x="350" y="-50" type="qcurve"/>
      <point x="376" y="72" type="line"/>
      <point x="358" y="72" type="line"/>
      <point x="336" y="27"/>
      <point x="268" y="-14"/>
      <point x="217" y="-14" type="qcurve"/>
      <point x="187" y="-14"/>
      <point x="135" y="7"/>
      <point x="95" y="46"/>
      <point x="72" y="103"/>
      <point x="72" y="140" type="qcurve"/>
      <point x="72" y="163"/>
      <point x="78" y="192" type="qcurve"/>
      <point x="117" y="377" type="line"/>
      <point x="107" y="384" type="line"/>
      <point x="47" y="342" type="line"/>
      <point x="-16" y="436" type="line"/>
      <point x="57" y="485" type="line"/>
      <point x="76" y="498"/>
      <point x="116" y="510"/>
      <point x="136" y="510" type="qcurve"/>
      <point x="158" y="510"/>
      <point x="198" y="495"/>
      <point x="228" y="468"/>
      <point x="246" y="429"/>
      <point x="246" y="404" type="qcurve"/>
      <point x="246" y="389"/>
      <point x="243" y="374" type="qcurve"/>
    </contour>
    <component base="acute" xOffset="-126"/>
    <component base="acute" xOffset="221"/>
  </outline>
</glyph>
<glyph name="j.alt" format="1">
  <advance width="612"/>
  <outline>
    <contour>
      <point x="529" y="643" type="qcurve"/>
      <point x="529" y="623"/>
      <point x="514" y="588"/>
      <point x="488" y="563"/>
      <point x="453" y="548"/>
      <point x="434" y="548" type="qcurve"/>
      <point x="414" y="548"/>
      <point x="380" y="563"/>
      <point x="354" y="588"/>
      <point x="339" y="623"/>
      <point x="339" y="643" type="qcurve"/>
      <point x="339" y="663"/>
      <point x="354" y="698"/>
      <point x="380" y="723"/>
      <point x="414" y="738"/>
      <point x="434" y="738" type="qcurve"/>
      <point x="453" y="738"/>
      <point x="488" y="723"/>
      <point x="514" y="698"/>
      <point x="529" y="663"/>
    </contour>
    <contour>
      <point x="188" y="-200" type="line"/>
      <point x="316" y="377" type="line"/>
      <point x="306" y="384" type="line"/>
      <point x="172" y="292" type="line"/>
      <point x="109" y="386" type="line"/>
      <point x="254" y="484" type="line"/>
      <point x="274" y="498"/>
      <point x="316" y="510"/>
      <point x="336" y="510" type="qcurve"/>
      <point x="358" y="510"/>
      <point x="398" y="495"/>
      <point x="428" y="468"/>
      <point x="445" y="428"/>
      <point x="445" y="403" type="qcurve"/>
      <point x="445" y="389"/>
      <point x="441" y="370" type="qcurve"/>
      <point x="314" y="-200" type="line"/>
    </contour>
  </outline>
</glyph>
<glyph name="l.alt" format="1">
  <advance width="612"/>
  <outline>
    <contour>
      <point x="199" y="0" type="line"/>
      <point x="339" y="581" type="line"/>
      <point x="329" y="588" type="line"/>
      <point x="195" y="496" type="line"/>
      <point x="132" y="590" type="line"/>
      <point x="277" y="688" type="line"/>
      <point x="297" y="702"/>
      <point x="339" y="714"/>
      <point x="359" y="714" type="qcurve"/>
      <point x="381" y="714"/>
      <point x="421" y="699"/>
      <point x="451" y="672"/>
      <point x="468" y="633"/>
      <point x="468" y="609" type="qcurve"/>
      <point x="468" y="593"/>
      <point x="464" y="574" type="qcurve"/>
      <point x="326" y="0" type="line"/>
    </contour>
  </outline>
</glyph>
<glyph name="lcaron.alt" format="1">
  <advance width="612"/>
  <outline>
    <contour>
      <point x="414" y="610" type="qcurve"/>
      <point x="414" y="649"/>
      <point x="467" y="700"/>
      <point x="505" y="700" type="qcurve"/>
      <point x="523" y="700"/>
      <point x="556" y="686"/>
      <point x="581" y="661"/>
      <point x="596" y="628"/>
      <point x="596" y="609" type="qcurve"/>
      <point x="596" y="604"/>
      <point x="595" y="595"/>
      <point x="594" y="590" type="qcurve"/>
      <point x="570" y="476" type="line"/>
      <point x="562" y="440"/>
      <point x="508" y="406"/>
      <point x="469" y="406" type="qcurve"/>
      <point x="430" y="406" type="line"/>
      <point x="430" y="484" type="line"/>
      <point x="466" y="484" type="line"/>
      <point x="495" y="484"/>
      <point x="499" y="508" type="qcurve"/>
      <point x="502" y="523" type="line"/>
      <point x="469" y="523"/>
      <point x="414" y="565"/>
    </contour>
    <component base="l.alt" xOffset="-114"/>
  </outline>
</glyph>
<glyph name="paragraph.cap" format="1">
  <advance width="612"/>
  <outline>
    <contour>
      <point x="601" y="700" type="line"/>
      <point x="601" y="688" type="line"/>
      <point x="455" y="0" type="line"/>
      <point x="347" y="0" type="line"/>
      <point x="474" y="598" type="line"/>
      <point x="432" y="598" type="line"/>
      <point x="305" y="0" type="line"/>
      <point x="197" y="0" type="line"/>
      <point x="257" y="284" type="line"/>
      <point x="251" y="284" type="line"/>
      <point x="218" y="284"/>
      <point x="155" y="308"/>
      <point x="107" y="355"/>
      <point x="77" y="422"/>
      <point x="77" y="465" type="qcurve"/>
      <point x="77" y="514"/>
      <point x="112" y="600"/>
      <point x="178" y="664"/>
      <point x="274" y="700"/>
      <point x="336" y="700" type="qcurve"/>
    </contour>
    <contour>
      <point x="312" y="598" type="line"/>
      <point x="279" y="598"/>
      <point x="232" y="576"/>
      <point x="202" y="540"/>
      <point x="188" y="495"/>
      <point x="188" y="472" type="qcurve"/>
      <point x="188" y="450"/>
      <point x="203" y="418"/>
      <point x="226" y="397"/>
      <point x="254" y="386"/>
      <point x="267" y="386" type="qcurve"/>
      <point x="279" y="386" type="line"/>
      <point x="324" y="598" type="line"/>
    </contour>
  </outline>
</glyph>
<glyph name="registered.cap" format="1">
  <advance width="612"/>
  <outline>
    <contour>
      <point x="378" y="136" type="line"/>
      <point x="282" y="136" type="line"/>
      <point x="309" y="264" type="line"/>
      <point x="310" y="269"/>
      <point x="310" y="273" type="qcurve"/>
      <point x="310" y="289"/>
      <point x="295" y="289" type="qcurve"/>
      <point x="269" y="289" type="line"/>
      <point x="236" y="136" type="line"/>
      <point x="140" y="136" type="line"/>
      <point x="231" y="564" type="line"/>
      <point x="342" y="564" type="line"/>
      <point x="398" y="564"/>
      <point x="460" y="512"/>
      <point x="460" y="470" type="qcurve"/>
      <point x="460" y="426"/>
      <point x="425" y="360"/>
      <point x="383" y="343" type="qcurve"/>
      <point x="383" y="334" type="line"/>
      <point x="411" y="329"/>
      <point x="411" y="300" type="qcurve"/>
      <point x="411" y="296"/>
      <point x="410" y="289"/>
      <point x="409" y="284" type="qcurve"/>
    </contour>
    <contour>
      <point x="288" y="379" type="line"/>
      <point x="305" y="379" type="line"/>
      <point x="333" y="379"/>
      <point x="360" y="415"/>
      <point x="360" y="438" type="qcurve"/>
      <point x="360" y="458"/>
      <point x="339" y="474"/>
      <point x="325" y="474" type="qcurve"/>
      <point x="308" y="474" type="line"/>
    </contour>
    <contour>
      <point x="70" y="514" type="line"/>
      <point x="91" y="612"/>
      <point x="218" y="714"/>
      <point x="307" y="714" type="qcurve"/>
      <point x="454" y="714" type="line"/>
      <point x="526" y="714"/>
      <point x="614" y="627"/>
      <point x="614" y="555" type="qcurve"/>
      <point x="614" y="543"/>
      <point x="612" y="519"/>
      <point x="609" y="506" type="qcurve"/>
      <point x="541" y="186" type="line"/>
      <point x="518" y="80"/>
      <point x="401" y="-14"/>
      <point x="304" y="-14" type="qcurve"/>
      <point x="158" y="-14" type="line"/>
      <point x="85" y="-14"/>
      <point x="-3" y="66"/>
      <point x="-3" y="141" type="qcurve"/>
      <point x="-3" y="167"/>
      <point x="3" y="197" type="qcurve"/>
    </contour>
    <contour>
      <point x="101" y="206" type="line"/>
      <point x="96" y="181"/>
      <point x="96" y="164" type="qcurve"/>
      <point x="96" y="82"/>
      <point x="189" y="82" type="qcurve"/>
      <point x="309" y="82" type="line"/>
      <point x="368" y="82"/>
      <point x="436" y="146"/>
      <point x="449" y="206" type="qcurve"/>
      <point x="510" y="494" type="line"/>
      <point x="515" y="519"/>
      <point x="515" y="536" type="qcurve"/>
      <point x="515" y="618"/>
      <point x="422" y="618" type="qcurve"/>
      <point x="302" y="618" type="line"/>
      <point x="243" y="618"/>
      <point x="175" y="554"/>
      <point x="162" y="494" type="qcurve"/>
    </contour>
  </outline>
</glyph>
<glyph name="three.tosn" format="1">
  <advance width="612"/>
  <outline>
    <contour>
      <point x="221" y="114" type="line"/>
      <point x="221" y="304" type="line"/>
      <point x="416" y="352" type="line"/>
      <point x="416" y="370" type="line"/>
      <point x="104" y="370" type="line"/>
      <point x="104" y="496" type="line"/>
      <point x="530" y="496" type="line"/>
      <point x="530" y="288" type="line"/>
      <point x="329" y="234" type="line"/>
      <point x="329" y="216" type="line"/>
      <point x="341" y="216" type="line"/>
      <point x="373" y="216"/>
      <point x="430" y="194"/>
      <point x="472" y="153"/>
      <point x="497" y="96"/>
      <point x="497" y="62" type="qcurve"/>
      <point x="497" y="-3"/>
      <point x="458" y="-101"/>
      <point x="386" y="-167"/>
      <point x="283" y="-200"/>
      <point x="219" y="-200" type="qcurve"/>
      <point x="169" y="-200"/>
      <point x="86" y="-170"/>
      <point x="27" y="-118"/>
      <point x="-6" y="-48"/>
      <point x="-6" y="-7" type="qcurve"/>
      <point x="-6" y="4"/>
      <point x="-4" y="29"/>
      <point x="-2" y="42" type="qcurve"/>
      <point x="133" y="62" type="line"/>
      <point x="131" y="50"/>
      <point x="131" y="38"/>
      <point x="131" y="30" type="qcurve"/>
      <point x="131" y="-21"/>
      <point x="184" y="-74"/>
      <point x="241" y="-74" type="qcurve"/>
      <point x="297" y="-74"/>
      <point x="363" y="-9"/>
      <point x="363" y="39" type="qcurve"/>
      <point x="363" y="74"/>
      <point x="317" y="114"/>
      <point x="277" y="114" type="qcurve"/>
    </contour>
  </outline>
</glyph>
<glyph name="uni013C.alt" format="1">
  <advance width="612"/>
  <outline>
    <contour>
      <point x="124" y="-134" type="qcurve"/>
      <point x="124" y="-115"/>
      <point x="138" y="-82"/>
      <point x="163" y="-58"/>
      <point x="196" y="-44"/>
      <point x="215" y="-44" type="qcurve"/>
      <point x="233" y="-44"/>
      <point x="266" y="-58"/>
      <point x="291" y="-83"/>
      <point x="306" y="-116"/>
      <point x="306" y="-135" type="qcurve"/>
      <point x="306" y="-140"/>
      <point x="305" y="-150"/>
      <point x="304" y="-155" type="qcurve"/>
      <point x="280" y="-269" type="line"/>
      <point x="272" y="-304"/>
      <point x="218" y="-338"/>
      <point x="179" y="-338" type="qcurve"/>
      <point x="131" y="-338" type="line"/>
      <point x="131" y="-260" type="line"/>
      <point x="173" y="-260" type="line"/>
      <point x="190" y="-260"/>
      <point x="207" y="-251"/>
      <point x="209" y="-237" type="qcurve"/>
      <point x="212" y="-218" type="line"/>
      <point x="196" y="-218"/>
      <point x="164" y="-208"/>
      <point x="139" y="-187"/>
      <point x="124" y="-156"/>
    </contour>
    <component base="l.alt" xOffset="-26"/>
  </outline>
</glyph>
<glyph name="uni1EF5.alt" format="1">
  <advance width="612"/>
  <outline>
    <contour>
      <point x="541" y="-140" type="qcurve"/>
      <point x="541" y="-160"/>
      <point x="526" y="-195"/>
      <point x="500" y="-220"/>
      <point x="465" y="-235"/>
      <point x="446" y="-235" type="qcurve"/>
      <point x="426" y="-235"/>
      <point x="392" y="-220"/>
      <point x="366" y="-195"/>
      <point x="351" y="-160"/>
      <point x="351" y="-140" type="qcurve"/>
      <point x="351" y="-120"/>
      <point x="366" y="-85"/>
      <point x="392" y="-60"/>
      <point x="426" y="-45"/>
      <point x="446" y="-45" type="qcurve"/>
      <point x="465" y="-45"/>
      <point x="500" y="-60"/>
      <point x="526" y="-85"/>
      <point x="541" y="-120"/>
    </contour>
    <component base="y.alt"/>
  </outline>
</glyph>
<glyph name="uni20A4.cap" format="1">
  <advance width="612"/>
  <outline>
    <contour>
      <point x="56" y="444" type="line"/>
      <point x="128" y="444" type="line"/>
      <point x="138" y="490" type="line"/>
      <point x="163" y="607"/>
      <point x="299" y="714"/>
      <point x="400" y="714" type="qcurve"/>
      <point x="446" y="714"/>
      <point x="520" y="687"/>
      <point x="572" y="639"/>
      <point x="599" y="574"/>
      <point x="599" y="536" type="qcurve"/>
      <point x="599" y="522"/>
      <point x="596" y="501"/>
      <point x="594" y="490" type="qcurve"/>
      <point x="580" y="424" type="line"/>
      <point x="454" y="424" type="line"/>
      <point x="469" y="494" type="line"/>
      <point x="472" y="509"/>
      <point x="472" y="519" type="qcurve"/>
      <point x="472" y="554"/>
      <point x="425" y="594"/>
      <point x="385" y="594" type="qcurve"/>
      <point x="341" y="594"/>
      <point x="275" y="542"/>
      <point x="265" y="494" type="qcurve"/>
      <point x="254" y="444" type="line"/>
      <point x="344" y="444" type="line"/>
      <point x="344" y="330" type="line"/>
      <point x="230" y="330" type="line"/>
      <point x="222" y="294" type="line"/>
      <point x="312" y="294" type="line"/>
      <point x="312" y="180" type="line"/>
      <point x="198" y="180" type="line"/>
      <point x="185" y="120" type="line"/>
      <point x="515" y="120" type="line"/>
      <point x="515" y="0" type="line"/>
      <point x="-12" y="0" type="line"/>
      <point x="-12" y="120" type="line"/>
      <point x="59" y="120" type="line"/>
      <point x="72" y="180" type="line"/>
      <point x="24" y="180" type="line"/>
      <point x="24" y="294" type="line"/>
      <point x="96" y="294" type="line"/>
      <point x="104" y="330" type="line"/>
      <point x="56" y="330" type="line"/>
    </contour>
  </outline>
</glyph>
